<svg width="794" height="624" viewBox="0 0 794 624" fill="none" xmlns="http://www.w3.org/2000/svg">
<rect x="423.789" width="370.209" height="624" rx="8" fill="#F3742B"/>
<path d="M0 8C0 3.58172 3.58172 0 8 0H794V78H0V8Z" fill="url(#paint0_linear_2593_33500)"/>
<path d="M24.62 32.92V31.66H28.02V46H26.6V32.92H24.62ZM35.5798 32.02C37.1265 32.02 38.4532 32.3 39.5598 32.86C40.6665 33.42 41.5132 34.2267 42.0998 35.28C42.6865 36.3333 42.9798 37.5867 42.9798 39.04C42.9798 40.48 42.6865 41.7267 42.0998 42.78C41.5132 43.82 40.6665 44.62 39.5598 45.18C38.4532 45.7267 37.1265 46 35.5798 46H31.4398V32.02H35.5798ZM35.5798 44.84C37.5265 44.84 39.0065 44.3333 40.0198 43.32C41.0465 42.2933 41.5598 40.8667 41.5598 39.04C41.5598 37.2 41.0465 35.7667 40.0198 34.74C39.0065 33.7 37.5265 33.18 35.5798 33.18H32.8398V44.84H35.5798ZM44.5809 32.92V31.66H47.9809V46H46.5609V32.92H44.5809ZM52.8008 33.16V38.38H58.1008V39.54H52.8008V44.84H58.7008V46H51.4008V32H58.7008V33.16H52.8008ZM60.8794 44.9C63.3327 43.06 65.226 41.4133 66.5594 39.96C67.906 38.4933 68.5794 37.06 68.5794 35.66C68.5794 34.74 68.346 34.0067 67.8794 33.46C67.426 32.9 66.6794 32.62 65.6394 32.62C64.626 32.62 63.8394 32.94 63.2794 33.58C62.7327 34.2067 62.426 35.0467 62.3594 36.1H60.9994C61.0794 34.62 61.5327 33.4733 62.3594 32.66C63.1994 31.8333 64.2927 31.42 65.6394 31.42C66.9327 31.42 67.9794 31.7867 68.7794 32.52C69.5794 33.24 69.9794 34.2667 69.9794 35.6C69.9794 37.2133 69.306 38.78 67.9594 40.3C66.626 41.8067 64.9794 43.28 63.0194 44.72H70.4194V45.9H60.8794V44.9ZM72.6047 38.7C72.6047 36.4067 72.958 34.6267 73.6647 33.36C74.3714 32.0933 75.638 31.46 77.4647 31.46C79.2914 31.46 80.558 32.0933 81.2647 33.36C81.9714 34.6267 82.3247 36.4067 82.3247 38.7C82.3247 41.0333 81.9714 42.84 81.2647 44.12C80.558 45.4 79.2914 46.04 77.4647 46.04C75.6247 46.04 74.3514 45.4 73.6447 44.12C72.9514 42.84 72.6047 41.0333 72.6047 38.7ZM80.9447 38.7C80.9447 37.46 80.858 36.4133 80.6847 35.56C80.5114 34.7067 80.1714 34.02 79.6647 33.5C79.158 32.98 78.4247 32.72 77.4647 32.72C76.5047 32.72 75.7714 32.98 75.2647 33.5C74.758 34.02 74.418 34.7067 74.2447 35.56C74.0714 36.4133 73.9847 37.46 73.9847 38.7C73.9847 39.98 74.0714 41.0533 74.2447 41.92C74.418 42.7733 74.758 43.46 75.2647 43.98C75.7714 44.5 76.5047 44.76 77.4647 44.76C78.4247 44.76 79.158 44.5 79.6647 43.98C80.1714 43.46 80.5114 42.7733 80.6847 41.92C80.858 41.0533 80.9447 39.98 80.9447 38.7Z" fill="white"/>
<rect width="794" height="78" transform="translate(0 78)" fill="url(#paint1_linear_2593_33500)"/>
<path d="M25.3 116.7C25.3 114.407 25.6533 112.627 26.36 111.36C27.0667 110.093 28.3333 109.46 30.16 109.46C31.9867 109.46 33.2533 110.093 33.96 111.36C34.6667 112.627 35.02 114.407 35.02 116.7C35.02 119.033 34.6667 120.84 33.96 122.12C33.2533 123.4 31.9867 124.04 30.16 124.04C28.32 124.04 27.0467 123.4 26.34 122.12C25.6467 120.84 25.3 119.033 25.3 116.7ZM33.64 116.7C33.64 115.46 33.5533 114.413 33.38 113.56C33.2067 112.707 32.8667 112.02 32.36 111.5C31.8533 110.98 31.12 110.72 30.16 110.72C29.2 110.72 28.4667 110.98 27.96 111.5C27.4533 112.02 27.1133 112.707 26.94 113.56C26.7667 114.413 26.68 115.46 26.68 116.7C26.68 117.98 26.7667 119.053 26.94 119.92C27.1133 120.773 27.4533 121.46 27.96 121.98C28.4667 122.5 29.2 122.76 30.16 122.76C31.12 122.76 31.8533 122.5 32.36 121.98C32.8667 121.46 33.2067 120.773 33.38 119.92C33.5533 119.053 33.64 117.98 33.64 116.7ZM39.4842 120.18C39.6309 121.047 39.9642 121.713 40.4842 122.18C41.0042 122.647 41.7176 122.88 42.6242 122.88C43.8776 122.88 44.8042 122.393 45.4042 121.42C46.0176 120.433 46.2976 118.807 46.2442 116.54C45.9909 117.273 45.5042 117.853 44.7842 118.28C44.0776 118.693 43.2642 118.9 42.3442 118.9C40.9442 118.9 39.8176 118.48 38.9642 117.64C38.1242 116.8 37.7042 115.633 37.7042 114.14C37.7042 113.247 37.8776 112.44 38.2242 111.72C38.5709 111 39.0976 110.433 39.8042 110.02C40.5109 109.607 41.3776 109.4 42.4042 109.4C44.2976 109.4 45.6176 110.02 46.3642 111.26C47.1109 112.487 47.4842 114.253 47.4842 116.56C47.4842 119.053 47.1109 120.927 46.3642 122.18C45.6309 123.433 44.3642 124.06 42.5642 124.06C41.2442 124.06 40.2176 123.707 39.4842 123C38.7509 122.28 38.3176 121.34 38.1842 120.18H39.4842ZM42.5642 117.7C43.1909 117.7 43.7642 117.573 44.2842 117.32C44.8176 117.053 45.2442 116.667 45.5642 116.16C45.8842 115.653 46.0442 115.047 46.0442 114.34C46.0442 113.247 45.7309 112.347 45.1042 111.64C44.4909 110.933 43.6042 110.58 42.4442 110.58C41.4176 110.58 40.5909 110.9 39.9642 111.54C39.3509 112.18 39.0442 113.033 39.0442 114.1C39.0442 115.22 39.3509 116.1 39.9642 116.74C40.5776 117.38 41.4442 117.7 42.5642 117.7ZM49.4442 110.92V109.66H52.8442V124H51.4242V110.92H49.4442ZM60.4041 110.02C61.9507 110.02 63.2774 110.3 64.3841 110.86C65.4907 111.42 66.3374 112.227 66.9241 113.28C67.5107 114.333 67.8041 115.587 67.8041 117.04C67.8041 118.48 67.5107 119.727 66.9241 120.78C66.3374 121.82 65.4907 122.62 64.3841 123.18C63.2774 123.727 61.9507 124 60.4041 124H56.2641V110.02H60.4041ZM60.4041 122.84C62.3507 122.84 63.8307 122.333 64.8441 121.32C65.8707 120.293 66.3841 118.867 66.3841 117.04C66.3841 115.2 65.8707 113.767 64.8441 112.74C63.8307 111.7 62.3507 111.18 60.4041 111.18H57.6641V122.84H60.4041ZM70.0252 113.32C70.1185 112.107 70.5852 111.153 71.4252 110.46C72.2785 109.753 73.3785 109.4 74.7252 109.4C75.6185 109.4 76.3852 109.56 77.0252 109.88C77.6652 110.2 78.1452 110.64 78.4652 111.2C78.7985 111.747 78.9652 112.367 78.9652 113.06C78.9652 113.9 78.7185 114.627 78.2252 115.24C77.7318 115.853 77.0318 116.233 76.1252 116.38V116.48C77.0718 116.667 77.8252 117.08 78.3852 117.72C78.9452 118.347 79.2252 119.173 79.2252 120.2C79.2252 121.347 78.8385 122.287 78.0652 123.02C77.3052 123.74 76.1985 124.1 74.7452 124.1C73.3585 124.1 72.2185 123.74 71.3252 123.02C70.4318 122.287 69.9185 121.253 69.7852 119.92H71.1452C71.2652 120.813 71.6385 121.54 72.2652 122.1C72.8918 122.647 73.7185 122.92 74.7452 122.92C75.7585 122.92 76.5318 122.653 77.0652 122.12C77.6118 121.587 77.8852 120.907 77.8852 120.08C77.8852 118.053 76.4252 117.04 73.5052 117.04H73.0652V115.86H73.5252C76.2452 115.86 77.6052 114.973 77.6052 113.2C77.6052 112.427 77.3518 111.807 76.8452 111.34C76.3385 110.86 75.6185 110.62 74.6852 110.62C73.7785 110.62 73.0252 110.86 72.4252 111.34C71.8385 111.807 71.4918 112.467 71.3852 113.32H70.0252ZM86.2244 110.02C87.771 110.02 89.0977 110.3 90.2044 110.86C91.311 111.42 92.1577 112.227 92.7444 113.28C93.331 114.333 93.6244 115.587 93.6244 117.04C93.6244 118.48 93.331 119.727 92.7444 120.78C92.1577 121.82 91.311 122.62 90.2044 123.18C89.0977 123.727 87.771 124 86.2244 124H82.0844V110.02H86.2244ZM86.2244 122.84C88.171 122.84 89.651 122.333 90.6644 121.32C91.691 120.293 92.2044 118.867 92.2044 117.04C92.2044 115.2 91.691 113.767 90.6644 112.74C89.651 111.7 88.171 111.18 86.2244 111.18H83.4844V122.84H86.2244Z" fill="white"/>
<rect width="794" height="78" transform="translate(0 156)" fill="url(#paint2_linear_2593_33500)"/>
<path d="M25.3 194.7C25.3 192.407 25.6533 190.627 26.36 189.36C27.0667 188.093 28.3333 187.46 30.16 187.46C31.9867 187.46 33.2533 188.093 33.96 189.36C34.6667 190.627 35.02 192.407 35.02 194.7C35.02 197.033 34.6667 198.84 33.96 200.12C33.2533 201.4 31.9867 202.04 30.16 202.04C28.32 202.04 27.0467 201.4 26.34 200.12C25.6467 198.84 25.3 197.033 25.3 194.7ZM33.64 194.7C33.64 193.46 33.5533 192.413 33.38 191.56C33.2067 190.707 32.8667 190.02 32.36 189.5C31.8533 188.98 31.12 188.72 30.16 188.72C29.2 188.72 28.4667 188.98 27.96 189.5C27.4533 190.02 27.1133 190.707 26.94 191.56C26.7667 192.413 26.68 193.46 26.68 194.7C26.68 195.98 26.7667 197.053 26.94 197.92C27.1133 198.773 27.4533 199.46 27.96 199.98C28.4667 200.5 29.2 200.76 30.16 200.76C31.12 200.76 31.8533 200.5 32.36 199.98C32.8667 199.46 33.2067 198.773 33.38 197.92C33.5533 197.053 33.64 195.98 33.64 194.7ZM39.3242 189.16V194.38H44.6242V195.54H39.3242V200.84H45.2242V202H37.9242V188H45.2242V189.16H39.3242ZM47.0628 198.6V197.54L54.3428 187.74H56.0028V197.38H58.1428V198.6H56.0028V202H54.6228V198.6H47.0628ZM54.6828 189.28L48.6828 197.38H54.6828V189.28ZM68.3484 198.68H61.9884L60.7684 202H59.2884L64.3884 188.2H65.9684L71.0484 202H69.5684L68.3484 198.68ZM67.9284 197.52L65.1684 189.96L62.4084 197.52H67.9284ZM81.3953 198.68H75.0353L73.8153 202H72.3353L77.4353 188.2H79.0153L84.0953 202H82.6153L81.3953 198.68ZM80.9753 197.52L78.2153 189.96L75.4553 197.52H80.9753ZM85.9822 191.32C86.0755 190.107 86.5422 189.153 87.3822 188.46C88.2355 187.753 89.3355 187.4 90.6822 187.4C91.5755 187.4 92.3422 187.56 92.9822 187.88C93.6222 188.2 94.1022 188.64 94.4222 189.2C94.7555 189.747 94.9222 190.367 94.9222 191.06C94.9222 191.9 94.6755 192.627 94.1822 193.24C93.6889 193.853 92.9889 194.233 92.0822 194.38V194.48C93.0289 194.667 93.7822 195.08 94.3422 195.72C94.9022 196.347 95.1822 197.173 95.1822 198.2C95.1822 199.347 94.7955 200.287 94.0222 201.02C93.2622 201.74 92.1555 202.1 90.7022 202.1C89.3155 202.1 88.1755 201.74 87.2822 201.02C86.3889 200.287 85.8755 199.253 85.7422 197.92H87.1022C87.2222 198.813 87.5955 199.54 88.2222 200.1C88.8489 200.647 89.6755 200.92 90.7022 200.92C91.7155 200.92 92.4889 200.653 93.0222 200.12C93.5689 199.587 93.8422 198.907 93.8422 198.08C93.8422 196.053 92.3822 195.04 89.4622 195.04H89.0222V193.86H89.4822C92.2022 193.86 93.5622 192.973 93.5622 191.2C93.5622 190.427 93.3089 189.807 92.8022 189.34C92.2955 188.86 91.5755 188.62 90.6422 188.62C89.7355 188.62 88.9822 188.86 88.3822 189.34C87.7955 189.807 87.4489 190.467 87.3422 191.32H85.9822Z" fill="white"/>
<rect width="794" height="78" transform="translate(0 234)" fill="url(#paint3_linear_2593_33500)"/>
<path d="M33.16 266.02V267.18H27V272.4H32.2V273.56H27V280H25.6V266.02H33.16ZM43.0233 266.02V267.18H36.8633V272.4H42.0633V273.56H36.8633V280H35.4633V266.02H43.0233ZM49.4666 266.02C51.0132 266.02 52.3399 266.3 53.4466 266.86C54.5532 267.42 55.3999 268.227 55.9866 269.28C56.5732 270.333 56.8666 271.587 56.8666 273.04C56.8666 274.48 56.5732 275.727 55.9866 276.78C55.3999 277.82 54.5532 278.62 53.4466 279.18C52.3399 279.727 51.0132 280 49.4666 280H45.3266V266.02H49.4666ZM49.4666 278.84C51.4132 278.84 52.8932 278.333 53.9066 277.32C54.9332 276.293 55.4466 274.867 55.4466 273.04C55.4466 271.2 54.9332 269.767 53.9066 268.74C52.8932 267.7 51.4132 267.18 49.4666 267.18H46.7266V278.84H49.4666ZM58.5277 276.6V275.54L65.8077 265.74H67.4677V275.38H69.6077V276.6H67.4677V280H66.0877V276.6H58.5277ZM66.1477 267.28L60.1477 275.38H66.1477V267.28ZM78.2533 272.78C79.0399 272.927 79.7066 273.327 80.2533 273.98C80.7999 274.633 81.0733 275.393 81.0733 276.26C81.0733 276.967 80.8933 277.607 80.5333 278.18C80.1866 278.74 79.6733 279.187 78.9933 279.52C78.3133 279.84 77.4999 280 76.5533 280H71.7133V266.02H76.4133C77.8266 266.02 78.8999 266.347 79.6333 267C80.3799 267.653 80.7533 268.5 80.7533 269.54C80.7533 270.407 80.5199 271.113 80.0533 271.66C79.5866 272.193 78.9866 272.567 78.2533 272.78ZM73.1133 272.2H76.3733C77.3199 272.2 78.0466 271.98 78.5533 271.54C79.0733 271.087 79.3333 270.467 79.3333 269.68C79.3333 268.907 79.0733 268.3 78.5533 267.86C78.0466 267.42 77.2999 267.2 76.3133 267.2H73.1133V272.2ZM76.4533 278.82C77.4666 278.82 78.2533 278.58 78.8133 278.1C79.3866 277.62 79.6733 276.96 79.6733 276.12C79.6733 275.28 79.3733 274.613 78.7733 274.12C78.1866 273.613 77.3933 273.36 76.3933 273.36H73.1133V278.82H76.4533ZM86.1269 272.56C85.3002 272.293 84.6669 271.873 84.2269 271.3C83.8002 270.727 83.5869 270.033 83.5869 269.22C83.5869 268.5 83.7669 267.86 84.1269 267.3C84.5002 266.727 85.0402 266.28 85.7469 265.96C86.4535 265.627 87.3002 265.46 88.2869 265.46C89.2735 265.46 90.1202 265.627 90.8269 265.96C91.5335 266.28 92.0669 266.727 92.4269 267.3C92.8002 267.86 92.9869 268.5 92.9869 269.22C92.9869 270.02 92.7669 270.713 92.3269 271.3C91.9002 271.887 91.2735 272.307 90.4469 272.56C91.3535 272.787 92.0669 273.22 92.5869 273.86C93.1069 274.5 93.3669 275.28 93.3669 276.2C93.3669 277.053 93.1535 277.8 92.7269 278.44C92.3135 279.067 91.7202 279.553 90.9469 279.9C90.1869 280.247 89.3002 280.42 88.2869 280.42C87.2735 280.42 86.3802 280.247 85.6069 279.9C84.8469 279.553 84.2535 279.067 83.8269 278.44C83.4135 277.8 83.2069 277.053 83.2069 276.2C83.2069 275.28 83.4669 274.5 83.9869 273.86C84.5069 273.22 85.2202 272.787 86.1269 272.56ZM91.6269 269.38C91.6269 268.5 91.3269 267.82 90.7269 267.34C90.1269 266.86 89.3135 266.62 88.2869 266.62C87.2602 266.62 86.4469 266.86 85.8469 267.34C85.2469 267.807 84.9469 268.487 84.9469 269.38C84.9469 270.207 85.2535 270.867 85.8669 271.36C86.4802 271.853 87.2869 272.1 88.2869 272.1C89.2869 272.1 90.0935 271.853 90.7069 271.36C91.3202 270.867 91.6269 270.207 91.6269 269.38ZM88.2869 273.18C87.1935 273.18 86.3002 273.427 85.6069 273.92C84.9135 274.413 84.5669 275.16 84.5669 276.16C84.5669 277.12 84.9002 277.873 85.5669 278.42C86.2335 278.967 87.1402 279.24 88.2869 279.24C89.4202 279.24 90.3202 278.967 90.9869 278.42C91.6535 277.86 91.9869 277.107 91.9869 276.16C91.9869 275.173 91.6402 274.433 90.9469 273.94C90.2669 273.433 89.3802 273.18 88.2869 273.18Z" fill="white"/>
<rect width="794" height="78" transform="translate(0 312)" fill="url(#paint4_linear_2593_33500)"/>
<path d="M33.16 344.02V345.18H27V350.4H32.2V351.56H27V358H25.6V344.02H33.16ZM43.0233 344.02V345.18H36.8633V350.4H42.0633V351.56H36.8633V358H35.4633V344.02H43.0233ZM49.4666 344.02C51.0132 344.02 52.3399 344.3 53.4466 344.86C54.5532 345.42 55.3999 346.227 55.9866 347.28C56.5732 348.333 56.8666 349.587 56.8666 351.04C56.8666 352.48 56.5732 353.727 55.9866 354.78C55.3999 355.82 54.5532 356.62 53.4466 357.18C52.3399 357.727 51.0132 358 49.4666 358H45.3266V344.02H49.4666ZM49.4666 356.84C51.4132 356.84 52.8932 356.333 53.9066 355.32C54.9332 354.293 55.4466 352.867 55.4466 351.04C55.4466 349.2 54.9332 347.767 53.9066 346.74C52.8932 345.7 51.4132 345.18 49.4666 345.18H46.7266V356.84H49.4666ZM58.5277 354.6V353.54L65.8077 343.74H67.4677V353.38H69.6077V354.6H67.4677V358H66.0877V354.6H58.5277ZM66.1477 345.28L60.1477 353.38H66.1477V345.28ZM78.2533 350.78C79.0399 350.927 79.7066 351.327 80.2533 351.98C80.7999 352.633 81.0733 353.393 81.0733 354.26C81.0733 354.967 80.8933 355.607 80.5333 356.18C80.1866 356.74 79.6733 357.187 78.9933 357.52C78.3133 357.84 77.4999 358 76.5533 358H71.7133V344.02H76.4133C77.8266 344.02 78.8999 344.347 79.6333 345C80.3799 345.653 80.7533 346.5 80.7533 347.54C80.7533 348.407 80.5199 349.113 80.0533 349.66C79.5866 350.193 78.9866 350.567 78.2533 350.78ZM73.1133 350.2H76.3733C77.3199 350.2 78.0466 349.98 78.5533 349.54C79.0733 349.087 79.3333 348.467 79.3333 347.68C79.3333 346.907 79.0733 346.3 78.5533 345.86C78.0466 345.42 77.2999 345.2 76.3133 345.2H73.1133V350.2ZM76.4533 356.82C77.4666 356.82 78.2533 356.58 78.8133 356.1C79.3866 355.62 79.6733 354.96 79.6733 354.12C79.6733 353.28 79.3733 352.613 78.7733 352.12C78.1866 351.613 77.3933 351.36 76.3933 351.36H73.1133V356.82H76.4533ZM86.1269 350.56C85.3002 350.293 84.6669 349.873 84.2269 349.3C83.8002 348.727 83.5869 348.033 83.5869 347.22C83.5869 346.5 83.7669 345.86 84.1269 345.3C84.5002 344.727 85.0402 344.28 85.7469 343.96C86.4535 343.627 87.3002 343.46 88.2869 343.46C89.2735 343.46 90.1202 343.627 90.8269 343.96C91.5335 344.28 92.0669 344.727 92.4269 345.3C92.8002 345.86 92.9869 346.5 92.9869 347.22C92.9869 348.02 92.7669 348.713 92.3269 349.3C91.9002 349.887 91.2735 350.307 90.4469 350.56C91.3535 350.787 92.0669 351.22 92.5869 351.86C93.1069 352.5 93.3669 353.28 93.3669 354.2C93.3669 355.053 93.1535 355.8 92.7269 356.44C92.3135 357.067 91.7202 357.553 90.9469 357.9C90.1869 358.247 89.3002 358.42 88.2869 358.42C87.2735 358.42 86.3802 358.247 85.6069 357.9C84.8469 357.553 84.2535 357.067 83.8269 356.44C83.4135 355.8 83.2069 355.053 83.2069 354.2C83.2069 353.28 83.4669 352.5 83.9869 351.86C84.5069 351.22 85.2202 350.787 86.1269 350.56ZM91.6269 347.38C91.6269 346.5 91.3269 345.82 90.7269 345.34C90.1269 344.86 89.3135 344.62 88.2869 344.62C87.2602 344.62 86.4469 344.86 85.8469 345.34C85.2469 345.807 84.9469 346.487 84.9469 347.38C84.9469 348.207 85.2535 348.867 85.8669 349.36C86.4802 349.853 87.2869 350.1 88.2869 350.1C89.2869 350.1 90.0935 349.853 90.7069 349.36C91.3202 348.867 91.6269 348.207 91.6269 347.38ZM88.2869 351.18C87.1935 351.18 86.3002 351.427 85.6069 351.92C84.9135 352.413 84.5669 353.16 84.5669 354.16C84.5669 355.12 84.9002 355.873 85.5669 356.42C86.2335 356.967 87.1402 357.24 88.2869 357.24C89.4202 357.24 90.3202 356.967 90.9869 356.42C91.6535 355.86 91.9869 355.107 91.9869 354.16C91.9869 353.173 91.6402 352.433 90.9469 351.94C90.2669 351.433 89.3802 351.18 88.2869 351.18Z" fill="white"/>
<rect width="794" height="78" transform="translate(0 390)" fill="url(#paint5_linear_2593_33500)"/>
<path d="M33.16 422.02V423.18H27V428.4H32.2V429.56H27V436H25.6V422.02H33.16ZM43.0233 422.02V423.18H36.8633V428.4H42.0633V429.56H36.8633V436H35.4633V422.02H43.0233ZM49.4666 422.02C51.0132 422.02 52.3399 422.3 53.4466 422.86C54.5532 423.42 55.3999 424.227 55.9866 425.28C56.5732 426.333 56.8666 427.587 56.8666 429.04C56.8666 430.48 56.5732 431.727 55.9866 432.78C55.3999 433.82 54.5532 434.62 53.4466 435.18C52.3399 435.727 51.0132 436 49.4666 436H45.3266V422.02H49.4666ZM49.4666 434.84C51.4132 434.84 52.8932 434.333 53.9066 433.32C54.9332 432.293 55.4466 430.867 55.4466 429.04C55.4466 427.2 54.9332 425.767 53.9066 424.74C52.8932 423.7 51.4132 423.18 49.4666 423.18H46.7266V434.84H49.4666ZM58.5277 432.6V431.54L65.8077 421.74H67.4677V431.38H69.6077V432.6H67.4677V436H66.0877V432.6H58.5277ZM66.1477 423.28L60.1477 431.38H66.1477V423.28ZM78.2533 428.78C79.0399 428.927 79.7066 429.327 80.2533 429.98C80.7999 430.633 81.0733 431.393 81.0733 432.26C81.0733 432.967 80.8933 433.607 80.5333 434.18C80.1866 434.74 79.6733 435.187 78.9933 435.52C78.3133 435.84 77.4999 436 76.5533 436H71.7133V422.02H76.4133C77.8266 422.02 78.8999 422.347 79.6333 423C80.3799 423.653 80.7533 424.5 80.7533 425.54C80.7533 426.407 80.5199 427.113 80.0533 427.66C79.5866 428.193 78.9866 428.567 78.2533 428.78ZM73.1133 428.2H76.3733C77.3199 428.2 78.0466 427.98 78.5533 427.54C79.0733 427.087 79.3333 426.467 79.3333 425.68C79.3333 424.907 79.0733 424.3 78.5533 423.86C78.0466 423.42 77.2999 423.2 76.3133 423.2H73.1133V428.2ZM76.4533 434.82C77.4666 434.82 78.2533 434.58 78.8133 434.1C79.3866 433.62 79.6733 432.96 79.6733 432.12C79.6733 431.28 79.3733 430.613 78.7733 430.12C78.1866 429.613 77.3933 429.36 76.3933 429.36H73.1133V434.82H76.4533ZM86.1269 428.56C85.3002 428.293 84.6669 427.873 84.2269 427.3C83.8002 426.727 83.5869 426.033 83.5869 425.22C83.5869 424.5 83.7669 423.86 84.1269 423.3C84.5002 422.727 85.0402 422.28 85.7469 421.96C86.4535 421.627 87.3002 421.46 88.2869 421.46C89.2735 421.46 90.1202 421.627 90.8269 421.96C91.5335 422.28 92.0669 422.727 92.4269 423.3C92.8002 423.86 92.9869 424.5 92.9869 425.22C92.9869 426.02 92.7669 426.713 92.3269 427.3C91.9002 427.887 91.2735 428.307 90.4469 428.56C91.3535 428.787 92.0669 429.22 92.5869 429.86C93.1069 430.5 93.3669 431.28 93.3669 432.2C93.3669 433.053 93.1535 433.8 92.7269 434.44C92.3135 435.067 91.7202 435.553 90.9469 435.9C90.1869 436.247 89.3002 436.42 88.2869 436.42C87.2735 436.42 86.3802 436.247 85.6069 435.9C84.8469 435.553 84.2535 435.067 83.8269 434.44C83.4135 433.8 83.2069 433.053 83.2069 432.2C83.2069 431.28 83.4669 430.5 83.9869 429.86C84.5069 429.22 85.2202 428.787 86.1269 428.56ZM91.6269 425.38C91.6269 424.5 91.3269 423.82 90.7269 423.34C90.1269 422.86 89.3135 422.62 88.2869 422.62C87.2602 422.62 86.4469 422.86 85.8469 423.34C85.2469 423.807 84.9469 424.487 84.9469 425.38C84.9469 426.207 85.2535 426.867 85.8669 427.36C86.4802 427.853 87.2869 428.1 88.2869 428.1C89.2869 428.1 90.0935 427.853 90.7069 427.36C91.3202 426.867 91.6269 426.207 91.6269 425.38ZM88.2869 429.18C87.1935 429.18 86.3002 429.427 85.6069 429.92C84.9135 430.413 84.5669 431.16 84.5669 432.16C84.5669 433.12 84.9002 433.873 85.5669 434.42C86.2335 434.967 87.1402 435.24 88.2869 435.24C89.4202 435.24 90.3202 434.967 90.9869 434.42C91.6535 433.86 91.9869 433.107 91.9869 432.16C91.9869 431.173 91.6402 430.433 90.9469 429.94C90.2669 429.433 89.3802 429.18 88.2869 429.18Z" fill="#F3742B"/>
<rect width="794" height="78" transform="translate(0 468)" fill="url(#paint6_linear_2593_33500)"/>
<path d="M33.16 500.02V501.18H27V506.4H32.2V507.56H27V514H25.6V500.02H33.16ZM43.0233 500.02V501.18H36.8633V506.4H42.0633V507.56H36.8633V514H35.4633V500.02H43.0233ZM49.4666 500.02C51.0132 500.02 52.3399 500.3 53.4466 500.86C54.5532 501.42 55.3999 502.227 55.9866 503.28C56.5732 504.333 56.8666 505.587 56.8666 507.04C56.8666 508.48 56.5732 509.727 55.9866 510.78C55.3999 511.82 54.5532 512.62 53.4466 513.18C52.3399 513.727 51.0132 514 49.4666 514H45.3266V500.02H49.4666ZM49.4666 512.84C51.4132 512.84 52.8932 512.333 53.9066 511.32C54.9332 510.293 55.4466 508.867 55.4466 507.04C55.4466 505.2 54.9332 503.767 53.9066 502.74C52.8932 501.7 51.4132 501.18 49.4666 501.18H46.7266V512.84H49.4666ZM58.5277 510.6V509.54L65.8077 499.74H67.4677V509.38H69.6077V510.6H67.4677V514H66.0877V510.6H58.5277ZM66.1477 501.28L60.1477 509.38H66.1477V501.28ZM78.2533 506.78C79.0399 506.927 79.7066 507.327 80.2533 507.98C80.7999 508.633 81.0733 509.393 81.0733 510.26C81.0733 510.967 80.8933 511.607 80.5333 512.18C80.1866 512.74 79.6733 513.187 78.9933 513.52C78.3133 513.84 77.4999 514 76.5533 514H71.7133V500.02H76.4133C77.8266 500.02 78.8999 500.347 79.6333 501C80.3799 501.653 80.7533 502.5 80.7533 503.54C80.7533 504.407 80.5199 505.113 80.0533 505.66C79.5866 506.193 78.9866 506.567 78.2533 506.78ZM73.1133 506.2H76.3733C77.3199 506.2 78.0466 505.98 78.5533 505.54C79.0733 505.087 79.3333 504.467 79.3333 503.68C79.3333 502.907 79.0733 502.3 78.5533 501.86C78.0466 501.42 77.2999 501.2 76.3133 501.2H73.1133V506.2ZM76.4533 512.82C77.4666 512.82 78.2533 512.58 78.8133 512.1C79.3866 511.62 79.6733 510.96 79.6733 510.12C79.6733 509.28 79.3733 508.613 78.7733 508.12C78.1866 507.613 77.3933 507.36 76.3933 507.36H73.1133V512.82H76.4533ZM86.1269 506.56C85.3002 506.293 84.6669 505.873 84.2269 505.3C83.8002 504.727 83.5869 504.033 83.5869 503.22C83.5869 502.5 83.7669 501.86 84.1269 501.3C84.5002 500.727 85.0402 500.28 85.7469 499.96C86.4535 499.627 87.3002 499.46 88.2869 499.46C89.2735 499.46 90.1202 499.627 90.8269 499.96C91.5335 500.28 92.0669 500.727 92.4269 501.3C92.8002 501.86 92.9869 502.5 92.9869 503.22C92.9869 504.02 92.7669 504.713 92.3269 505.3C91.9002 505.887 91.2735 506.307 90.4469 506.56C91.3535 506.787 92.0669 507.22 92.5869 507.86C93.1069 508.5 93.3669 509.28 93.3669 510.2C93.3669 511.053 93.1535 511.8 92.7269 512.44C92.3135 513.067 91.7202 513.553 90.9469 513.9C90.1869 514.247 89.3002 514.42 88.2869 514.42C87.2735 514.42 86.3802 514.247 85.6069 513.9C84.8469 513.553 84.2535 513.067 83.8269 512.44C83.4135 511.8 83.2069 511.053 83.2069 510.2C83.2069 509.28 83.4669 508.5 83.9869 507.86C84.5069 507.22 85.2202 506.787 86.1269 506.56ZM91.6269 503.38C91.6269 502.5 91.3269 501.82 90.7269 501.34C90.1269 500.86 89.3135 500.62 88.2869 500.62C87.2602 500.62 86.4469 500.86 85.8469 501.34C85.2469 501.807 84.9469 502.487 84.9469 503.38C84.9469 504.207 85.2535 504.867 85.8669 505.36C86.4802 505.853 87.2869 506.1 88.2869 506.1C89.2869 506.1 90.0935 505.853 90.7069 505.36C91.3202 504.867 91.6269 504.207 91.6269 503.38ZM88.2869 507.18C87.1935 507.18 86.3002 507.427 85.6069 507.92C84.9135 508.413 84.5669 509.16 84.5669 510.16C84.5669 511.12 84.9002 511.873 85.5669 512.42C86.2335 512.967 87.1402 513.24 88.2869 513.24C89.4202 513.24 90.3202 512.967 90.9869 512.42C91.6535 511.86 91.9869 511.107 91.9869 510.16C91.9869 509.173 91.6402 508.433 90.9469 507.94C90.2669 507.433 89.3802 507.18 88.2869 507.18Z" fill="#F3742B"/>
<path d="M0 546H794V624H8C3.58172 624 0 620.418 0 616V546Z" fill="url(#paint7_linear_2593_33500)"/>
<path d="M33.16 578.02V579.18H27V584.4H32.2V585.56H27V592H25.6V578.02H33.16ZM43.0233 578.02V579.18H36.8633V584.4H42.0633V585.56H36.8633V592H35.4633V578.02H43.0233ZM49.4666 578.02C51.0132 578.02 52.3399 578.3 53.4466 578.86C54.5532 579.42 55.3999 580.227 55.9866 581.28C56.5732 582.333 56.8666 583.587 56.8666 585.04C56.8666 586.48 56.5732 587.727 55.9866 588.78C55.3999 589.82 54.5532 590.62 53.4466 591.18C52.3399 591.727 51.0132 592 49.4666 592H45.3266V578.02H49.4666ZM49.4666 590.84C51.4132 590.84 52.8932 590.333 53.9066 589.32C54.9332 588.293 55.4466 586.867 55.4466 585.04C55.4466 583.2 54.9332 581.767 53.9066 580.74C52.8932 579.7 51.4132 579.18 49.4666 579.18H46.7266V590.84H49.4666ZM58.5277 588.6V587.54L65.8077 577.74H67.4677V587.38H69.6077V588.6H67.4677V592H66.0877V588.6H58.5277ZM66.1477 579.28L60.1477 587.38H66.1477V579.28ZM78.2533 584.78C79.0399 584.927 79.7066 585.327 80.2533 585.98C80.7999 586.633 81.0733 587.393 81.0733 588.26C81.0733 588.967 80.8933 589.607 80.5333 590.18C80.1866 590.74 79.6733 591.187 78.9933 591.52C78.3133 591.84 77.4999 592 76.5533 592H71.7133V578.02H76.4133C77.8266 578.02 78.8999 578.347 79.6333 579C80.3799 579.653 80.7533 580.5 80.7533 581.54C80.7533 582.407 80.5199 583.113 80.0533 583.66C79.5866 584.193 78.9866 584.567 78.2533 584.78ZM73.1133 584.2H76.3733C77.3199 584.2 78.0466 583.98 78.5533 583.54C79.0733 583.087 79.3333 582.467 79.3333 581.68C79.3333 580.907 79.0733 580.3 78.5533 579.86C78.0466 579.42 77.2999 579.2 76.3133 579.2H73.1133V584.2ZM76.4533 590.82C77.4666 590.82 78.2533 590.58 78.8133 590.1C79.3866 589.62 79.6733 588.96 79.6733 588.12C79.6733 587.28 79.3733 586.613 78.7733 586.12C78.1866 585.613 77.3933 585.36 76.3933 585.36H73.1133V590.82H76.4533ZM86.1269 584.56C85.3002 584.293 84.6669 583.873 84.2269 583.3C83.8002 582.727 83.5869 582.033 83.5869 581.22C83.5869 580.5 83.7669 579.86 84.1269 579.3C84.5002 578.727 85.0402 578.28 85.7469 577.96C86.4535 577.627 87.3002 577.46 88.2869 577.46C89.2735 577.46 90.1202 577.627 90.8269 577.96C91.5335 578.28 92.0669 578.727 92.4269 579.3C92.8002 579.86 92.9869 580.5 92.9869 581.22C92.9869 582.02 92.7669 582.713 92.3269 583.3C91.9002 583.887 91.2735 584.307 90.4469 584.56C91.3535 584.787 92.0669 585.22 92.5869 585.86C93.1069 586.5 93.3669 587.28 93.3669 588.2C93.3669 589.053 93.1535 589.8 92.7269 590.44C92.3135 591.067 91.7202 591.553 90.9469 591.9C90.1869 592.247 89.3002 592.42 88.2869 592.42C87.2735 592.42 86.3802 592.247 85.6069 591.9C84.8469 591.553 84.2535 591.067 83.8269 590.44C83.4135 589.8 83.2069 589.053 83.2069 588.2C83.2069 587.28 83.4669 586.5 83.9869 585.86C84.5069 585.22 85.2202 584.787 86.1269 584.56ZM91.6269 581.38C91.6269 580.5 91.3269 579.82 90.7269 579.34C90.1269 578.86 89.3135 578.62 88.2869 578.62C87.2602 578.62 86.4469 578.86 85.8469 579.34C85.2469 579.807 84.9469 580.487 84.9469 581.38C84.9469 582.207 85.2535 582.867 85.8669 583.36C86.4802 583.853 87.2869 584.1 88.2869 584.1C89.2869 584.1 90.0935 583.853 90.7069 583.36C91.3202 582.867 91.6269 582.207 91.6269 581.38ZM88.2869 585.18C87.1935 585.18 86.3002 585.427 85.6069 585.92C84.9135 586.413 84.5669 587.16 84.5669 588.16C84.5669 589.12 84.9002 589.873 85.5669 590.42C86.2335 590.967 87.1402 591.24 88.2869 591.24C89.4202 591.24 90.3202 590.967 90.9869 590.42C91.6535 589.86 91.9869 589.107 91.9869 588.16C91.9869 587.173 91.6402 586.433 90.9469 585.94C90.2669 585.433 89.3802 585.18 88.2869 585.18Z" fill="white"/>
<defs>
<linearGradient id="paint0_linear_2593_33500" x1="264.667" y1="39" x2="794" y2="39.0001" gradientUnits="userSpaceOnUse">
<stop stop-color="#1D1E20"/>
<stop offset="1" stop-color="#191A1C" stop-opacity="0"/>
</linearGradient>
<linearGradient id="paint1_linear_2593_33500" x1="264.667" y1="39" x2="794" y2="39.0001" gradientUnits="userSpaceOnUse">
<stop stop-color="#091D3D"/>
<stop offset="1" stop-color="#091D3D" stop-opacity="0"/>
</linearGradient>
<linearGradient id="paint2_linear_2593_33500" x1="264.667" y1="39" x2="794" y2="39.0001" gradientUnits="userSpaceOnUse">
<stop stop-color="#0E4AA3"/>
<stop offset="1" stop-color="#0E4AA3" stop-opacity="0"/>
</linearGradient>
<linearGradient id="paint3_linear_2593_33500" x1="264.667" y1="39" x2="794" y2="39.0001" gradientUnits="userSpaceOnUse">
<stop stop-color="#868686"/>
<stop offset="1" stop-color="#868686" stop-opacity="0"/>
</linearGradient>
<linearGradient id="paint4_linear_2593_33500" x1="264.667" y1="39" x2="794" y2="39.0001" gradientUnits="userSpaceOnUse">
<stop stop-color="#D0D0D0"/>
<stop offset="1" stop-color="#D0D0D0" stop-opacity="0"/>
</linearGradient>
<linearGradient id="paint5_linear_2593_33500" x1="264.667" y1="39" x2="794" y2="39.0001" gradientUnits="userSpaceOnUse">
<stop stop-color="#FFFDFD"/>
<stop offset="1" stop-color="#FFFDFD" stop-opacity="0"/>
</linearGradient>
<linearGradient id="paint6_linear_2593_33500" x1="264.667" y1="39" x2="794" y2="39.0001" gradientUnits="userSpaceOnUse">
<stop stop-color="#FFD4B8"/>
<stop offset="1" stop-color="#FFD4B8" stop-opacity="0"/>
</linearGradient>
<linearGradient id="paint7_linear_2593_33500" x1="264.667" y1="585" x2="794" y2="585" gradientUnits="userSpaceOnUse">
<stop stop-color="#F3742B"/>
<stop offset="1" stop-color="#F3742B" stop-opacity="0"/>
</linearGradient>
</defs>
</svg>
