<svg width="792" height="356" viewBox="0 0 792 356" fill="none" xmlns="http://www.w3.org/2000/svg">
<rect width="792" height="356" rx="8" fill="#D8F520" fill-opacity="0.19"/>
<rect width="302" height="56" transform="translate(82 48)" fill="#F3742B"/>
<path d="M155.448 74.32C155.245 73.9467 154.952 73.664 154.568 73.472C154.195 73.2693 153.752 73.168 153.24 73.168C152.355 73.168 151.645 73.4613 151.112 74.048C150.579 74.624 150.312 75.3973 150.312 76.368C150.312 77.4027 150.589 78.2133 151.144 78.8C151.709 79.376 152.483 79.664 153.464 79.664C154.136 79.664 154.701 79.4933 155.16 79.152C155.629 78.8107 155.971 78.32 156.184 77.68H152.712V75.664H158.664V78.208C158.461 78.8907 158.115 79.5253 157.624 80.112C157.144 80.6987 156.531 81.1733 155.784 81.536C155.037 81.8987 154.195 82.08 153.256 82.08C152.147 82.08 151.155 81.84 150.28 81.36C149.416 80.8693 148.739 80.192 148.248 79.328C147.768 78.464 147.528 77.4773 147.528 76.368C147.528 75.2587 147.768 74.272 148.248 73.408C148.739 72.5333 149.416 71.856 150.28 71.376C151.144 70.8853 152.131 70.64 153.24 70.64C154.584 70.64 155.715 70.9653 156.632 71.616C157.56 72.2667 158.173 73.168 158.472 74.32H155.448ZM162.916 72.96V75.232H166.58V77.344H162.916V79.808H167.06V82H160.18V70.768H167.06V72.96H162.916ZM176.916 70.768V72.96H173.94V82H171.204V72.96H168.228V70.768H176.916ZM188.992 70.768V72.96H184.416V75.328H187.84V77.456H184.416V82H181.68V70.768H188.992ZM196.158 82L193.822 77.76H193.166V82H190.43V70.768H195.022C195.907 70.768 196.659 70.9227 197.278 71.232C197.907 71.5413 198.376 71.968 198.686 72.512C198.995 73.0453 199.15 73.6427 199.15 74.304C199.15 75.0507 198.936 75.7173 198.51 76.304C198.094 76.8907 197.475 77.3067 196.654 77.552L199.246 82H196.158ZM193.166 75.824H194.862C195.363 75.824 195.736 75.7013 195.982 75.456C196.238 75.2107 196.366 74.864 196.366 74.416C196.366 73.9893 196.238 73.6533 195.982 73.408C195.736 73.1627 195.363 73.04 194.862 73.04H193.166V75.824ZM203.603 72.96V75.232H207.267V77.344H203.603V79.808H207.747V82H200.867V70.768H207.747V72.96H203.603ZM212.259 72.96V75.232H215.923V77.344H212.259V79.808H216.403V82H209.523V70.768H216.403V72.96H212.259ZM224.306 72.96V75.232H227.97V77.344H224.306V79.808H228.45V82H221.57V70.768H228.45V72.96H224.306ZM234.29 82.112C233.469 82.112 232.733 81.9787 232.082 81.712C231.432 81.4453 230.909 81.0507 230.514 80.528C230.13 80.0053 229.928 79.376 229.906 78.64H232.818C232.861 79.056 233.005 79.376 233.25 79.6C233.496 79.8133 233.816 79.92 234.21 79.92C234.616 79.92 234.936 79.8293 235.17 79.648C235.405 79.456 235.522 79.1947 235.522 78.864C235.522 78.5867 235.426 78.3573 235.234 78.176C235.053 77.9947 234.824 77.8453 234.546 77.728C234.28 77.6107 233.896 77.4773 233.394 77.328C232.669 77.104 232.077 76.88 231.618 76.656C231.16 76.432 230.765 76.1013 230.434 75.664C230.104 75.2267 229.938 74.656 229.938 73.952C229.938 72.9067 230.317 72.0907 231.074 71.504C231.832 70.9067 232.818 70.608 234.034 70.608C235.272 70.608 236.269 70.9067 237.026 71.504C237.784 72.0907 238.189 72.912 238.242 73.968H235.282C235.261 73.6053 235.128 73.3227 234.882 73.12C234.637 72.9067 234.322 72.8 233.938 72.8C233.608 72.8 233.341 72.8907 233.138 73.072C232.936 73.2427 232.834 73.4933 232.834 73.824C232.834 74.1867 233.005 74.4693 233.346 74.672C233.688 74.8747 234.221 75.0933 234.946 75.328C235.672 75.5733 236.258 75.808 236.706 76.032C237.165 76.256 237.56 76.5813 237.89 77.008C238.221 77.4347 238.386 77.984 238.386 78.656C238.386 79.296 238.221 79.8773 237.89 80.4C237.57 80.9227 237.101 81.3387 236.482 81.648C235.864 81.9573 235.133 82.112 234.29 82.112ZM248.15 70.768V72.96H245.174V82H242.438V72.96H239.462V70.768H248.15ZM252.259 70.768V82H249.523V70.768H252.259ZM266.962 70.768V82H264.226V75.264L261.714 82H259.506L256.978 75.248V82H254.242V70.768H257.474L260.626 78.544L263.746 70.768H266.962ZM275.922 80.016H271.73L271.058 82H268.194L272.258 70.768H275.426L279.49 82H276.594L275.922 80.016ZM275.218 77.904L273.826 73.792L272.45 77.904H275.218ZM288.806 70.768V72.96H285.83V82H283.094V72.96H280.118V70.768H288.806ZM292.916 70.768V82H290.18V70.768H292.916ZM300.21 82.112C299.154 82.112 298.184 81.8667 297.298 81.376C296.424 80.8853 295.725 80.2027 295.202 79.328C294.69 78.4427 294.434 77.4507 294.434 76.352C294.434 75.2533 294.69 74.2667 295.202 73.392C295.725 72.5173 296.424 71.8347 297.298 71.344C298.184 70.8533 299.154 70.608 300.21 70.608C301.266 70.608 302.232 70.8533 303.106 71.344C303.992 71.8347 304.685 72.5173 305.186 73.392C305.698 74.2667 305.954 75.2533 305.954 76.352C305.954 77.4507 305.698 78.4427 305.186 79.328C304.674 80.2027 303.981 80.8853 303.106 81.376C302.232 81.8667 301.266 82.112 300.21 82.112ZM300.21 79.616C301.106 79.616 301.821 79.3173 302.354 78.72C302.898 78.1227 303.17 77.3333 303.17 76.352C303.17 75.36 302.898 74.5707 302.354 73.984C301.821 73.3867 301.106 73.088 300.21 73.088C299.304 73.088 298.578 73.3813 298.034 73.968C297.501 74.5547 297.234 75.3493 297.234 76.352C297.234 77.344 297.501 78.1387 298.034 78.736C298.578 79.3227 299.304 79.616 300.21 79.616ZM317.524 82H314.788L310.212 75.072V82H307.476V70.768H310.212L314.788 77.728V70.768H317.524V82Z" fill="#FFFDFD"/>
<rect width="302" height="56" transform="translate(82 116)" fill="#EE6719"/>
<path d="M155.448 142.32C155.245 141.947 154.952 141.664 154.568 141.472C154.195 141.269 153.752 141.168 153.24 141.168C152.355 141.168 151.645 141.461 151.112 142.048C150.579 142.624 150.312 143.397 150.312 144.368C150.312 145.403 150.589 146.213 151.144 146.8C151.709 147.376 152.483 147.664 153.464 147.664C154.136 147.664 154.701 147.493 155.16 147.152C155.629 146.811 155.971 146.32 156.184 145.68H152.712V143.664H158.664V146.208C158.461 146.891 158.115 147.525 157.624 148.112C157.144 148.699 156.531 149.173 155.784 149.536C155.037 149.899 154.195 150.08 153.256 150.08C152.147 150.08 151.155 149.84 150.28 149.36C149.416 148.869 148.739 148.192 148.248 147.328C147.768 146.464 147.528 145.477 147.528 144.368C147.528 143.259 147.768 142.272 148.248 141.408C148.739 140.533 149.416 139.856 150.28 139.376C151.144 138.885 152.131 138.64 153.24 138.64C154.584 138.64 155.715 138.965 156.632 139.616C157.56 140.267 158.173 141.168 158.472 142.32H155.448ZM162.916 140.96V143.232H166.58V145.344H162.916V147.808H167.06V150H160.18V138.768H167.06V140.96H162.916ZM176.916 138.768V140.96H173.94V150H171.204V140.96H168.228V138.768H176.916ZM188.992 138.768V140.96H184.416V143.328H187.84V145.456H184.416V150H181.68V138.768H188.992ZM196.158 150L193.822 145.76H193.166V150H190.43V138.768H195.022C195.907 138.768 196.659 138.923 197.278 139.232C197.907 139.541 198.376 139.968 198.686 140.512C198.995 141.045 199.15 141.643 199.15 142.304C199.15 143.051 198.936 143.717 198.51 144.304C198.094 144.891 197.475 145.307 196.654 145.552L199.246 150H196.158ZM193.166 143.824H194.862C195.363 143.824 195.736 143.701 195.982 143.456C196.238 143.211 196.366 142.864 196.366 142.416C196.366 141.989 196.238 141.653 195.982 141.408C195.736 141.163 195.363 141.04 194.862 141.04H193.166V143.824ZM203.603 140.96V143.232H207.267V145.344H203.603V147.808H207.747V150H200.867V138.768H207.747V140.96H203.603ZM212.259 140.96V143.232H215.923V145.344H212.259V147.808H216.403V150H209.523V138.768H216.403V140.96H212.259ZM224.306 140.96V143.232H227.97V145.344H224.306V147.808H228.45V150H221.57V138.768H228.45V140.96H224.306ZM234.29 150.112C233.469 150.112 232.733 149.979 232.082 149.712C231.432 149.445 230.909 149.051 230.514 148.528C230.13 148.005 229.928 147.376 229.906 146.64H232.818C232.861 147.056 233.005 147.376 233.25 147.6C233.496 147.813 233.816 147.92 234.21 147.92C234.616 147.92 234.936 147.829 235.17 147.648C235.405 147.456 235.522 147.195 235.522 146.864C235.522 146.587 235.426 146.357 235.234 146.176C235.053 145.995 234.824 145.845 234.546 145.728C234.28 145.611 233.896 145.477 233.394 145.328C232.669 145.104 232.077 144.88 231.618 144.656C231.16 144.432 230.765 144.101 230.434 143.664C230.104 143.227 229.938 142.656 229.938 141.952C229.938 140.907 230.317 140.091 231.074 139.504C231.832 138.907 232.818 138.608 234.034 138.608C235.272 138.608 236.269 138.907 237.026 139.504C237.784 140.091 238.189 140.912 238.242 141.968H235.282C235.261 141.605 235.128 141.323 234.882 141.12C234.637 140.907 234.322 140.8 233.938 140.8C233.608 140.8 233.341 140.891 233.138 141.072C232.936 141.243 232.834 141.493 232.834 141.824C232.834 142.187 233.005 142.469 233.346 142.672C233.688 142.875 234.221 143.093 234.946 143.328C235.672 143.573 236.258 143.808 236.706 144.032C237.165 144.256 237.56 144.581 237.89 145.008C238.221 145.435 238.386 145.984 238.386 146.656C238.386 147.296 238.221 147.877 237.89 148.4C237.57 148.923 237.101 149.339 236.482 149.648C235.864 149.957 235.133 150.112 234.29 150.112ZM248.15 138.768V140.96H245.174V150H242.438V140.96H239.462V138.768H248.15ZM252.259 138.768V150H249.523V138.768H252.259ZM266.962 138.768V150H264.226V143.264L261.714 150H259.506L256.978 143.248V150H254.242V138.768H257.474L260.626 146.544L263.746 138.768H266.962ZM275.922 148.016H271.73L271.058 150H268.194L272.258 138.768H275.426L279.49 150H276.594L275.922 148.016ZM275.218 145.904L273.826 141.792L272.45 145.904H275.218ZM288.806 138.768V140.96H285.83V150H283.094V140.96H280.118V138.768H288.806ZM292.916 138.768V150H290.18V138.768H292.916ZM300.21 150.112C299.154 150.112 298.184 149.867 297.298 149.376C296.424 148.885 295.725 148.203 295.202 147.328C294.69 146.443 294.434 145.451 294.434 144.352C294.434 143.253 294.69 142.267 295.202 141.392C295.725 140.517 296.424 139.835 297.298 139.344C298.184 138.853 299.154 138.608 300.21 138.608C301.266 138.608 302.232 138.853 303.106 139.344C303.992 139.835 304.685 140.517 305.186 141.392C305.698 142.267 305.954 143.253 305.954 144.352C305.954 145.451 305.698 146.443 305.186 147.328C304.674 148.203 303.981 148.885 303.106 149.376C302.232 149.867 301.266 150.112 300.21 150.112ZM300.21 147.616C301.106 147.616 301.821 147.317 302.354 146.72C302.898 146.123 303.17 145.333 303.17 144.352C303.17 143.36 302.898 142.571 302.354 141.984C301.821 141.387 301.106 141.088 300.21 141.088C299.304 141.088 298.578 141.381 298.034 141.968C297.501 142.555 297.234 143.349 297.234 144.352C297.234 145.344 297.501 146.139 298.034 146.736C298.578 147.323 299.304 147.616 300.21 147.616ZM317.524 150H314.788L310.212 143.072V150H307.476V138.768H310.212L314.788 145.728V138.768H317.524V150Z" fill="#FFFDFD"/>
<rect x="82.5" y="184.5" width="301" height="55" fill="#F3742B"/>
<rect x="82.5" y="184.5" width="301" height="55" stroke="#EE6719"/>
<path d="M155.448 210.32C155.245 209.947 154.952 209.664 154.568 209.472C154.195 209.269 153.752 209.168 153.24 209.168C152.355 209.168 151.645 209.461 151.112 210.048C150.579 210.624 150.312 211.397 150.312 212.368C150.312 213.403 150.589 214.213 151.144 214.8C151.709 215.376 152.483 215.664 153.464 215.664C154.136 215.664 154.701 215.493 155.16 215.152C155.629 214.811 155.971 214.32 156.184 213.68H152.712V211.664H158.664V214.208C158.461 214.891 158.115 215.525 157.624 216.112C157.144 216.699 156.531 217.173 155.784 217.536C155.037 217.899 154.195 218.08 153.256 218.08C152.147 218.08 151.155 217.84 150.28 217.36C149.416 216.869 148.739 216.192 148.248 215.328C147.768 214.464 147.528 213.477 147.528 212.368C147.528 211.259 147.768 210.272 148.248 209.408C148.739 208.533 149.416 207.856 150.28 207.376C151.144 206.885 152.131 206.64 153.24 206.64C154.584 206.64 155.715 206.965 156.632 207.616C157.56 208.267 158.173 209.168 158.472 210.32H155.448ZM162.916 208.96V211.232H166.58V213.344H162.916V215.808H167.06V218H160.18V206.768H167.06V208.96H162.916ZM176.916 206.768V208.96H173.94V218H171.204V208.96H168.228V206.768H176.916ZM188.992 206.768V208.96H184.416V211.328H187.84V213.456H184.416V218H181.68V206.768H188.992ZM196.158 218L193.822 213.76H193.166V218H190.43V206.768H195.022C195.907 206.768 196.659 206.923 197.278 207.232C197.907 207.541 198.376 207.968 198.686 208.512C198.995 209.045 199.15 209.643 199.15 210.304C199.15 211.051 198.936 211.717 198.51 212.304C198.094 212.891 197.475 213.307 196.654 213.552L199.246 218H196.158ZM193.166 211.824H194.862C195.363 211.824 195.736 211.701 195.982 211.456C196.238 211.211 196.366 210.864 196.366 210.416C196.366 209.989 196.238 209.653 195.982 209.408C195.736 209.163 195.363 209.04 194.862 209.04H193.166V211.824ZM203.603 208.96V211.232H207.267V213.344H203.603V215.808H207.747V218H200.867V206.768H207.747V208.96H203.603ZM212.259 208.96V211.232H215.923V213.344H212.259V215.808H216.403V218H209.523V206.768H216.403V208.96H212.259ZM224.306 208.96V211.232H227.97V213.344H224.306V215.808H228.45V218H221.57V206.768H228.45V208.96H224.306ZM234.29 218.112C233.469 218.112 232.733 217.979 232.082 217.712C231.432 217.445 230.909 217.051 230.514 216.528C230.13 216.005 229.928 215.376 229.906 214.64H232.818C232.861 215.056 233.005 215.376 233.25 215.6C233.496 215.813 233.816 215.92 234.21 215.92C234.616 215.92 234.936 215.829 235.17 215.648C235.405 215.456 235.522 215.195 235.522 214.864C235.522 214.587 235.426 214.357 235.234 214.176C235.053 213.995 234.824 213.845 234.546 213.728C234.28 213.611 233.896 213.477 233.394 213.328C232.669 213.104 232.077 212.88 231.618 212.656C231.16 212.432 230.765 212.101 230.434 211.664C230.104 211.227 229.938 210.656 229.938 209.952C229.938 208.907 230.317 208.091 231.074 207.504C231.832 206.907 232.818 206.608 234.034 206.608C235.272 206.608 236.269 206.907 237.026 207.504C237.784 208.091 238.189 208.912 238.242 209.968H235.282C235.261 209.605 235.128 209.323 234.882 209.12C234.637 208.907 234.322 208.8 233.938 208.8C233.608 208.8 233.341 208.891 233.138 209.072C232.936 209.243 232.834 209.493 232.834 209.824C232.834 210.187 233.005 210.469 233.346 210.672C233.688 210.875 234.221 211.093 234.946 211.328C235.672 211.573 236.258 211.808 236.706 212.032C237.165 212.256 237.56 212.581 237.89 213.008C238.221 213.435 238.386 213.984 238.386 214.656C238.386 215.296 238.221 215.877 237.89 216.4C237.57 216.923 237.101 217.339 236.482 217.648C235.864 217.957 235.133 218.112 234.29 218.112ZM248.15 206.768V208.96H245.174V218H242.438V208.96H239.462V206.768H248.15ZM252.259 206.768V218H249.523V206.768H252.259ZM266.962 206.768V218H264.226V211.264L261.714 218H259.506L256.978 211.248V218H254.242V206.768H257.474L260.626 214.544L263.746 206.768H266.962ZM275.922 216.016H271.73L271.058 218H268.194L272.258 206.768H275.426L279.49 218H276.594L275.922 216.016ZM275.218 213.904L273.826 209.792L272.45 213.904H275.218ZM288.806 206.768V208.96H285.83V218H283.094V208.96H280.118V206.768H288.806ZM292.916 206.768V218H290.18V206.768H292.916ZM300.21 218.112C299.154 218.112 298.184 217.867 297.298 217.376C296.424 216.885 295.725 216.203 295.202 215.328C294.69 214.443 294.434 213.451 294.434 212.352C294.434 211.253 294.69 210.267 295.202 209.392C295.725 208.517 296.424 207.835 297.298 207.344C298.184 206.853 299.154 206.608 300.21 206.608C301.266 206.608 302.232 206.853 303.106 207.344C303.992 207.835 304.685 208.517 305.186 209.392C305.698 210.267 305.954 211.253 305.954 212.352C305.954 213.451 305.698 214.443 305.186 215.328C304.674 216.203 303.981 216.885 303.106 217.376C302.232 217.867 301.266 218.112 300.21 218.112ZM300.21 215.616C301.106 215.616 301.821 215.317 302.354 214.72C302.898 214.123 303.17 213.333 303.17 212.352C303.17 211.36 302.898 210.571 302.354 209.984C301.821 209.387 301.106 209.088 300.21 209.088C299.304 209.088 298.578 209.381 298.034 209.968C297.501 210.555 297.234 211.349 297.234 212.352C297.234 213.344 297.501 214.139 298.034 214.736C298.578 215.323 299.304 215.616 300.21 215.616ZM317.524 218H314.788L310.212 211.072V218H307.476V206.768H310.212L314.788 213.728V206.768H317.524V218Z" fill="#FFFDFD"/>
<rect width="302" height="56" transform="translate(82 252)" fill="#D4B6A5"/>
<path d="M155.448 278.32C155.245 277.947 154.952 277.664 154.568 277.472C154.195 277.269 153.752 277.168 153.24 277.168C152.355 277.168 151.645 277.461 151.112 278.048C150.579 278.624 150.312 279.397 150.312 280.368C150.312 281.403 150.589 282.213 151.144 282.8C151.709 283.376 152.483 283.664 153.464 283.664C154.136 283.664 154.701 283.493 155.16 283.152C155.629 282.811 155.971 282.32 156.184 281.68H152.712V279.664H158.664V282.208C158.461 282.891 158.115 283.525 157.624 284.112C157.144 284.699 156.531 285.173 155.784 285.536C155.037 285.899 154.195 286.08 153.256 286.08C152.147 286.08 151.155 285.84 150.28 285.36C149.416 284.869 148.739 284.192 148.248 283.328C147.768 282.464 147.528 281.477 147.528 280.368C147.528 279.259 147.768 278.272 148.248 277.408C148.739 276.533 149.416 275.856 150.28 275.376C151.144 274.885 152.131 274.64 153.24 274.64C154.584 274.64 155.715 274.965 156.632 275.616C157.56 276.267 158.173 277.168 158.472 278.32H155.448ZM162.916 276.96V279.232H166.58V281.344H162.916V283.808H167.06V286H160.18V274.768H167.06V276.96H162.916ZM176.916 274.768V276.96H173.94V286H171.204V276.96H168.228V274.768H176.916ZM188.992 274.768V276.96H184.416V279.328H187.84V281.456H184.416V286H181.68V274.768H188.992ZM196.158 286L193.822 281.76H193.166V286H190.43V274.768H195.022C195.907 274.768 196.659 274.923 197.278 275.232C197.907 275.541 198.376 275.968 198.686 276.512C198.995 277.045 199.15 277.643 199.15 278.304C199.15 279.051 198.936 279.717 198.51 280.304C198.094 280.891 197.475 281.307 196.654 281.552L199.246 286H196.158ZM193.166 279.824H194.862C195.363 279.824 195.736 279.701 195.982 279.456C196.238 279.211 196.366 278.864 196.366 278.416C196.366 277.989 196.238 277.653 195.982 277.408C195.736 277.163 195.363 277.04 194.862 277.04H193.166V279.824ZM203.603 276.96V279.232H207.267V281.344H203.603V283.808H207.747V286H200.867V274.768H207.747V276.96H203.603ZM212.259 276.96V279.232H215.923V281.344H212.259V283.808H216.403V286H209.523V274.768H216.403V276.96H212.259ZM224.306 276.96V279.232H227.97V281.344H224.306V283.808H228.45V286H221.57V274.768H228.45V276.96H224.306ZM234.29 286.112C233.469 286.112 232.733 285.979 232.082 285.712C231.432 285.445 230.909 285.051 230.514 284.528C230.13 284.005 229.928 283.376 229.906 282.64H232.818C232.861 283.056 233.005 283.376 233.25 283.6C233.496 283.813 233.816 283.92 234.21 283.92C234.616 283.92 234.936 283.829 235.17 283.648C235.405 283.456 235.522 283.195 235.522 282.864C235.522 282.587 235.426 282.357 235.234 282.176C235.053 281.995 234.824 281.845 234.546 281.728C234.28 281.611 233.896 281.477 233.394 281.328C232.669 281.104 232.077 280.88 231.618 280.656C231.16 280.432 230.765 280.101 230.434 279.664C230.104 279.227 229.938 278.656 229.938 277.952C229.938 276.907 230.317 276.091 231.074 275.504C231.832 274.907 232.818 274.608 234.034 274.608C235.272 274.608 236.269 274.907 237.026 275.504C237.784 276.091 238.189 276.912 238.242 277.968H235.282C235.261 277.605 235.128 277.323 234.882 277.12C234.637 276.907 234.322 276.8 233.938 276.8C233.608 276.8 233.341 276.891 233.138 277.072C232.936 277.243 232.834 277.493 232.834 277.824C232.834 278.187 233.005 278.469 233.346 278.672C233.688 278.875 234.221 279.093 234.946 279.328C235.672 279.573 236.258 279.808 236.706 280.032C237.165 280.256 237.56 280.581 237.89 281.008C238.221 281.435 238.386 281.984 238.386 282.656C238.386 283.296 238.221 283.877 237.89 284.4C237.57 284.923 237.101 285.339 236.482 285.648C235.864 285.957 235.133 286.112 234.29 286.112ZM248.15 274.768V276.96H245.174V286H242.438V276.96H239.462V274.768H248.15ZM252.259 274.768V286H249.523V274.768H252.259ZM266.962 274.768V286H264.226V279.264L261.714 286H259.506L256.978 279.248V286H254.242V274.768H257.474L260.626 282.544L263.746 274.768H266.962ZM275.922 284.016H271.73L271.058 286H268.194L272.258 274.768H275.426L279.49 286H276.594L275.922 284.016ZM275.218 281.904L273.826 277.792L272.45 281.904H275.218ZM288.806 274.768V276.96H285.83V286H283.094V276.96H280.118V274.768H288.806ZM292.916 274.768V286H290.18V274.768H292.916ZM300.21 286.112C299.154 286.112 298.184 285.867 297.298 285.376C296.424 284.885 295.725 284.203 295.202 283.328C294.69 282.443 294.434 281.451 294.434 280.352C294.434 279.253 294.69 278.267 295.202 277.392C295.725 276.517 296.424 275.835 297.298 275.344C298.184 274.853 299.154 274.608 300.21 274.608C301.266 274.608 302.232 274.853 303.106 275.344C303.992 275.835 304.685 276.517 305.186 277.392C305.698 278.267 305.954 279.253 305.954 280.352C305.954 281.451 305.698 282.443 305.186 283.328C304.674 284.203 303.981 284.885 303.106 285.376C302.232 285.867 301.266 286.112 300.21 286.112ZM300.21 283.616C301.106 283.616 301.821 283.317 302.354 282.72C302.898 282.123 303.17 281.333 303.17 280.352C303.17 279.36 302.898 278.571 302.354 277.984C301.821 277.387 301.106 277.088 300.21 277.088C299.304 277.088 298.578 277.381 298.034 277.968C297.501 278.555 297.234 279.349 297.234 280.352C297.234 281.344 297.501 282.139 298.034 282.736C298.578 283.323 299.304 283.616 300.21 283.616ZM317.524 286H314.788L310.212 279.072V286H307.476V274.768H310.212L314.788 281.728V274.768H317.524V286Z" fill="#E6E6E5"/>
<rect width="302" height="56" transform="translate(408 48)" fill="#FFD4B8"/>
<path d="M511.14 80.347L507.753 79.9603C507.355 79.9136 506.952 79.9577 506.573 80.0893C506.194 80.2209 505.85 80.4367 505.567 80.7203L503.113 83.1737C499.328 81.2486 496.252 78.1721 494.327 74.387L496.793 71.9203C497.367 71.347 497.647 70.547 497.553 69.7337L497.167 66.3737C497.091 65.7232 496.779 65.1233 496.29 64.6881C495.8 64.253 495.168 64.0129 494.513 64.0137H492.207C490.7 64.0137 489.447 65.267 489.54 66.7737C490.247 78.1603 499.353 87.2537 510.727 87.9603C512.233 88.0537 513.487 86.8003 513.487 85.2937V82.987C513.5 81.6403 512.487 80.507 511.14 80.347Z" fill="#F3742B"/>
<path d="M522.428 73.216C522.492 72.224 522.871 71.4507 523.564 70.896C524.268 70.3413 525.164 70.064 526.252 70.064C526.999 70.064 527.644 70.1973 528.188 70.464C528.732 70.7307 529.143 71.0933 529.42 71.552C529.697 72.0107 529.836 72.528 529.836 73.104C529.836 73.7653 529.66 74.3307 529.308 74.8C528.956 75.2693 528.535 75.584 528.044 75.744V75.808C528.673 76 529.164 76.352 529.516 76.864C529.868 77.3653 530.044 78.0107 530.044 78.8C530.044 79.4293 529.9 79.9893 529.612 80.48C529.324 80.9707 528.897 81.36 528.332 81.648C527.767 81.9253 527.089 82.064 526.3 82.064C525.148 82.064 524.199 81.7707 523.452 81.184C522.716 80.5867 522.321 79.7333 522.268 78.624H524.028C524.071 79.1893 524.289 79.6533 524.684 80.016C525.079 80.368 525.612 80.544 526.284 80.544C526.935 80.544 527.436 80.368 527.788 80.016C528.14 79.6533 528.316 79.1893 528.316 78.624C528.316 77.8773 528.076 77.3493 527.596 77.04C527.127 76.72 526.401 76.56 525.42 76.56H525.004V75.056H525.436C526.3 75.0453 526.956 74.9013 527.404 74.624C527.863 74.3467 528.092 73.9093 528.092 73.312C528.092 72.8 527.927 72.3947 527.596 72.096C527.265 71.7867 526.796 71.632 526.188 71.632C525.591 71.632 525.127 71.7867 524.796 72.096C524.465 72.3947 524.268 72.768 524.204 73.216H522.428ZM531.72 72V70.336H535.048V82H533.208V72H531.72ZM538.562 79.52C539.586 78.6347 540.391 77.9093 540.978 77.344C541.575 76.768 542.071 76.1707 542.466 75.552C542.86 74.9333 543.058 74.3147 543.058 73.696C543.058 73.056 542.903 72.5547 542.594 72.192C542.295 71.8293 541.82 71.648 541.17 71.648C540.54 71.648 540.05 71.8507 539.698 72.256C539.356 72.6507 539.175 73.184 539.154 73.856H537.394C537.426 72.64 537.788 71.712 538.482 71.072C539.186 70.4213 540.076 70.096 541.154 70.096C542.316 70.096 543.223 70.416 543.874 71.056C544.535 71.696 544.866 72.5493 544.866 73.616C544.866 74.384 544.668 75.1253 544.274 75.84C543.89 76.544 543.426 77.1787 542.882 77.744C542.348 78.2987 541.666 78.944 540.834 79.68L540.114 80.32H545.186V81.84H537.41V80.512L538.562 79.52ZM553.796 75.44V76.976H547.22V75.44H553.796ZM558.116 75.904C557.006 75.3493 556.452 74.4747 556.452 73.28C556.452 72.704 556.596 72.176 556.884 71.696C557.172 71.216 557.604 70.8373 558.18 70.56C558.756 70.272 559.46 70.128 560.292 70.128C561.113 70.128 561.812 70.272 562.388 70.56C562.974 70.8373 563.411 71.216 563.7 71.696C563.988 72.176 564.132 72.704 564.132 73.28C564.132 73.8773 563.977 74.4053 563.668 74.864C563.369 75.312 562.969 75.6587 562.468 75.904C563.076 76.128 563.556 76.496 563.908 77.008C564.26 77.5093 564.436 78.1013 564.436 78.784C564.436 79.4773 564.26 80.0907 563.908 80.624C563.556 81.1573 563.065 81.568 562.436 81.856C561.806 82.144 561.092 82.288 560.292 82.288C559.492 82.288 558.777 82.144 558.148 81.856C557.529 81.568 557.044 81.1573 556.692 80.624C556.34 80.0907 556.164 79.4773 556.164 78.784C556.164 78.0907 556.34 77.4933 556.692 76.992C557.044 76.4907 557.518 76.128 558.116 75.904ZM562.388 73.504C562.388 72.9067 562.201 72.448 561.828 72.128C561.454 71.808 560.942 71.648 560.292 71.648C559.652 71.648 559.145 71.808 558.772 72.128C558.398 72.448 558.212 72.912 558.212 73.52C558.212 74.0533 558.404 74.4907 558.788 74.832C559.182 75.1627 559.684 75.328 560.292 75.328C560.9 75.328 561.401 75.1573 561.796 74.816C562.19 74.4747 562.388 74.0373 562.388 73.504ZM560.292 76.704C559.588 76.704 559.012 76.88 558.564 77.232C558.126 77.5733 557.908 78.0693 557.908 78.72C557.908 79.328 558.121 79.824 558.548 80.208C558.974 80.5813 559.556 80.768 560.292 80.768C561.017 80.768 561.588 80.576 562.004 80.192C562.43 79.808 562.644 79.3173 562.644 78.72C562.644 78.08 562.425 77.584 561.988 77.232C561.561 76.88 560.996 76.704 560.292 76.704ZM573.743 71.744L569.295 82H567.455L571.951 71.936H566.031V70.384H573.743V71.744ZM575.08 79.568V78.192L580.456 70.48H582.664V77.984H584.152V79.568H582.664V82H580.872V79.568H575.08ZM580.952 72.336L577.176 77.984H580.952V72.336ZM592.671 75.44V76.976H586.095V75.44H592.671ZM596.031 79.52C597.055 78.6347 597.86 77.9093 598.447 77.344C599.044 76.768 599.54 76.1707 599.935 75.552C600.329 74.9333 600.527 74.3147 600.527 73.696C600.527 73.056 600.372 72.5547 600.063 72.192C599.764 71.8293 599.289 71.648 598.639 71.648C598.009 71.648 597.519 71.8507 597.167 72.256C596.825 72.6507 596.644 73.184 596.623 73.856H594.863C594.895 72.64 595.257 71.712 595.951 71.072C596.655 70.4213 597.545 70.096 598.623 70.096C599.785 70.096 600.692 70.416 601.343 71.056C602.004 71.696 602.335 72.5493 602.335 73.616C602.335 74.384 602.137 75.1253 601.743 75.84C601.359 76.544 600.895 77.1787 600.351 77.744C599.817 78.2987 599.135 78.944 598.303 79.68L597.583 80.32H602.655V81.84H594.879V80.512L596.031 79.52ZM605.265 79.52C606.289 78.6347 607.094 77.9093 607.681 77.344C608.278 76.768 608.774 76.1707 609.169 75.552C609.564 74.9333 609.761 74.3147 609.761 73.696C609.761 73.056 609.606 72.5547 609.297 72.192C608.998 71.8293 608.524 71.648 607.873 71.648C607.244 71.648 606.753 71.8507 606.401 72.256C606.06 72.6507 605.878 73.184 605.857 73.856H604.097C604.129 72.64 604.492 71.712 605.185 71.072C605.889 70.4213 606.78 70.096 607.857 70.096C609.02 70.096 609.926 70.416 610.577 71.056C611.238 71.696 611.569 72.5493 611.569 73.616C611.569 74.384 611.372 75.1253 610.977 75.84C610.593 76.544 610.129 77.1787 609.585 77.744C609.052 78.2987 608.369 78.944 607.537 79.68L606.817 80.32H611.889V81.84H604.113V80.512L605.265 79.52ZM614.499 79.52C615.523 78.6347 616.329 77.9093 616.915 77.344C617.513 76.768 618.009 76.1707 618.403 75.552C618.798 74.9333 618.995 74.3147 618.995 73.696C618.995 73.056 618.841 72.5547 618.531 72.192C618.233 71.8293 617.758 71.648 617.107 71.648C616.478 71.648 615.987 71.8507 615.635 72.256C615.294 72.6507 615.113 73.184 615.091 73.856H613.331C613.363 72.64 613.726 71.712 614.419 71.072C615.123 70.4213 616.014 70.096 617.091 70.096C618.254 70.096 619.161 70.416 619.811 71.056C620.473 71.696 620.803 72.5493 620.803 73.616C620.803 74.384 620.606 75.1253 620.211 75.84C619.827 76.544 619.363 77.1787 618.819 77.744C618.286 78.2987 617.603 78.944 616.771 79.68L616.051 80.32H621.123V81.84H613.347V80.512L614.499 79.52ZM622.726 76.016C622.726 74.1707 623.035 72.7307 623.654 71.696C624.283 70.6507 625.36 70.128 626.886 70.128C628.411 70.128 629.483 70.6507 630.102 71.696C630.731 72.7307 631.046 74.1707 631.046 76.016C631.046 77.8827 630.731 79.344 630.102 80.4C629.483 81.4453 628.411 81.968 626.886 81.968C625.36 81.968 624.283 81.4453 623.654 80.4C623.035 79.344 622.726 77.8827 622.726 76.016ZM629.254 76.016C629.254 75.152 629.195 74.4213 629.078 73.824C628.971 73.2267 628.747 72.7413 628.406 72.368C628.064 71.984 627.558 71.792 626.886 71.792C626.214 71.792 625.707 71.984 625.366 72.368C625.024 72.7413 624.795 73.2267 624.678 73.824C624.571 74.4213 624.518 75.152 624.518 76.016C624.518 76.912 624.571 77.664 624.678 78.272C624.784 78.88 625.008 79.3707 625.35 79.744C625.702 80.1173 626.214 80.304 626.886 80.304C627.558 80.304 628.064 80.1173 628.406 79.744C628.758 79.3707 628.987 78.88 629.094 78.272C629.2 77.664 629.254 76.912 629.254 76.016Z" fill="#F3742B"/>
<rect width="302" height="56" transform="translate(408 116)" fill="#FFC29A"/>
<path d="M511.14 148.347L507.753 147.96C507.355 147.914 506.952 147.958 506.573 148.089C506.194 148.221 505.85 148.437 505.567 148.72L503.113 151.174C499.328 149.249 496.252 146.172 494.327 142.387L496.793 139.92C497.367 139.347 497.647 138.547 497.553 137.734L497.167 134.374C497.091 133.723 496.779 133.123 496.29 132.688C495.8 132.253 495.168 132.013 494.513 132.014H492.207C490.7 132.014 489.447 133.267 489.54 134.774C490.247 146.16 499.353 155.254 510.727 155.96C512.233 156.054 513.487 154.8 513.487 153.294V150.987C513.5 149.64 512.487 148.507 511.14 148.347Z" fill="#F3742B"/>
<path d="M522.428 141.216C522.492 140.224 522.871 139.451 523.564 138.896C524.268 138.341 525.164 138.064 526.252 138.064C526.999 138.064 527.644 138.197 528.188 138.464C528.732 138.731 529.143 139.093 529.42 139.552C529.697 140.011 529.836 140.528 529.836 141.104C529.836 141.765 529.66 142.331 529.308 142.8C528.956 143.269 528.535 143.584 528.044 143.744V143.808C528.673 144 529.164 144.352 529.516 144.864C529.868 145.365 530.044 146.011 530.044 146.8C530.044 147.429 529.9 147.989 529.612 148.48C529.324 148.971 528.897 149.36 528.332 149.648C527.767 149.925 527.089 150.064 526.3 150.064C525.148 150.064 524.199 149.771 523.452 149.184C522.716 148.587 522.321 147.733 522.268 146.624H524.028C524.071 147.189 524.289 147.653 524.684 148.016C525.079 148.368 525.612 148.544 526.284 148.544C526.935 148.544 527.436 148.368 527.788 148.016C528.14 147.653 528.316 147.189 528.316 146.624C528.316 145.877 528.076 145.349 527.596 145.04C527.127 144.72 526.401 144.56 525.42 144.56H525.004V143.056H525.436C526.3 143.045 526.956 142.901 527.404 142.624C527.863 142.347 528.092 141.909 528.092 141.312C528.092 140.8 527.927 140.395 527.596 140.096C527.265 139.787 526.796 139.632 526.188 139.632C525.591 139.632 525.127 139.787 524.796 140.096C524.465 140.395 524.268 140.768 524.204 141.216H522.428ZM531.72 140V138.336H535.048V150H533.208V140H531.72ZM538.562 147.52C539.586 146.635 540.391 145.909 540.978 145.344C541.575 144.768 542.071 144.171 542.466 143.552C542.86 142.933 543.058 142.315 543.058 141.696C543.058 141.056 542.903 140.555 542.594 140.192C542.295 139.829 541.82 139.648 541.17 139.648C540.54 139.648 540.05 139.851 539.698 140.256C539.356 140.651 539.175 141.184 539.154 141.856H537.394C537.426 140.64 537.788 139.712 538.482 139.072C539.186 138.421 540.076 138.096 541.154 138.096C542.316 138.096 543.223 138.416 543.874 139.056C544.535 139.696 544.866 140.549 544.866 141.616C544.866 142.384 544.668 143.125 544.274 143.84C543.89 144.544 543.426 145.179 542.882 145.744C542.348 146.299 541.666 146.944 540.834 147.68L540.114 148.32H545.186V149.84H537.41V148.512L538.562 147.52ZM553.796 143.44V144.976H547.22V143.44H553.796ZM558.116 143.904C557.006 143.349 556.452 142.475 556.452 141.28C556.452 140.704 556.596 140.176 556.884 139.696C557.172 139.216 557.604 138.837 558.18 138.56C558.756 138.272 559.46 138.128 560.292 138.128C561.113 138.128 561.812 138.272 562.388 138.56C562.974 138.837 563.411 139.216 563.7 139.696C563.988 140.176 564.132 140.704 564.132 141.28C564.132 141.877 563.977 142.405 563.668 142.864C563.369 143.312 562.969 143.659 562.468 143.904C563.076 144.128 563.556 144.496 563.908 145.008C564.26 145.509 564.436 146.101 564.436 146.784C564.436 147.477 564.26 148.091 563.908 148.624C563.556 149.157 563.065 149.568 562.436 149.856C561.806 150.144 561.092 150.288 560.292 150.288C559.492 150.288 558.777 150.144 558.148 149.856C557.529 149.568 557.044 149.157 556.692 148.624C556.34 148.091 556.164 147.477 556.164 146.784C556.164 146.091 556.34 145.493 556.692 144.992C557.044 144.491 557.518 144.128 558.116 143.904ZM562.388 141.504C562.388 140.907 562.201 140.448 561.828 140.128C561.454 139.808 560.942 139.648 560.292 139.648C559.652 139.648 559.145 139.808 558.772 140.128C558.398 140.448 558.212 140.912 558.212 141.52C558.212 142.053 558.404 142.491 558.788 142.832C559.182 143.163 559.684 143.328 560.292 143.328C560.9 143.328 561.401 143.157 561.796 142.816C562.19 142.475 562.388 142.037 562.388 141.504ZM560.292 144.704C559.588 144.704 559.012 144.88 558.564 145.232C558.126 145.573 557.908 146.069 557.908 146.72C557.908 147.328 558.121 147.824 558.548 148.208C558.974 148.581 559.556 148.768 560.292 148.768C561.017 148.768 561.588 148.576 562.004 148.192C562.43 147.808 562.644 147.317 562.644 146.72C562.644 146.08 562.425 145.584 561.988 145.232C561.561 144.88 560.996 144.704 560.292 144.704ZM573.743 139.744L569.295 150H567.455L571.951 139.936H566.031V138.384H573.743V139.744ZM575.08 147.568V146.192L580.456 138.48H582.664V145.984H584.152V147.568H582.664V150H580.872V147.568H575.08ZM580.952 140.336L577.176 145.984H580.952V140.336ZM592.671 143.44V144.976H586.095V143.44H592.671ZM596.031 147.52C597.055 146.635 597.86 145.909 598.447 145.344C599.044 144.768 599.54 144.171 599.935 143.552C600.329 142.933 600.527 142.315 600.527 141.696C600.527 141.056 600.372 140.555 600.063 140.192C599.764 139.829 599.289 139.648 598.639 139.648C598.009 139.648 597.519 139.851 597.167 140.256C596.825 140.651 596.644 141.184 596.623 141.856H594.863C594.895 140.64 595.257 139.712 595.951 139.072C596.655 138.421 597.545 138.096 598.623 138.096C599.785 138.096 600.692 138.416 601.343 139.056C602.004 139.696 602.335 140.549 602.335 141.616C602.335 142.384 602.137 143.125 601.743 143.84C601.359 144.544 600.895 145.179 600.351 145.744C599.817 146.299 599.135 146.944 598.303 147.68L597.583 148.32H602.655V149.84H594.879V148.512L596.031 147.52ZM605.265 147.52C606.289 146.635 607.094 145.909 607.681 145.344C608.278 144.768 608.774 144.171 609.169 143.552C609.564 142.933 609.761 142.315 609.761 141.696C609.761 141.056 609.606 140.555 609.297 140.192C608.998 139.829 608.524 139.648 607.873 139.648C607.244 139.648 606.753 139.851 606.401 140.256C606.06 140.651 605.878 141.184 605.857 141.856H604.097C604.129 140.64 604.492 139.712 605.185 139.072C605.889 138.421 606.78 138.096 607.857 138.096C609.02 138.096 609.926 138.416 610.577 139.056C611.238 139.696 611.569 140.549 611.569 141.616C611.569 142.384 611.372 143.125 610.977 143.84C610.593 144.544 610.129 145.179 609.585 145.744C609.052 146.299 608.369 146.944 607.537 147.68L606.817 148.32H611.889V149.84H604.113V148.512L605.265 147.52ZM614.499 147.52C615.523 146.635 616.329 145.909 616.915 145.344C617.513 144.768 618.009 144.171 618.403 143.552C618.798 142.933 618.995 142.315 618.995 141.696C618.995 141.056 618.841 140.555 618.531 140.192C618.233 139.829 617.758 139.648 617.107 139.648C616.478 139.648 615.987 139.851 615.635 140.256C615.294 140.651 615.113 141.184 615.091 141.856H613.331C613.363 140.64 613.726 139.712 614.419 139.072C615.123 138.421 616.014 138.096 617.091 138.096C618.254 138.096 619.161 138.416 619.811 139.056C620.473 139.696 620.803 140.549 620.803 141.616C620.803 142.384 620.606 143.125 620.211 143.84C619.827 144.544 619.363 145.179 618.819 145.744C618.286 146.299 617.603 146.944 616.771 147.68L616.051 148.32H621.123V149.84H613.347V148.512L614.499 147.52ZM622.726 144.016C622.726 142.171 623.035 140.731 623.654 139.696C624.283 138.651 625.36 138.128 626.886 138.128C628.411 138.128 629.483 138.651 630.102 139.696C630.731 140.731 631.046 142.171 631.046 144.016C631.046 145.883 630.731 147.344 630.102 148.4C629.483 149.445 628.411 149.968 626.886 149.968C625.36 149.968 624.283 149.445 623.654 148.4C623.035 147.344 622.726 145.883 622.726 144.016ZM629.254 144.016C629.254 143.152 629.195 142.421 629.078 141.824C628.971 141.227 628.747 140.741 628.406 140.368C628.064 139.984 627.558 139.792 626.886 139.792C626.214 139.792 625.707 139.984 625.366 140.368C625.024 140.741 624.795 141.227 624.678 141.824C624.571 142.421 624.518 143.152 624.518 144.016C624.518 144.912 624.571 145.664 624.678 146.272C624.784 146.88 625.008 147.371 625.35 147.744C625.702 148.117 626.214 148.304 626.886 148.304C627.558 148.304 628.064 148.117 628.406 147.744C628.758 147.371 628.987 146.88 629.094 146.272C629.2 145.664 629.254 144.912 629.254 144.016Z" fill="#F3742B"/>
<rect x="408.5" y="184.5" width="301" height="55" fill="#FFD4B8"/>
<rect x="408.5" y="184.5" width="301" height="55" stroke="#F3742B"/>
<path d="M511.14 216.347L507.753 215.96C507.355 215.914 506.952 215.958 506.573 216.089C506.194 216.221 505.85 216.437 505.567 216.72L503.113 219.174C499.328 217.249 496.252 214.172 494.327 210.387L496.793 207.92C497.367 207.347 497.647 206.547 497.553 205.734L497.167 202.374C497.091 201.723 496.779 201.123 496.29 200.688C495.8 200.253 495.168 200.013 494.513 200.014H492.207C490.7 200.014 489.447 201.267 489.54 202.774C490.247 214.16 499.353 223.254 510.727 223.96C512.233 224.054 513.487 222.8 513.487 221.294V218.987C513.5 217.64 512.487 216.507 511.14 216.347Z" fill="#F3742B"/>
<path d="M522.428 209.216C522.492 208.224 522.871 207.451 523.564 206.896C524.268 206.341 525.164 206.064 526.252 206.064C526.999 206.064 527.644 206.197 528.188 206.464C528.732 206.731 529.143 207.093 529.42 207.552C529.697 208.011 529.836 208.528 529.836 209.104C529.836 209.765 529.66 210.331 529.308 210.8C528.956 211.269 528.535 211.584 528.044 211.744V211.808C528.673 212 529.164 212.352 529.516 212.864C529.868 213.365 530.044 214.011 530.044 214.8C530.044 215.429 529.9 215.989 529.612 216.48C529.324 216.971 528.897 217.36 528.332 217.648C527.767 217.925 527.089 218.064 526.3 218.064C525.148 218.064 524.199 217.771 523.452 217.184C522.716 216.587 522.321 215.733 522.268 214.624H524.028C524.071 215.189 524.289 215.653 524.684 216.016C525.079 216.368 525.612 216.544 526.284 216.544C526.935 216.544 527.436 216.368 527.788 216.016C528.14 215.653 528.316 215.189 528.316 214.624C528.316 213.877 528.076 213.349 527.596 213.04C527.127 212.72 526.401 212.56 525.42 212.56H525.004V211.056H525.436C526.3 211.045 526.956 210.901 527.404 210.624C527.863 210.347 528.092 209.909 528.092 209.312C528.092 208.8 527.927 208.395 527.596 208.096C527.265 207.787 526.796 207.632 526.188 207.632C525.591 207.632 525.127 207.787 524.796 208.096C524.465 208.395 524.268 208.768 524.204 209.216H522.428ZM531.72 208V206.336H535.048V218H533.208V208H531.72ZM538.562 215.52C539.586 214.635 540.391 213.909 540.978 213.344C541.575 212.768 542.071 212.171 542.466 211.552C542.86 210.933 543.058 210.315 543.058 209.696C543.058 209.056 542.903 208.555 542.594 208.192C542.295 207.829 541.82 207.648 541.17 207.648C540.54 207.648 540.05 207.851 539.698 208.256C539.356 208.651 539.175 209.184 539.154 209.856H537.394C537.426 208.64 537.788 207.712 538.482 207.072C539.186 206.421 540.076 206.096 541.154 206.096C542.316 206.096 543.223 206.416 543.874 207.056C544.535 207.696 544.866 208.549 544.866 209.616C544.866 210.384 544.668 211.125 544.274 211.84C543.89 212.544 543.426 213.179 542.882 213.744C542.348 214.299 541.666 214.944 540.834 215.68L540.114 216.32H545.186V217.84H537.41V216.512L538.562 215.52ZM553.796 211.44V212.976H547.22V211.44H553.796ZM558.116 211.904C557.006 211.349 556.452 210.475 556.452 209.28C556.452 208.704 556.596 208.176 556.884 207.696C557.172 207.216 557.604 206.837 558.18 206.56C558.756 206.272 559.46 206.128 560.292 206.128C561.113 206.128 561.812 206.272 562.388 206.56C562.974 206.837 563.411 207.216 563.7 207.696C563.988 208.176 564.132 208.704 564.132 209.28C564.132 209.877 563.977 210.405 563.668 210.864C563.369 211.312 562.969 211.659 562.468 211.904C563.076 212.128 563.556 212.496 563.908 213.008C564.26 213.509 564.436 214.101 564.436 214.784C564.436 215.477 564.26 216.091 563.908 216.624C563.556 217.157 563.065 217.568 562.436 217.856C561.806 218.144 561.092 218.288 560.292 218.288C559.492 218.288 558.777 218.144 558.148 217.856C557.529 217.568 557.044 217.157 556.692 216.624C556.34 216.091 556.164 215.477 556.164 214.784C556.164 214.091 556.34 213.493 556.692 212.992C557.044 212.491 557.518 212.128 558.116 211.904ZM562.388 209.504C562.388 208.907 562.201 208.448 561.828 208.128C561.454 207.808 560.942 207.648 560.292 207.648C559.652 207.648 559.145 207.808 558.772 208.128C558.398 208.448 558.212 208.912 558.212 209.52C558.212 210.053 558.404 210.491 558.788 210.832C559.182 211.163 559.684 211.328 560.292 211.328C560.9 211.328 561.401 211.157 561.796 210.816C562.19 210.475 562.388 210.037 562.388 209.504ZM560.292 212.704C559.588 212.704 559.012 212.88 558.564 213.232C558.126 213.573 557.908 214.069 557.908 214.72C557.908 215.328 558.121 215.824 558.548 216.208C558.974 216.581 559.556 216.768 560.292 216.768C561.017 216.768 561.588 216.576 562.004 216.192C562.43 215.808 562.644 215.317 562.644 214.72C562.644 214.08 562.425 213.584 561.988 213.232C561.561 212.88 560.996 212.704 560.292 212.704ZM573.743 207.744L569.295 218H567.455L571.951 207.936H566.031V206.384H573.743V207.744ZM575.08 215.568V214.192L580.456 206.48H582.664V213.984H584.152V215.568H582.664V218H580.872V215.568H575.08ZM580.952 208.336L577.176 213.984H580.952V208.336ZM592.671 211.44V212.976H586.095V211.44H592.671ZM596.031 215.52C597.055 214.635 597.86 213.909 598.447 213.344C599.044 212.768 599.54 212.171 599.935 211.552C600.329 210.933 600.527 210.315 600.527 209.696C600.527 209.056 600.372 208.555 600.063 208.192C599.764 207.829 599.289 207.648 598.639 207.648C598.009 207.648 597.519 207.851 597.167 208.256C596.825 208.651 596.644 209.184 596.623 209.856H594.863C594.895 208.64 595.257 207.712 595.951 207.072C596.655 206.421 597.545 206.096 598.623 206.096C599.785 206.096 600.692 206.416 601.343 207.056C602.004 207.696 602.335 208.549 602.335 209.616C602.335 210.384 602.137 211.125 601.743 211.84C601.359 212.544 600.895 213.179 600.351 213.744C599.817 214.299 599.135 214.944 598.303 215.68L597.583 216.32H602.655V217.84H594.879V216.512L596.031 215.52ZM605.265 215.52C606.289 214.635 607.094 213.909 607.681 213.344C608.278 212.768 608.774 212.171 609.169 211.552C609.564 210.933 609.761 210.315 609.761 209.696C609.761 209.056 609.606 208.555 609.297 208.192C608.998 207.829 608.524 207.648 607.873 207.648C607.244 207.648 606.753 207.851 606.401 208.256C606.06 208.651 605.878 209.184 605.857 209.856H604.097C604.129 208.64 604.492 207.712 605.185 207.072C605.889 206.421 606.78 206.096 607.857 206.096C609.02 206.096 609.926 206.416 610.577 207.056C611.238 207.696 611.569 208.549 611.569 209.616C611.569 210.384 611.372 211.125 610.977 211.84C610.593 212.544 610.129 213.179 609.585 213.744C609.052 214.299 608.369 214.944 607.537 215.68L606.817 216.32H611.889V217.84H604.113V216.512L605.265 215.52ZM614.499 215.52C615.523 214.635 616.329 213.909 616.915 213.344C617.513 212.768 618.009 212.171 618.403 211.552C618.798 210.933 618.995 210.315 618.995 209.696C618.995 209.056 618.841 208.555 618.531 208.192C618.233 207.829 617.758 207.648 617.107 207.648C616.478 207.648 615.987 207.851 615.635 208.256C615.294 208.651 615.113 209.184 615.091 209.856H613.331C613.363 208.64 613.726 207.712 614.419 207.072C615.123 206.421 616.014 206.096 617.091 206.096C618.254 206.096 619.161 206.416 619.811 207.056C620.473 207.696 620.803 208.549 620.803 209.616C620.803 210.384 620.606 211.125 620.211 211.84C619.827 212.544 619.363 213.179 618.819 213.744C618.286 214.299 617.603 214.944 616.771 215.68L616.051 216.32H621.123V217.84H613.347V216.512L614.499 215.52ZM622.726 212.016C622.726 210.171 623.035 208.731 623.654 207.696C624.283 206.651 625.36 206.128 626.886 206.128C628.411 206.128 629.483 206.651 630.102 207.696C630.731 208.731 631.046 210.171 631.046 212.016C631.046 213.883 630.731 215.344 630.102 216.4C629.483 217.445 628.411 217.968 626.886 217.968C625.36 217.968 624.283 217.445 623.654 216.4C623.035 215.344 622.726 213.883 622.726 212.016ZM629.254 212.016C629.254 211.152 629.195 210.421 629.078 209.824C628.971 209.227 628.747 208.741 628.406 208.368C628.064 207.984 627.558 207.792 626.886 207.792C626.214 207.792 625.707 207.984 625.366 208.368C625.024 208.741 624.795 209.227 624.678 209.824C624.571 210.421 624.518 211.152 624.518 212.016C624.518 212.912 624.571 213.664 624.678 214.272C624.784 214.88 625.008 215.371 625.35 215.744C625.702 216.117 626.214 216.304 626.886 216.304C627.558 216.304 628.064 216.117 628.406 215.744C628.758 215.371 628.987 214.88 629.094 214.272C629.2 213.664 629.254 212.912 629.254 212.016Z" fill="#F3742B"/>
<rect width="302" height="56" transform="translate(408 252)" fill="#E1D9D4"/>
<path d="M511.14 284.347L507.753 283.96C507.355 283.914 506.952 283.958 506.573 284.089C506.194 284.221 505.85 284.437 505.567 284.72L503.113 287.174C499.328 285.249 496.252 282.172 494.327 278.387L496.793 275.92C497.367 275.347 497.647 274.547 497.553 273.734L497.167 270.374C497.091 269.723 496.779 269.123 496.29 268.688C495.8 268.253 495.168 268.013 494.513 268.014H492.207C490.7 268.014 489.447 269.267 489.54 270.774C490.247 282.16 499.353 291.254 510.727 291.96C512.233 292.054 513.487 290.8 513.487 289.294V286.987C513.5 285.64 512.487 284.507 511.14 284.347Z" fill="#B6ACA7"/>
<path d="M522.428 277.216C522.492 276.224 522.871 275.451 523.564 274.896C524.268 274.341 525.164 274.064 526.252 274.064C526.999 274.064 527.644 274.197 528.188 274.464C528.732 274.731 529.143 275.093 529.42 275.552C529.697 276.011 529.836 276.528 529.836 277.104C529.836 277.765 529.66 278.331 529.308 278.8C528.956 279.269 528.535 279.584 528.044 279.744V279.808C528.673 280 529.164 280.352 529.516 280.864C529.868 281.365 530.044 282.011 530.044 282.8C530.044 283.429 529.9 283.989 529.612 284.48C529.324 284.971 528.897 285.36 528.332 285.648C527.767 285.925 527.089 286.064 526.3 286.064C525.148 286.064 524.199 285.771 523.452 285.184C522.716 284.587 522.321 283.733 522.268 282.624H524.028C524.071 283.189 524.289 283.653 524.684 284.016C525.079 284.368 525.612 284.544 526.284 284.544C526.935 284.544 527.436 284.368 527.788 284.016C528.14 283.653 528.316 283.189 528.316 282.624C528.316 281.877 528.076 281.349 527.596 281.04C527.127 280.72 526.401 280.56 525.42 280.56H525.004V279.056H525.436C526.3 279.045 526.956 278.901 527.404 278.624C527.863 278.347 528.092 277.909 528.092 277.312C528.092 276.8 527.927 276.395 527.596 276.096C527.265 275.787 526.796 275.632 526.188 275.632C525.591 275.632 525.127 275.787 524.796 276.096C524.465 276.395 524.268 276.768 524.204 277.216H522.428ZM531.72 276V274.336H535.048V286H533.208V276H531.72ZM538.562 283.52C539.586 282.635 540.391 281.909 540.978 281.344C541.575 280.768 542.071 280.171 542.466 279.552C542.86 278.933 543.058 278.315 543.058 277.696C543.058 277.056 542.903 276.555 542.594 276.192C542.295 275.829 541.82 275.648 541.17 275.648C540.54 275.648 540.05 275.851 539.698 276.256C539.356 276.651 539.175 277.184 539.154 277.856H537.394C537.426 276.64 537.788 275.712 538.482 275.072C539.186 274.421 540.076 274.096 541.154 274.096C542.316 274.096 543.223 274.416 543.874 275.056C544.535 275.696 544.866 276.549 544.866 277.616C544.866 278.384 544.668 279.125 544.274 279.84C543.89 280.544 543.426 281.179 542.882 281.744C542.348 282.299 541.666 282.944 540.834 283.68L540.114 284.32H545.186V285.84H537.41V284.512L538.562 283.52ZM553.796 279.44V280.976H547.22V279.44H553.796ZM558.116 279.904C557.006 279.349 556.452 278.475 556.452 277.28C556.452 276.704 556.596 276.176 556.884 275.696C557.172 275.216 557.604 274.837 558.18 274.56C558.756 274.272 559.46 274.128 560.292 274.128C561.113 274.128 561.812 274.272 562.388 274.56C562.974 274.837 563.411 275.216 563.7 275.696C563.988 276.176 564.132 276.704 564.132 277.28C564.132 277.877 563.977 278.405 563.668 278.864C563.369 279.312 562.969 279.659 562.468 279.904C563.076 280.128 563.556 280.496 563.908 281.008C564.26 281.509 564.436 282.101 564.436 282.784C564.436 283.477 564.26 284.091 563.908 284.624C563.556 285.157 563.065 285.568 562.436 285.856C561.806 286.144 561.092 286.288 560.292 286.288C559.492 286.288 558.777 286.144 558.148 285.856C557.529 285.568 557.044 285.157 556.692 284.624C556.34 284.091 556.164 283.477 556.164 282.784C556.164 282.091 556.34 281.493 556.692 280.992C557.044 280.491 557.518 280.128 558.116 279.904ZM562.388 277.504C562.388 276.907 562.201 276.448 561.828 276.128C561.454 275.808 560.942 275.648 560.292 275.648C559.652 275.648 559.145 275.808 558.772 276.128C558.398 276.448 558.212 276.912 558.212 277.52C558.212 278.053 558.404 278.491 558.788 278.832C559.182 279.163 559.684 279.328 560.292 279.328C560.9 279.328 561.401 279.157 561.796 278.816C562.19 278.475 562.388 278.037 562.388 277.504ZM560.292 280.704C559.588 280.704 559.012 280.88 558.564 281.232C558.126 281.573 557.908 282.069 557.908 282.72C557.908 283.328 558.121 283.824 558.548 284.208C558.974 284.581 559.556 284.768 560.292 284.768C561.017 284.768 561.588 284.576 562.004 284.192C562.43 283.808 562.644 283.317 562.644 282.72C562.644 282.08 562.425 281.584 561.988 281.232C561.561 280.88 560.996 280.704 560.292 280.704ZM573.743 275.744L569.295 286H567.455L571.951 275.936H566.031V274.384H573.743V275.744ZM575.08 283.568V282.192L580.456 274.48H582.664V281.984H584.152V283.568H582.664V286H580.872V283.568H575.08ZM580.952 276.336L577.176 281.984H580.952V276.336ZM592.671 279.44V280.976H586.095V279.44H592.671ZM596.031 283.52C597.055 282.635 597.86 281.909 598.447 281.344C599.044 280.768 599.54 280.171 599.935 279.552C600.329 278.933 600.527 278.315 600.527 277.696C600.527 277.056 600.372 276.555 600.063 276.192C599.764 275.829 599.289 275.648 598.639 275.648C598.009 275.648 597.519 275.851 597.167 276.256C596.825 276.651 596.644 277.184 596.623 277.856H594.863C594.895 276.64 595.257 275.712 595.951 275.072C596.655 274.421 597.545 274.096 598.623 274.096C599.785 274.096 600.692 274.416 601.343 275.056C602.004 275.696 602.335 276.549 602.335 277.616C602.335 278.384 602.137 279.125 601.743 279.84C601.359 280.544 600.895 281.179 600.351 281.744C599.817 282.299 599.135 282.944 598.303 283.68L597.583 284.32H602.655V285.84H594.879V284.512L596.031 283.52ZM605.265 283.52C606.289 282.635 607.094 281.909 607.681 281.344C608.278 280.768 608.774 280.171 609.169 279.552C609.564 278.933 609.761 278.315 609.761 277.696C609.761 277.056 609.606 276.555 609.297 276.192C608.998 275.829 608.524 275.648 607.873 275.648C607.244 275.648 606.753 275.851 606.401 276.256C606.06 276.651 605.878 277.184 605.857 277.856H604.097C604.129 276.64 604.492 275.712 605.185 275.072C605.889 274.421 606.78 274.096 607.857 274.096C609.02 274.096 609.926 274.416 610.577 275.056C611.238 275.696 611.569 276.549 611.569 277.616C611.569 278.384 611.372 279.125 610.977 279.84C610.593 280.544 610.129 281.179 609.585 281.744C609.052 282.299 608.369 282.944 607.537 283.68L606.817 284.32H611.889V285.84H604.113V284.512L605.265 283.52ZM614.499 283.52C615.523 282.635 616.329 281.909 616.915 281.344C617.513 280.768 618.009 280.171 618.403 279.552C618.798 278.933 618.995 278.315 618.995 277.696C618.995 277.056 618.841 276.555 618.531 276.192C618.233 275.829 617.758 275.648 617.107 275.648C616.478 275.648 615.987 275.851 615.635 276.256C615.294 276.651 615.113 277.184 615.091 277.856H613.331C613.363 276.64 613.726 275.712 614.419 275.072C615.123 274.421 616.014 274.096 617.091 274.096C618.254 274.096 619.161 274.416 619.811 275.056C620.473 275.696 620.803 276.549 620.803 277.616C620.803 278.384 620.606 279.125 620.211 279.84C619.827 280.544 619.363 281.179 618.819 281.744C618.286 282.299 617.603 282.944 616.771 283.68L616.051 284.32H621.123V285.84H613.347V284.512L614.499 283.52ZM622.726 280.016C622.726 278.171 623.035 276.731 623.654 275.696C624.283 274.651 625.36 274.128 626.886 274.128C628.411 274.128 629.483 274.651 630.102 275.696C630.731 276.731 631.046 278.171 631.046 280.016C631.046 281.883 630.731 283.344 630.102 284.4C629.483 285.445 628.411 285.968 626.886 285.968C625.36 285.968 624.283 285.445 623.654 284.4C623.035 283.344 622.726 281.883 622.726 280.016ZM629.254 280.016C629.254 279.152 629.195 278.421 629.078 277.824C628.971 277.227 628.747 276.741 628.406 276.368C628.064 275.984 627.558 275.792 626.886 275.792C626.214 275.792 625.707 275.984 625.366 276.368C625.024 276.741 624.795 277.227 624.678 277.824C624.571 278.421 624.518 279.152 624.518 280.016C624.518 280.912 624.571 281.664 624.678 282.272C624.784 282.88 625.008 283.371 625.35 283.744C625.702 284.117 626.214 284.304 626.886 284.304C627.558 284.304 628.064 284.117 628.406 283.744C628.758 283.371 628.987 282.88 629.094 282.272C629.2 281.664 629.254 280.912 629.254 280.016Z" fill="#B6ACA7"/>
</svg>
