<svg width="1232" height="536" viewBox="0 0 1232 536" fill="none" xmlns="http://www.w3.org/2000/svg">
<rect width="792" height="356" rx="8" fill="#D8F520" fill-opacity="0.19"/>
<rect width="302" height="56" transform="translate(82 48)" fill="#F3742B"/>
<path d="M155.448 74.32C155.245 73.9467 154.952 73.664 154.568 73.472C154.195 73.2693 153.752 73.168 153.24 73.168C152.355 73.168 151.645 73.4613 151.112 74.048C150.579 74.624 150.312 75.3973 150.312 76.368C150.312 77.4027 150.589 78.2133 151.144 78.8C151.709 79.376 152.483 79.664 153.464 79.664C154.136 79.664 154.701 79.4933 155.16 79.152C155.629 78.8107 155.971 78.32 156.184 77.68H152.712V75.664H158.664V78.208C158.461 78.8907 158.115 79.5253 157.624 80.112C157.144 80.6987 156.531 81.1733 155.784 81.536C155.037 81.8987 154.195 82.08 153.256 82.08C152.147 82.08 151.155 81.84 150.28 81.36C149.416 80.8693 148.739 80.192 148.248 79.328C147.768 78.464 147.528 77.4773 147.528 76.368C147.528 75.2587 147.768 74.272 148.248 73.408C148.739 72.5333 149.416 71.856 150.28 71.376C151.144 70.8853 152.131 70.64 153.24 70.64C154.584 70.64 155.715 70.9653 156.632 71.616C157.56 72.2667 158.173 73.168 158.472 74.32H155.448ZM162.916 72.96V75.232H166.58V77.344H162.916V79.808H167.06V82H160.18V70.768H167.06V72.96H162.916ZM176.916 70.768V72.96H173.94V82H171.204V72.96H168.228V70.768H176.916ZM188.992 70.768V72.96H184.416V75.328H187.84V77.456H184.416V82H181.68V70.768H188.992ZM196.158 82L193.822 77.76H193.166V82H190.43V70.768H195.022C195.907 70.768 196.659 70.9227 197.278 71.232C197.907 71.5413 198.376 71.968 198.686 72.512C198.995 73.0453 199.15 73.6427 199.15 74.304C199.15 75.0507 198.936 75.7173 198.51 76.304C198.094 76.8907 197.475 77.3067 196.654 77.552L199.246 82H196.158ZM193.166 75.824H194.862C195.363 75.824 195.736 75.7013 195.982 75.456C196.238 75.2107 196.366 74.864 196.366 74.416C196.366 73.9893 196.238 73.6533 195.982 73.408C195.736 73.1627 195.363 73.04 194.862 73.04H193.166V75.824ZM203.603 72.96V75.232H207.267V77.344H203.603V79.808H207.747V82H200.867V70.768H207.747V72.96H203.603ZM212.259 72.96V75.232H215.923V77.344H212.259V79.808H216.403V82H209.523V70.768H216.403V72.96H212.259ZM224.306 72.96V75.232H227.97V77.344H224.306V79.808H228.45V82H221.57V70.768H228.45V72.96H224.306ZM234.29 82.112C233.469 82.112 232.733 81.9787 232.082 81.712C231.432 81.4453 230.909 81.0507 230.514 80.528C230.13 80.0053 229.928 79.376 229.906 78.64H232.818C232.861 79.056 233.005 79.376 233.25 79.6C233.496 79.8133 233.816 79.92 234.21 79.92C234.616 79.92 234.936 79.8293 235.17 79.648C235.405 79.456 235.522 79.1947 235.522 78.864C235.522 78.5867 235.426 78.3573 235.234 78.176C235.053 77.9947 234.824 77.8453 234.546 77.728C234.28 77.6107 233.896 77.4773 233.394 77.328C232.669 77.104 232.077 76.88 231.618 76.656C231.16 76.432 230.765 76.1013 230.434 75.664C230.104 75.2267 229.938 74.656 229.938 73.952C229.938 72.9067 230.317 72.0907 231.074 71.504C231.832 70.9067 232.818 70.608 234.034 70.608C235.272 70.608 236.269 70.9067 237.026 71.504C237.784 72.0907 238.189 72.912 238.242 73.968H235.282C235.261 73.6053 235.128 73.3227 234.882 73.12C234.637 72.9067 234.322 72.8 233.938 72.8C233.608 72.8 233.341 72.8907 233.138 73.072C232.936 73.2427 232.834 73.4933 232.834 73.824C232.834 74.1867 233.005 74.4693 233.346 74.672C233.688 74.8747 234.221 75.0933 234.946 75.328C235.672 75.5733 236.258 75.808 236.706 76.032C237.165 76.256 237.56 76.5813 237.89 77.008C238.221 77.4347 238.386 77.984 238.386 78.656C238.386 79.296 238.221 79.8773 237.89 80.4C237.57 80.9227 237.101 81.3387 236.482 81.648C235.864 81.9573 235.133 82.112 234.29 82.112ZM248.15 70.768V72.96H245.174V82H242.438V72.96H239.462V70.768H248.15ZM252.259 70.768V82H249.523V70.768H252.259ZM266.962 70.768V82H264.226V75.264L261.714 82H259.506L256.978 75.248V82H254.242V70.768H257.474L260.626 78.544L263.746 70.768H266.962ZM275.922 80.016H271.73L271.058 82H268.194L272.258 70.768H275.426L279.49 82H276.594L275.922 80.016ZM275.218 77.904L273.826 73.792L272.45 77.904H275.218ZM288.806 70.768V72.96H285.83V82H283.094V72.96H280.118V70.768H288.806ZM292.916 70.768V82H290.18V70.768H292.916ZM300.21 82.112C299.154 82.112 298.184 81.8667 297.298 81.376C296.424 80.8853 295.725 80.2027 295.202 79.328C294.69 78.4427 294.434 77.4507 294.434 76.352C294.434 75.2533 294.69 74.2667 295.202 73.392C295.725 72.5173 296.424 71.8347 297.298 71.344C298.184 70.8533 299.154 70.608 300.21 70.608C301.266 70.608 302.232 70.8533 303.106 71.344C303.992 71.8347 304.685 72.5173 305.186 73.392C305.698 74.2667 305.954 75.2533 305.954 76.352C305.954 77.4507 305.698 78.4427 305.186 79.328C304.674 80.2027 303.981 80.8853 303.106 81.376C302.232 81.8667 301.266 82.112 300.21 82.112ZM300.21 79.616C301.106 79.616 301.821 79.3173 302.354 78.72C302.898 78.1227 303.17 77.3333 303.17 76.352C303.17 75.36 302.898 74.5707 302.354 73.984C301.821 73.3867 301.106 73.088 300.21 73.088C299.304 73.088 298.578 73.3813 298.034 73.968C297.501 74.5547 297.234 75.3493 297.234 76.352C297.234 77.344 297.501 78.1387 298.034 78.736C298.578 79.3227 299.304 79.616 300.21 79.616ZM317.524 82H314.788L310.212 75.072V82H307.476V70.768H310.212L314.788 77.728V70.768H317.524V82Z" fill="#FFFDFD"/>
<rect width="302" height="56" transform="translate(82 116)" fill="#EE6719"/>
<path d="M155.448 142.32C155.245 141.947 154.952 141.664 154.568 141.472C154.195 141.269 153.752 141.168 153.24 141.168C152.355 141.168 151.645 141.461 151.112 142.048C150.579 142.624 150.312 143.397 150.312 144.368C150.312 145.403 150.589 146.213 151.144 146.8C151.709 147.376 152.483 147.664 153.464 147.664C154.136 147.664 154.701 147.493 155.16 147.152C155.629 146.811 155.971 146.32 156.184 145.68H152.712V143.664H158.664V146.208C158.461 146.891 158.115 147.525 157.624 148.112C157.144 148.699 156.531 149.173 155.784 149.536C155.037 149.899 154.195 150.08 153.256 150.08C152.147 150.08 151.155 149.84 150.28 149.36C149.416 148.869 148.739 148.192 148.248 147.328C147.768 146.464 147.528 145.477 147.528 144.368C147.528 143.259 147.768 142.272 148.248 141.408C148.739 140.533 149.416 139.856 150.28 139.376C151.144 138.885 152.131 138.64 153.24 138.64C154.584 138.64 155.715 138.965 156.632 139.616C157.56 140.267 158.173 141.168 158.472 142.32H155.448ZM162.916 140.96V143.232H166.58V145.344H162.916V147.808H167.06V150H160.18V138.768H167.06V140.96H162.916ZM176.916 138.768V140.96H173.94V150H171.204V140.96H168.228V138.768H176.916ZM188.992 138.768V140.96H184.416V143.328H187.84V145.456H184.416V150H181.68V138.768H188.992ZM196.158 150L193.822 145.76H193.166V150H190.43V138.768H195.022C195.907 138.768 196.659 138.923 197.278 139.232C197.907 139.541 198.376 139.968 198.686 140.512C198.995 141.045 199.15 141.643 199.15 142.304C199.15 143.051 198.936 143.717 198.51 144.304C198.094 144.891 197.475 145.307 196.654 145.552L199.246 150H196.158ZM193.166 143.824H194.862C195.363 143.824 195.736 143.701 195.982 143.456C196.238 143.211 196.366 142.864 196.366 142.416C196.366 141.989 196.238 141.653 195.982 141.408C195.736 141.163 195.363 141.04 194.862 141.04H193.166V143.824ZM203.603 140.96V143.232H207.267V145.344H203.603V147.808H207.747V150H200.867V138.768H207.747V140.96H203.603ZM212.259 140.96V143.232H215.923V145.344H212.259V147.808H216.403V150H209.523V138.768H216.403V140.96H212.259ZM224.306 140.96V143.232H227.97V145.344H224.306V147.808H228.45V150H221.57V138.768H228.45V140.96H224.306ZM234.29 150.112C233.469 150.112 232.733 149.979 232.082 149.712C231.432 149.445 230.909 149.051 230.514 148.528C230.13 148.005 229.928 147.376 229.906 146.64H232.818C232.861 147.056 233.005 147.376 233.25 147.6C233.496 147.813 233.816 147.92 234.21 147.92C234.616 147.92 234.936 147.829 235.17 147.648C235.405 147.456 235.522 147.195 235.522 146.864C235.522 146.587 235.426 146.357 235.234 146.176C235.053 145.995 234.824 145.845 234.546 145.728C234.28 145.611 233.896 145.477 233.394 145.328C232.669 145.104 232.077 144.88 231.618 144.656C231.16 144.432 230.765 144.101 230.434 143.664C230.104 143.227 229.938 142.656 229.938 141.952C229.938 140.907 230.317 140.091 231.074 139.504C231.832 138.907 232.818 138.608 234.034 138.608C235.272 138.608 236.269 138.907 237.026 139.504C237.784 140.091 238.189 140.912 238.242 141.968H235.282C235.261 141.605 235.128 141.323 234.882 141.12C234.637 140.907 234.322 140.8 233.938 140.8C233.608 140.8 233.341 140.891 233.138 141.072C232.936 141.243 232.834 141.493 232.834 141.824C232.834 142.187 233.005 142.469 233.346 142.672C233.688 142.875 234.221 143.093 234.946 143.328C235.672 143.573 236.258 143.808 236.706 144.032C237.165 144.256 237.56 144.581 237.89 145.008C238.221 145.435 238.386 145.984 238.386 146.656C238.386 147.296 238.221 147.877 237.89 148.4C237.57 148.923 237.101 149.339 236.482 149.648C235.864 149.957 235.133 150.112 234.29 150.112ZM248.15 138.768V140.96H245.174V150H242.438V140.96H239.462V138.768H248.15ZM252.259 138.768V150H249.523V138.768H252.259ZM266.962 138.768V150H264.226V143.264L261.714 150H259.506L256.978 143.248V150H254.242V138.768H257.474L260.626 146.544L263.746 138.768H266.962ZM275.922 148.016H271.73L271.058 150H268.194L272.258 138.768H275.426L279.49 150H276.594L275.922 148.016ZM275.218 145.904L273.826 141.792L272.45 145.904H275.218ZM288.806 138.768V140.96H285.83V150H283.094V140.96H280.118V138.768H288.806ZM292.916 138.768V150H290.18V138.768H292.916ZM300.21 150.112C299.154 150.112 298.184 149.867 297.298 149.376C296.424 148.885 295.725 148.203 295.202 147.328C294.69 146.443 294.434 145.451 294.434 144.352C294.434 143.253 294.69 142.267 295.202 141.392C295.725 140.517 296.424 139.835 297.298 139.344C298.184 138.853 299.154 138.608 300.21 138.608C301.266 138.608 302.232 138.853 303.106 139.344C303.992 139.835 304.685 140.517 305.186 141.392C305.698 142.267 305.954 143.253 305.954 144.352C305.954 145.451 305.698 146.443 305.186 147.328C304.674 148.203 303.981 148.885 303.106 149.376C302.232 149.867 301.266 150.112 300.21 150.112ZM300.21 147.616C301.106 147.616 301.821 147.317 302.354 146.72C302.898 146.123 303.17 145.333 303.17 144.352C303.17 143.36 302.898 142.571 302.354 141.984C301.821 141.387 301.106 141.088 300.21 141.088C299.304 141.088 298.578 141.381 298.034 141.968C297.501 142.555 297.234 143.349 297.234 144.352C297.234 145.344 297.501 146.139 298.034 146.736C298.578 147.323 299.304 147.616 300.21 147.616ZM317.524 150H314.788L310.212 143.072V150H307.476V138.768H310.212L314.788 145.728V138.768H317.524V150Z" fill="#FFFDFD"/>
<rect x="82.5" y="184.5" width="301" height="55" fill="#F3742B"/>
<rect x="82.5" y="184.5" width="301" height="55" stroke="#EE6719"/>
<path d="M155.448 210.32C155.245 209.947 154.952 209.664 154.568 209.472C154.195 209.269 153.752 209.168 153.24 209.168C152.355 209.168 151.645 209.461 151.112 210.048C150.579 210.624 150.312 211.397 150.312 212.368C150.312 213.403 150.589 214.213 151.144 214.8C151.709 215.376 152.483 215.664 153.464 215.664C154.136 215.664 154.701 215.493 155.16 215.152C155.629 214.811 155.971 214.32 156.184 213.68H152.712V211.664H158.664V214.208C158.461 214.891 158.115 215.525 157.624 216.112C157.144 216.699 156.531 217.173 155.784 217.536C155.037 217.899 154.195 218.08 153.256 218.08C152.147 218.08 151.155 217.84 150.28 217.36C149.416 216.869 148.739 216.192 148.248 215.328C147.768 214.464 147.528 213.477 147.528 212.368C147.528 211.259 147.768 210.272 148.248 209.408C148.739 208.533 149.416 207.856 150.28 207.376C151.144 206.885 152.131 206.64 153.24 206.64C154.584 206.64 155.715 206.965 156.632 207.616C157.56 208.267 158.173 209.168 158.472 210.32H155.448ZM162.916 208.96V211.232H166.58V213.344H162.916V215.808H167.06V218H160.18V206.768H167.06V208.96H162.916ZM176.916 206.768V208.96H173.94V218H171.204V208.96H168.228V206.768H176.916ZM188.992 206.768V208.96H184.416V211.328H187.84V213.456H184.416V218H181.68V206.768H188.992ZM196.158 218L193.822 213.76H193.166V218H190.43V206.768H195.022C195.907 206.768 196.659 206.923 197.278 207.232C197.907 207.541 198.376 207.968 198.686 208.512C198.995 209.045 199.15 209.643 199.15 210.304C199.15 211.051 198.936 211.717 198.51 212.304C198.094 212.891 197.475 213.307 196.654 213.552L199.246 218H196.158ZM193.166 211.824H194.862C195.363 211.824 195.736 211.701 195.982 211.456C196.238 211.211 196.366 210.864 196.366 210.416C196.366 209.989 196.238 209.653 195.982 209.408C195.736 209.163 195.363 209.04 194.862 209.04H193.166V211.824ZM203.603 208.96V211.232H207.267V213.344H203.603V215.808H207.747V218H200.867V206.768H207.747V208.96H203.603ZM212.259 208.96V211.232H215.923V213.344H212.259V215.808H216.403V218H209.523V206.768H216.403V208.96H212.259ZM224.306 208.96V211.232H227.97V213.344H224.306V215.808H228.45V218H221.57V206.768H228.45V208.96H224.306ZM234.29 218.112C233.469 218.112 232.733 217.979 232.082 217.712C231.432 217.445 230.909 217.051 230.514 216.528C230.13 216.005 229.928 215.376 229.906 214.64H232.818C232.861 215.056 233.005 215.376 233.25 215.6C233.496 215.813 233.816 215.92 234.21 215.92C234.616 215.92 234.936 215.829 235.17 215.648C235.405 215.456 235.522 215.195 235.522 214.864C235.522 214.587 235.426 214.357 235.234 214.176C235.053 213.995 234.824 213.845 234.546 213.728C234.28 213.611 233.896 213.477 233.394 213.328C232.669 213.104 232.077 212.88 231.618 212.656C231.16 212.432 230.765 212.101 230.434 211.664C230.104 211.227 229.938 210.656 229.938 209.952C229.938 208.907 230.317 208.091 231.074 207.504C231.832 206.907 232.818 206.608 234.034 206.608C235.272 206.608 236.269 206.907 237.026 207.504C237.784 208.091 238.189 208.912 238.242 209.968H235.282C235.261 209.605 235.128 209.323 234.882 209.12C234.637 208.907 234.322 208.8 233.938 208.8C233.608 208.8 233.341 208.891 233.138 209.072C232.936 209.243 232.834 209.493 232.834 209.824C232.834 210.187 233.005 210.469 233.346 210.672C233.688 210.875 234.221 211.093 234.946 211.328C235.672 211.573 236.258 211.808 236.706 212.032C237.165 212.256 237.56 212.581 237.89 213.008C238.221 213.435 238.386 213.984 238.386 214.656C238.386 215.296 238.221 215.877 237.89 216.4C237.57 216.923 237.101 217.339 236.482 217.648C235.864 217.957 235.133 218.112 234.29 218.112ZM248.15 206.768V208.96H245.174V218H242.438V208.96H239.462V206.768H248.15ZM252.259 206.768V218H249.523V206.768H252.259ZM266.962 206.768V218H264.226V211.264L261.714 218H259.506L256.978 211.248V218H254.242V206.768H257.474L260.626 214.544L263.746 206.768H266.962ZM275.922 216.016H271.73L271.058 218H268.194L272.258 206.768H275.426L279.49 218H276.594L275.922 216.016ZM275.218 213.904L273.826 209.792L272.45 213.904H275.218ZM288.806 206.768V208.96H285.83V218H283.094V208.96H280.118V206.768H288.806ZM292.916 206.768V218H290.18V206.768H292.916ZM300.21 218.112C299.154 218.112 298.184 217.867 297.298 217.376C296.424 216.885 295.725 216.203 295.202 215.328C294.69 214.443 294.434 213.451 294.434 212.352C294.434 211.253 294.69 210.267 295.202 209.392C295.725 208.517 296.424 207.835 297.298 207.344C298.184 206.853 299.154 206.608 300.21 206.608C301.266 206.608 302.232 206.853 303.106 207.344C303.992 207.835 304.685 208.517 305.186 209.392C305.698 210.267 305.954 211.253 305.954 212.352C305.954 213.451 305.698 214.443 305.186 215.328C304.674 216.203 303.981 216.885 303.106 217.376C302.232 217.867 301.266 218.112 300.21 218.112ZM300.21 215.616C301.106 215.616 301.821 215.317 302.354 214.72C302.898 214.123 303.17 213.333 303.17 212.352C303.17 211.36 302.898 210.571 302.354 209.984C301.821 209.387 301.106 209.088 300.21 209.088C299.304 209.088 298.578 209.381 298.034 209.968C297.501 210.555 297.234 211.349 297.234 212.352C297.234 213.344 297.501 214.139 298.034 214.736C298.578 215.323 299.304 215.616 300.21 215.616ZM317.524 218H314.788L310.212 211.072V218H307.476V206.768H310.212L314.788 213.728V206.768H317.524V218Z" fill="#FFFDFD"/>
<rect width="302" height="56" transform="translate(82 252)" fill="#D4B6A5"/>
<path d="M155.448 278.32C155.245 277.947 154.952 277.664 154.568 277.472C154.195 277.269 153.752 277.168 153.24 277.168C152.355 277.168 151.645 277.461 151.112 278.048C150.579 278.624 150.312 279.397 150.312 280.368C150.312 281.403 150.589 282.213 151.144 282.8C151.709 283.376 152.483 283.664 153.464 283.664C154.136 283.664 154.701 283.493 155.16 283.152C155.629 282.811 155.971 282.32 156.184 281.68H152.712V279.664H158.664V282.208C158.461 282.891 158.115 283.525 157.624 284.112C157.144 284.699 156.531 285.173 155.784 285.536C155.037 285.899 154.195 286.08 153.256 286.08C152.147 286.08 151.155 285.84 150.28 285.36C149.416 284.869 148.739 284.192 148.248 283.328C147.768 282.464 147.528 281.477 147.528 280.368C147.528 279.259 147.768 278.272 148.248 277.408C148.739 276.533 149.416 275.856 150.28 275.376C151.144 274.885 152.131 274.64 153.24 274.64C154.584 274.64 155.715 274.965 156.632 275.616C157.56 276.267 158.173 277.168 158.472 278.32H155.448ZM162.916 276.96V279.232H166.58V281.344H162.916V283.808H167.06V286H160.18V274.768H167.06V276.96H162.916ZM176.916 274.768V276.96H173.94V286H171.204V276.96H168.228V274.768H176.916ZM188.992 274.768V276.96H184.416V279.328H187.84V281.456H184.416V286H181.68V274.768H188.992ZM196.158 286L193.822 281.76H193.166V286H190.43V274.768H195.022C195.907 274.768 196.659 274.923 197.278 275.232C197.907 275.541 198.376 275.968 198.686 276.512C198.995 277.045 199.15 277.643 199.15 278.304C199.15 279.051 198.936 279.717 198.51 280.304C198.094 280.891 197.475 281.307 196.654 281.552L199.246 286H196.158ZM193.166 279.824H194.862C195.363 279.824 195.736 279.701 195.982 279.456C196.238 279.211 196.366 278.864 196.366 278.416C196.366 277.989 196.238 277.653 195.982 277.408C195.736 277.163 195.363 277.04 194.862 277.04H193.166V279.824ZM203.603 276.96V279.232H207.267V281.344H203.603V283.808H207.747V286H200.867V274.768H207.747V276.96H203.603ZM212.259 276.96V279.232H215.923V281.344H212.259V283.808H216.403V286H209.523V274.768H216.403V276.96H212.259ZM224.306 276.96V279.232H227.97V281.344H224.306V283.808H228.45V286H221.57V274.768H228.45V276.96H224.306ZM234.29 286.112C233.469 286.112 232.733 285.979 232.082 285.712C231.432 285.445 230.909 285.051 230.514 284.528C230.13 284.005 229.928 283.376 229.906 282.64H232.818C232.861 283.056 233.005 283.376 233.25 283.6C233.496 283.813 233.816 283.92 234.21 283.92C234.616 283.92 234.936 283.829 235.17 283.648C235.405 283.456 235.522 283.195 235.522 282.864C235.522 282.587 235.426 282.357 235.234 282.176C235.053 281.995 234.824 281.845 234.546 281.728C234.28 281.611 233.896 281.477 233.394 281.328C232.669 281.104 232.077 280.88 231.618 280.656C231.16 280.432 230.765 280.101 230.434 279.664C230.104 279.227 229.938 278.656 229.938 277.952C229.938 276.907 230.317 276.091 231.074 275.504C231.832 274.907 232.818 274.608 234.034 274.608C235.272 274.608 236.269 274.907 237.026 275.504C237.784 276.091 238.189 276.912 238.242 277.968H235.282C235.261 277.605 235.128 277.323 234.882 277.12C234.637 276.907 234.322 276.8 233.938 276.8C233.608 276.8 233.341 276.891 233.138 277.072C232.936 277.243 232.834 277.493 232.834 277.824C232.834 278.187 233.005 278.469 233.346 278.672C233.688 278.875 234.221 279.093 234.946 279.328C235.672 279.573 236.258 279.808 236.706 280.032C237.165 280.256 237.56 280.581 237.89 281.008C238.221 281.435 238.386 281.984 238.386 282.656C238.386 283.296 238.221 283.877 237.89 284.4C237.57 284.923 237.101 285.339 236.482 285.648C235.864 285.957 235.133 286.112 234.29 286.112ZM248.15 274.768V276.96H245.174V286H242.438V276.96H239.462V274.768H248.15ZM252.259 274.768V286H249.523V274.768H252.259ZM266.962 274.768V286H264.226V279.264L261.714 286H259.506L256.978 279.248V286H254.242V274.768H257.474L260.626 282.544L263.746 274.768H266.962ZM275.922 284.016H271.73L271.058 286H268.194L272.258 274.768H275.426L279.49 286H276.594L275.922 284.016ZM275.218 281.904L273.826 277.792L272.45 281.904H275.218ZM288.806 274.768V276.96H285.83V286H283.094V276.96H280.118V274.768H288.806ZM292.916 274.768V286H290.18V274.768H292.916ZM300.21 286.112C299.154 286.112 298.184 285.867 297.298 285.376C296.424 284.885 295.725 284.203 295.202 283.328C294.69 282.443 294.434 281.451 294.434 280.352C294.434 279.253 294.69 278.267 295.202 277.392C295.725 276.517 296.424 275.835 297.298 275.344C298.184 274.853 299.154 274.608 300.21 274.608C301.266 274.608 302.232 274.853 303.106 275.344C303.992 275.835 304.685 276.517 305.186 277.392C305.698 278.267 305.954 279.253 305.954 280.352C305.954 281.451 305.698 282.443 305.186 283.328C304.674 284.203 303.981 284.885 303.106 285.376C302.232 285.867 301.266 286.112 300.21 286.112ZM300.21 283.616C301.106 283.616 301.821 283.317 302.354 282.72C302.898 282.123 303.17 281.333 303.17 280.352C303.17 279.36 302.898 278.571 302.354 277.984C301.821 277.387 301.106 277.088 300.21 277.088C299.304 277.088 298.578 277.381 298.034 277.968C297.501 278.555 297.234 279.349 297.234 280.352C297.234 281.344 297.501 282.139 298.034 282.736C298.578 283.323 299.304 283.616 300.21 283.616ZM317.524 286H314.788L310.212 279.072V286H307.476V274.768H310.212L314.788 281.728V274.768H317.524V286Z" fill="#E6E6E5"/>
<rect width="302" height="56" transform="translate(408 48)" fill="#FFD4B8"/>
<path d="M511.14 80.347L507.753 79.9603C507.355 79.9136 506.952 79.9577 506.573 80.0893C506.194 80.2209 505.85 80.4367 505.567 80.7203L503.113 83.1737C499.328 81.2486 496.252 78.1721 494.327 74.387L496.793 71.9203C497.367 71.347 497.647 70.547 497.553 69.7337L497.167 66.3737C497.091 65.7232 496.779 65.1233 496.29 64.6881C495.8 64.253 495.168 64.0129 494.513 64.0137H492.207C490.7 64.0137 489.447 65.267 489.54 66.7737C490.247 78.1603 499.353 87.2537 510.727 87.9603C512.233 88.0537 513.487 86.8003 513.487 85.2937V82.987C513.5 81.6403 512.487 80.507 511.14 80.347Z" fill="#F3742B"/>
<path d="M522.428 73.216C522.492 72.224 522.871 71.4507 523.564 70.896C524.268 70.3413 525.164 70.064 526.252 70.064C526.999 70.064 527.644 70.1973 528.188 70.464C528.732 70.7307 529.143 71.0933 529.42 71.552C529.697 72.0107 529.836 72.528 529.836 73.104C529.836 73.7653 529.66 74.3307 529.308 74.8C528.956 75.2693 528.535 75.584 528.044 75.744V75.808C528.673 76 529.164 76.352 529.516 76.864C529.868 77.3653 530.044 78.0107 530.044 78.8C530.044 79.4293 529.9 79.9893 529.612 80.48C529.324 80.9707 528.897 81.36 528.332 81.648C527.767 81.9253 527.089 82.064 526.3 82.064C525.148 82.064 524.199 81.7707 523.452 81.184C522.716 80.5867 522.321 79.7333 522.268 78.624H524.028C524.071 79.1893 524.289 79.6533 524.684 80.016C525.079 80.368 525.612 80.544 526.284 80.544C526.935 80.544 527.436 80.368 527.788 80.016C528.14 79.6533 528.316 79.1893 528.316 78.624C528.316 77.8773 528.076 77.3493 527.596 77.04C527.127 76.72 526.401 76.56 525.42 76.56H525.004V75.056H525.436C526.3 75.0453 526.956 74.9013 527.404 74.624C527.863 74.3467 528.092 73.9093 528.092 73.312C528.092 72.8 527.927 72.3947 527.596 72.096C527.265 71.7867 526.796 71.632 526.188 71.632C525.591 71.632 525.127 71.7867 524.796 72.096C524.465 72.3947 524.268 72.768 524.204 73.216H522.428ZM531.72 72V70.336H535.048V82H533.208V72H531.72ZM538.562 79.52C539.586 78.6347 540.391 77.9093 540.978 77.344C541.575 76.768 542.071 76.1707 542.466 75.552C542.86 74.9333 543.058 74.3147 543.058 73.696C543.058 73.056 542.903 72.5547 542.594 72.192C542.295 71.8293 541.82 71.648 541.17 71.648C540.54 71.648 540.05 71.8507 539.698 72.256C539.356 72.6507 539.175 73.184 539.154 73.856H537.394C537.426 72.64 537.788 71.712 538.482 71.072C539.186 70.4213 540.076 70.096 541.154 70.096C542.316 70.096 543.223 70.416 543.874 71.056C544.535 71.696 544.866 72.5493 544.866 73.616C544.866 74.384 544.668 75.1253 544.274 75.84C543.89 76.544 543.426 77.1787 542.882 77.744C542.348 78.2987 541.666 78.944 540.834 79.68L540.114 80.32H545.186V81.84H537.41V80.512L538.562 79.52ZM553.796 75.44V76.976H547.22V75.44H553.796ZM558.116 75.904C557.006 75.3493 556.452 74.4747 556.452 73.28C556.452 72.704 556.596 72.176 556.884 71.696C557.172 71.216 557.604 70.8373 558.18 70.56C558.756 70.272 559.46 70.128 560.292 70.128C561.113 70.128 561.812 70.272 562.388 70.56C562.974 70.8373 563.411 71.216 563.7 71.696C563.988 72.176 564.132 72.704 564.132 73.28C564.132 73.8773 563.977 74.4053 563.668 74.864C563.369 75.312 562.969 75.6587 562.468 75.904C563.076 76.128 563.556 76.496 563.908 77.008C564.26 77.5093 564.436 78.1013 564.436 78.784C564.436 79.4773 564.26 80.0907 563.908 80.624C563.556 81.1573 563.065 81.568 562.436 81.856C561.806 82.144 561.092 82.288 560.292 82.288C559.492 82.288 558.777 82.144 558.148 81.856C557.529 81.568 557.044 81.1573 556.692 80.624C556.34 80.0907 556.164 79.4773 556.164 78.784C556.164 78.0907 556.34 77.4933 556.692 76.992C557.044 76.4907 557.518 76.128 558.116 75.904ZM562.388 73.504C562.388 72.9067 562.201 72.448 561.828 72.128C561.454 71.808 560.942 71.648 560.292 71.648C559.652 71.648 559.145 71.808 558.772 72.128C558.398 72.448 558.212 72.912 558.212 73.52C558.212 74.0533 558.404 74.4907 558.788 74.832C559.182 75.1627 559.684 75.328 560.292 75.328C560.9 75.328 561.401 75.1573 561.796 74.816C562.19 74.4747 562.388 74.0373 562.388 73.504ZM560.292 76.704C559.588 76.704 559.012 76.88 558.564 77.232C558.126 77.5733 557.908 78.0693 557.908 78.72C557.908 79.328 558.121 79.824 558.548 80.208C558.974 80.5813 559.556 80.768 560.292 80.768C561.017 80.768 561.588 80.576 562.004 80.192C562.43 79.808 562.644 79.3173 562.644 78.72C562.644 78.08 562.425 77.584 561.988 77.232C561.561 76.88 560.996 76.704 560.292 76.704ZM573.743 71.744L569.295 82H567.455L571.951 71.936H566.031V70.384H573.743V71.744ZM575.08 79.568V78.192L580.456 70.48H582.664V77.984H584.152V79.568H582.664V82H580.872V79.568H575.08ZM580.952 72.336L577.176 77.984H580.952V72.336ZM592.671 75.44V76.976H586.095V75.44H592.671ZM596.031 79.52C597.055 78.6347 597.86 77.9093 598.447 77.344C599.044 76.768 599.54 76.1707 599.935 75.552C600.329 74.9333 600.527 74.3147 600.527 73.696C600.527 73.056 600.372 72.5547 600.063 72.192C599.764 71.8293 599.289 71.648 598.639 71.648C598.009 71.648 597.519 71.8507 597.167 72.256C596.825 72.6507 596.644 73.184 596.623 73.856H594.863C594.895 72.64 595.257 71.712 595.951 71.072C596.655 70.4213 597.545 70.096 598.623 70.096C599.785 70.096 600.692 70.416 601.343 71.056C602.004 71.696 602.335 72.5493 602.335 73.616C602.335 74.384 602.137 75.1253 601.743 75.84C601.359 76.544 600.895 77.1787 600.351 77.744C599.817 78.2987 599.135 78.944 598.303 79.68L597.583 80.32H602.655V81.84H594.879V80.512L596.031 79.52ZM605.265 79.52C606.289 78.6347 607.094 77.9093 607.681 77.344C608.278 76.768 608.774 76.1707 609.169 75.552C609.564 74.9333 609.761 74.3147 609.761 73.696C609.761 73.056 609.606 72.5547 609.297 72.192C608.998 71.8293 608.524 71.648 607.873 71.648C607.244 71.648 606.753 71.8507 606.401 72.256C606.06 72.6507 605.878 73.184 605.857 73.856H604.097C604.129 72.64 604.492 71.712 605.185 71.072C605.889 70.4213 606.78 70.096 607.857 70.096C609.02 70.096 609.926 70.416 610.577 71.056C611.238 71.696 611.569 72.5493 611.569 73.616C611.569 74.384 611.372 75.1253 610.977 75.84C610.593 76.544 610.129 77.1787 609.585 77.744C609.052 78.2987 608.369 78.944 607.537 79.68L606.817 80.32H611.889V81.84H604.113V80.512L605.265 79.52ZM614.499 79.52C615.523 78.6347 616.329 77.9093 616.915 77.344C617.513 76.768 618.009 76.1707 618.403 75.552C618.798 74.9333 618.995 74.3147 618.995 73.696C618.995 73.056 618.841 72.5547 618.531 72.192C618.233 71.8293 617.758 71.648 617.107 71.648C616.478 71.648 615.987 71.8507 615.635 72.256C615.294 72.6507 615.113 73.184 615.091 73.856H613.331C613.363 72.64 613.726 71.712 614.419 71.072C615.123 70.4213 616.014 70.096 617.091 70.096C618.254 70.096 619.161 70.416 619.811 71.056C620.473 71.696 620.803 72.5493 620.803 73.616C620.803 74.384 620.606 75.1253 620.211 75.84C619.827 76.544 619.363 77.1787 618.819 77.744C618.286 78.2987 617.603 78.944 616.771 79.68L616.051 80.32H621.123V81.84H613.347V80.512L614.499 79.52ZM622.726 76.016C622.726 74.1707 623.035 72.7307 623.654 71.696C624.283 70.6507 625.36 70.128 626.886 70.128C628.411 70.128 629.483 70.6507 630.102 71.696C630.731 72.7307 631.046 74.1707 631.046 76.016C631.046 77.8827 630.731 79.344 630.102 80.4C629.483 81.4453 628.411 81.968 626.886 81.968C625.36 81.968 624.283 81.4453 623.654 80.4C623.035 79.344 622.726 77.8827 622.726 76.016ZM629.254 76.016C629.254 75.152 629.195 74.4213 629.078 73.824C628.971 73.2267 628.747 72.7413 628.406 72.368C628.064 71.984 627.558 71.792 626.886 71.792C626.214 71.792 625.707 71.984 625.366 72.368C625.024 72.7413 624.795 73.2267 624.678 73.824C624.571 74.4213 624.518 75.152 624.518 76.016C624.518 76.912 624.571 77.664 624.678 78.272C624.784 78.88 625.008 79.3707 625.35 79.744C625.702 80.1173 626.214 80.304 626.886 80.304C627.558 80.304 628.064 80.1173 628.406 79.744C628.758 79.3707 628.987 78.88 629.094 78.272C629.2 77.664 629.254 76.912 629.254 76.016Z" fill="#F3742B"/>
<rect width="302" height="56" transform="translate(408 116)" fill="#FFC29A"/>
<path d="M511.14 148.347L507.753 147.96C507.355 147.914 506.952 147.958 506.573 148.089C506.194 148.221 505.85 148.437 505.567 148.72L503.113 151.174C499.328 149.249 496.252 146.172 494.327 142.387L496.793 139.92C497.367 139.347 497.647 138.547 497.553 137.734L497.167 134.374C497.091 133.723 496.779 133.123 496.29 132.688C495.8 132.253 495.168 132.013 494.513 132.014H492.207C490.7 132.014 489.447 133.267 489.54 134.774C490.247 146.16 499.353 155.254 510.727 155.96C512.233 156.054 513.487 154.8 513.487 153.294V150.987C513.5 149.64 512.487 148.507 511.14 148.347Z" fill="#F3742B"/>
<path d="M522.428 141.216C522.492 140.224 522.871 139.451 523.564 138.896C524.268 138.341 525.164 138.064 526.252 138.064C526.999 138.064 527.644 138.197 528.188 138.464C528.732 138.731 529.143 139.093 529.42 139.552C529.697 140.011 529.836 140.528 529.836 141.104C529.836 141.765 529.66 142.331 529.308 142.8C528.956 143.269 528.535 143.584 528.044 143.744V143.808C528.673 144 529.164 144.352 529.516 144.864C529.868 145.365 530.044 146.011 530.044 146.8C530.044 147.429 529.9 147.989 529.612 148.48C529.324 148.971 528.897 149.36 528.332 149.648C527.767 149.925 527.089 150.064 526.3 150.064C525.148 150.064 524.199 149.771 523.452 149.184C522.716 148.587 522.321 147.733 522.268 146.624H524.028C524.071 147.189 524.289 147.653 524.684 148.016C525.079 148.368 525.612 148.544 526.284 148.544C526.935 148.544 527.436 148.368 527.788 148.016C528.14 147.653 528.316 147.189 528.316 146.624C528.316 145.877 528.076 145.349 527.596 145.04C527.127 144.72 526.401 144.56 525.42 144.56H525.004V143.056H525.436C526.3 143.045 526.956 142.901 527.404 142.624C527.863 142.347 528.092 141.909 528.092 141.312C528.092 140.8 527.927 140.395 527.596 140.096C527.265 139.787 526.796 139.632 526.188 139.632C525.591 139.632 525.127 139.787 524.796 140.096C524.465 140.395 524.268 140.768 524.204 141.216H522.428ZM531.72 140V138.336H535.048V150H533.208V140H531.72ZM538.562 147.52C539.586 146.635 540.391 145.909 540.978 145.344C541.575 144.768 542.071 144.171 542.466 143.552C542.86 142.933 543.058 142.315 543.058 141.696C543.058 141.056 542.903 140.555 542.594 140.192C542.295 139.829 541.82 139.648 541.17 139.648C540.54 139.648 540.05 139.851 539.698 140.256C539.356 140.651 539.175 141.184 539.154 141.856H537.394C537.426 140.64 537.788 139.712 538.482 139.072C539.186 138.421 540.076 138.096 541.154 138.096C542.316 138.096 543.223 138.416 543.874 139.056C544.535 139.696 544.866 140.549 544.866 141.616C544.866 142.384 544.668 143.125 544.274 143.84C543.89 144.544 543.426 145.179 542.882 145.744C542.348 146.299 541.666 146.944 540.834 147.68L540.114 148.32H545.186V149.84H537.41V148.512L538.562 147.52ZM553.796 143.44V144.976H547.22V143.44H553.796ZM558.116 143.904C557.006 143.349 556.452 142.475 556.452 141.28C556.452 140.704 556.596 140.176 556.884 139.696C557.172 139.216 557.604 138.837 558.18 138.56C558.756 138.272 559.46 138.128 560.292 138.128C561.113 138.128 561.812 138.272 562.388 138.56C562.974 138.837 563.411 139.216 563.7 139.696C563.988 140.176 564.132 140.704 564.132 141.28C564.132 141.877 563.977 142.405 563.668 142.864C563.369 143.312 562.969 143.659 562.468 143.904C563.076 144.128 563.556 144.496 563.908 145.008C564.26 145.509 564.436 146.101 564.436 146.784C564.436 147.477 564.26 148.091 563.908 148.624C563.556 149.157 563.065 149.568 562.436 149.856C561.806 150.144 561.092 150.288 560.292 150.288C559.492 150.288 558.777 150.144 558.148 149.856C557.529 149.568 557.044 149.157 556.692 148.624C556.34 148.091 556.164 147.477 556.164 146.784C556.164 146.091 556.34 145.493 556.692 144.992C557.044 144.491 557.518 144.128 558.116 143.904ZM562.388 141.504C562.388 140.907 562.201 140.448 561.828 140.128C561.454 139.808 560.942 139.648 560.292 139.648C559.652 139.648 559.145 139.808 558.772 140.128C558.398 140.448 558.212 140.912 558.212 141.52C558.212 142.053 558.404 142.491 558.788 142.832C559.182 143.163 559.684 143.328 560.292 143.328C560.9 143.328 561.401 143.157 561.796 142.816C562.19 142.475 562.388 142.037 562.388 141.504ZM560.292 144.704C559.588 144.704 559.012 144.88 558.564 145.232C558.126 145.573 557.908 146.069 557.908 146.72C557.908 147.328 558.121 147.824 558.548 148.208C558.974 148.581 559.556 148.768 560.292 148.768C561.017 148.768 561.588 148.576 562.004 148.192C562.43 147.808 562.644 147.317 562.644 146.72C562.644 146.08 562.425 145.584 561.988 145.232C561.561 144.88 560.996 144.704 560.292 144.704ZM573.743 139.744L569.295 150H567.455L571.951 139.936H566.031V138.384H573.743V139.744ZM575.08 147.568V146.192L580.456 138.48H582.664V145.984H584.152V147.568H582.664V150H580.872V147.568H575.08ZM580.952 140.336L577.176 145.984H580.952V140.336ZM592.671 143.44V144.976H586.095V143.44H592.671ZM596.031 147.52C597.055 146.635 597.86 145.909 598.447 145.344C599.044 144.768 599.54 144.171 599.935 143.552C600.329 142.933 600.527 142.315 600.527 141.696C600.527 141.056 600.372 140.555 600.063 140.192C599.764 139.829 599.289 139.648 598.639 139.648C598.009 139.648 597.519 139.851 597.167 140.256C596.825 140.651 596.644 141.184 596.623 141.856H594.863C594.895 140.64 595.257 139.712 595.951 139.072C596.655 138.421 597.545 138.096 598.623 138.096C599.785 138.096 600.692 138.416 601.343 139.056C602.004 139.696 602.335 140.549 602.335 141.616C602.335 142.384 602.137 143.125 601.743 143.84C601.359 144.544 600.895 145.179 600.351 145.744C599.817 146.299 599.135 146.944 598.303 147.68L597.583 148.32H602.655V149.84H594.879V148.512L596.031 147.52ZM605.265 147.52C606.289 146.635 607.094 145.909 607.681 145.344C608.278 144.768 608.774 144.171 609.169 143.552C609.564 142.933 609.761 142.315 609.761 141.696C609.761 141.056 609.606 140.555 609.297 140.192C608.998 139.829 608.524 139.648 607.873 139.648C607.244 139.648 606.753 139.851 606.401 140.256C606.06 140.651 605.878 141.184 605.857 141.856H604.097C604.129 140.64 604.492 139.712 605.185 139.072C605.889 138.421 606.78 138.096 607.857 138.096C609.02 138.096 609.926 138.416 610.577 139.056C611.238 139.696 611.569 140.549 611.569 141.616C611.569 142.384 611.372 143.125 610.977 143.84C610.593 144.544 610.129 145.179 609.585 145.744C609.052 146.299 608.369 146.944 607.537 147.68L606.817 148.32H611.889V149.84H604.113V148.512L605.265 147.52ZM614.499 147.52C615.523 146.635 616.329 145.909 616.915 145.344C617.513 144.768 618.009 144.171 618.403 143.552C618.798 142.933 618.995 142.315 618.995 141.696C618.995 141.056 618.841 140.555 618.531 140.192C618.233 139.829 617.758 139.648 617.107 139.648C616.478 139.648 615.987 139.851 615.635 140.256C615.294 140.651 615.113 141.184 615.091 141.856H613.331C613.363 140.64 613.726 139.712 614.419 139.072C615.123 138.421 616.014 138.096 617.091 138.096C618.254 138.096 619.161 138.416 619.811 139.056C620.473 139.696 620.803 140.549 620.803 141.616C620.803 142.384 620.606 143.125 620.211 143.84C619.827 144.544 619.363 145.179 618.819 145.744C618.286 146.299 617.603 146.944 616.771 147.68L616.051 148.32H621.123V149.84H613.347V148.512L614.499 147.52ZM622.726 144.016C622.726 142.171 623.035 140.731 623.654 139.696C624.283 138.651 625.36 138.128 626.886 138.128C628.411 138.128 629.483 138.651 630.102 139.696C630.731 140.731 631.046 142.171 631.046 144.016C631.046 145.883 630.731 147.344 630.102 148.4C629.483 149.445 628.411 149.968 626.886 149.968C625.36 149.968 624.283 149.445 623.654 148.4C623.035 147.344 622.726 145.883 622.726 144.016ZM629.254 144.016C629.254 143.152 629.195 142.421 629.078 141.824C628.971 141.227 628.747 140.741 628.406 140.368C628.064 139.984 627.558 139.792 626.886 139.792C626.214 139.792 625.707 139.984 625.366 140.368C625.024 140.741 624.795 141.227 624.678 141.824C624.571 142.421 624.518 143.152 624.518 144.016C624.518 144.912 624.571 145.664 624.678 146.272C624.784 146.88 625.008 147.371 625.35 147.744C625.702 148.117 626.214 148.304 626.886 148.304C627.558 148.304 628.064 148.117 628.406 147.744C628.758 147.371 628.987 146.88 629.094 146.272C629.2 145.664 629.254 144.912 629.254 144.016Z" fill="#F3742B"/>
<rect x="408.5" y="184.5" width="301" height="55" fill="#FFD4B8"/>
<rect x="408.5" y="184.5" width="301" height="55" stroke="#F3742B"/>
<path d="M511.14 216.347L507.753 215.96C507.355 215.914 506.952 215.958 506.573 216.089C506.194 216.221 505.85 216.437 505.567 216.72L503.113 219.174C499.328 217.249 496.252 214.172 494.327 210.387L496.793 207.92C497.367 207.347 497.647 206.547 497.553 205.734L497.167 202.374C497.091 201.723 496.779 201.123 496.29 200.688C495.8 200.253 495.168 200.013 494.513 200.014H492.207C490.7 200.014 489.447 201.267 489.54 202.774C490.247 214.16 499.353 223.254 510.727 223.96C512.233 224.054 513.487 222.8 513.487 221.294V218.987C513.5 217.64 512.487 216.507 511.14 216.347Z" fill="#F3742B"/>
<path d="M522.428 209.216C522.492 208.224 522.871 207.451 523.564 206.896C524.268 206.341 525.164 206.064 526.252 206.064C526.999 206.064 527.644 206.197 528.188 206.464C528.732 206.731 529.143 207.093 529.42 207.552C529.697 208.011 529.836 208.528 529.836 209.104C529.836 209.765 529.66 210.331 529.308 210.8C528.956 211.269 528.535 211.584 528.044 211.744V211.808C528.673 212 529.164 212.352 529.516 212.864C529.868 213.365 530.044 214.011 530.044 214.8C530.044 215.429 529.9 215.989 529.612 216.48C529.324 216.971 528.897 217.36 528.332 217.648C527.767 217.925 527.089 218.064 526.3 218.064C525.148 218.064 524.199 217.771 523.452 217.184C522.716 216.587 522.321 215.733 522.268 214.624H524.028C524.071 215.189 524.289 215.653 524.684 216.016C525.079 216.368 525.612 216.544 526.284 216.544C526.935 216.544 527.436 216.368 527.788 216.016C528.14 215.653 528.316 215.189 528.316 214.624C528.316 213.877 528.076 213.349 527.596 213.04C527.127 212.72 526.401 212.56 525.42 212.56H525.004V211.056H525.436C526.3 211.045 526.956 210.901 527.404 210.624C527.863 210.347 528.092 209.909 528.092 209.312C528.092 208.8 527.927 208.395 527.596 208.096C527.265 207.787 526.796 207.632 526.188 207.632C525.591 207.632 525.127 207.787 524.796 208.096C524.465 208.395 524.268 208.768 524.204 209.216H522.428ZM531.72 208V206.336H535.048V218H533.208V208H531.72ZM538.562 215.52C539.586 214.635 540.391 213.909 540.978 213.344C541.575 212.768 542.071 212.171 542.466 211.552C542.86 210.933 543.058 210.315 543.058 209.696C543.058 209.056 542.903 208.555 542.594 208.192C542.295 207.829 541.82 207.648 541.17 207.648C540.54 207.648 540.05 207.851 539.698 208.256C539.356 208.651 539.175 209.184 539.154 209.856H537.394C537.426 208.64 537.788 207.712 538.482 207.072C539.186 206.421 540.076 206.096 541.154 206.096C542.316 206.096 543.223 206.416 543.874 207.056C544.535 207.696 544.866 208.549 544.866 209.616C544.866 210.384 544.668 211.125 544.274 211.84C543.89 212.544 543.426 213.179 542.882 213.744C542.348 214.299 541.666 214.944 540.834 215.68L540.114 216.32H545.186V217.84H537.41V216.512L538.562 215.52ZM553.796 211.44V212.976H547.22V211.44H553.796ZM558.116 211.904C557.006 211.349 556.452 210.475 556.452 209.28C556.452 208.704 556.596 208.176 556.884 207.696C557.172 207.216 557.604 206.837 558.18 206.56C558.756 206.272 559.46 206.128 560.292 206.128C561.113 206.128 561.812 206.272 562.388 206.56C562.974 206.837 563.411 207.216 563.7 207.696C563.988 208.176 564.132 208.704 564.132 209.28C564.132 209.877 563.977 210.405 563.668 210.864C563.369 211.312 562.969 211.659 562.468 211.904C563.076 212.128 563.556 212.496 563.908 213.008C564.26 213.509 564.436 214.101 564.436 214.784C564.436 215.477 564.26 216.091 563.908 216.624C563.556 217.157 563.065 217.568 562.436 217.856C561.806 218.144 561.092 218.288 560.292 218.288C559.492 218.288 558.777 218.144 558.148 217.856C557.529 217.568 557.044 217.157 556.692 216.624C556.34 216.091 556.164 215.477 556.164 214.784C556.164 214.091 556.34 213.493 556.692 212.992C557.044 212.491 557.518 212.128 558.116 211.904ZM562.388 209.504C562.388 208.907 562.201 208.448 561.828 208.128C561.454 207.808 560.942 207.648 560.292 207.648C559.652 207.648 559.145 207.808 558.772 208.128C558.398 208.448 558.212 208.912 558.212 209.52C558.212 210.053 558.404 210.491 558.788 210.832C559.182 211.163 559.684 211.328 560.292 211.328C560.9 211.328 561.401 211.157 561.796 210.816C562.19 210.475 562.388 210.037 562.388 209.504ZM560.292 212.704C559.588 212.704 559.012 212.88 558.564 213.232C558.126 213.573 557.908 214.069 557.908 214.72C557.908 215.328 558.121 215.824 558.548 216.208C558.974 216.581 559.556 216.768 560.292 216.768C561.017 216.768 561.588 216.576 562.004 216.192C562.43 215.808 562.644 215.317 562.644 214.72C562.644 214.08 562.425 213.584 561.988 213.232C561.561 212.88 560.996 212.704 560.292 212.704ZM573.743 207.744L569.295 218H567.455L571.951 207.936H566.031V206.384H573.743V207.744ZM575.08 215.568V214.192L580.456 206.48H582.664V213.984H584.152V215.568H582.664V218H580.872V215.568H575.08ZM580.952 208.336L577.176 213.984H580.952V208.336ZM592.671 211.44V212.976H586.095V211.44H592.671ZM596.031 215.52C597.055 214.635 597.86 213.909 598.447 213.344C599.044 212.768 599.54 212.171 599.935 211.552C600.329 210.933 600.527 210.315 600.527 209.696C600.527 209.056 600.372 208.555 600.063 208.192C599.764 207.829 599.289 207.648 598.639 207.648C598.009 207.648 597.519 207.851 597.167 208.256C596.825 208.651 596.644 209.184 596.623 209.856H594.863C594.895 208.64 595.257 207.712 595.951 207.072C596.655 206.421 597.545 206.096 598.623 206.096C599.785 206.096 600.692 206.416 601.343 207.056C602.004 207.696 602.335 208.549 602.335 209.616C602.335 210.384 602.137 211.125 601.743 211.84C601.359 212.544 600.895 213.179 600.351 213.744C599.817 214.299 599.135 214.944 598.303 215.68L597.583 216.32H602.655V217.84H594.879V216.512L596.031 215.52ZM605.265 215.52C606.289 214.635 607.094 213.909 607.681 213.344C608.278 212.768 608.774 212.171 609.169 211.552C609.564 210.933 609.761 210.315 609.761 209.696C609.761 209.056 609.606 208.555 609.297 208.192C608.998 207.829 608.524 207.648 607.873 207.648C607.244 207.648 606.753 207.851 606.401 208.256C606.06 208.651 605.878 209.184 605.857 209.856H604.097C604.129 208.64 604.492 207.712 605.185 207.072C605.889 206.421 606.78 206.096 607.857 206.096C609.02 206.096 609.926 206.416 610.577 207.056C611.238 207.696 611.569 208.549 611.569 209.616C611.569 210.384 611.372 211.125 610.977 211.84C610.593 212.544 610.129 213.179 609.585 213.744C609.052 214.299 608.369 214.944 607.537 215.68L606.817 216.32H611.889V217.84H604.113V216.512L605.265 215.52ZM614.499 215.52C615.523 214.635 616.329 213.909 616.915 213.344C617.513 212.768 618.009 212.171 618.403 211.552C618.798 210.933 618.995 210.315 618.995 209.696C618.995 209.056 618.841 208.555 618.531 208.192C618.233 207.829 617.758 207.648 617.107 207.648C616.478 207.648 615.987 207.851 615.635 208.256C615.294 208.651 615.113 209.184 615.091 209.856H613.331C613.363 208.64 613.726 207.712 614.419 207.072C615.123 206.421 616.014 206.096 617.091 206.096C618.254 206.096 619.161 206.416 619.811 207.056C620.473 207.696 620.803 208.549 620.803 209.616C620.803 210.384 620.606 211.125 620.211 211.84C619.827 212.544 619.363 213.179 618.819 213.744C618.286 214.299 617.603 214.944 616.771 215.68L616.051 216.32H621.123V217.84H613.347V216.512L614.499 215.52ZM622.726 212.016C622.726 210.171 623.035 208.731 623.654 207.696C624.283 206.651 625.36 206.128 626.886 206.128C628.411 206.128 629.483 206.651 630.102 207.696C630.731 208.731 631.046 210.171 631.046 212.016C631.046 213.883 630.731 215.344 630.102 216.4C629.483 217.445 628.411 217.968 626.886 217.968C625.36 217.968 624.283 217.445 623.654 216.4C623.035 215.344 622.726 213.883 622.726 212.016ZM629.254 212.016C629.254 211.152 629.195 210.421 629.078 209.824C628.971 209.227 628.747 208.741 628.406 208.368C628.064 207.984 627.558 207.792 626.886 207.792C626.214 207.792 625.707 207.984 625.366 208.368C625.024 208.741 624.795 209.227 624.678 209.824C624.571 210.421 624.518 211.152 624.518 212.016C624.518 212.912 624.571 213.664 624.678 214.272C624.784 214.88 625.008 215.371 625.35 215.744C625.702 216.117 626.214 216.304 626.886 216.304C627.558 216.304 628.064 216.117 628.406 215.744C628.758 215.371 628.987 214.88 629.094 214.272C629.2 213.664 629.254 212.912 629.254 212.016Z" fill="#F3742B"/>
<rect width="302" height="56" transform="translate(408 252)" fill="#E1D9D4"/>
<path d="M511.14 284.347L507.753 283.96C507.355 283.914 506.952 283.958 506.573 284.089C506.194 284.221 505.85 284.437 505.567 284.72L503.113 287.174C499.328 285.249 496.252 282.172 494.327 278.387L496.793 275.92C497.367 275.347 497.647 274.547 497.553 273.734L497.167 270.374C497.091 269.723 496.779 269.123 496.29 268.688C495.8 268.253 495.168 268.013 494.513 268.014H492.207C490.7 268.014 489.447 269.267 489.54 270.774C490.247 282.16 499.353 291.254 510.727 291.96C512.233 292.054 513.487 290.8 513.487 289.294V286.987C513.5 285.64 512.487 284.507 511.14 284.347Z" fill="#B6ACA7"/>
<path d="M522.428 277.216C522.492 276.224 522.871 275.451 523.564 274.896C524.268 274.341 525.164 274.064 526.252 274.064C526.999 274.064 527.644 274.197 528.188 274.464C528.732 274.731 529.143 275.093 529.42 275.552C529.697 276.011 529.836 276.528 529.836 277.104C529.836 277.765 529.66 278.331 529.308 278.8C528.956 279.269 528.535 279.584 528.044 279.744V279.808C528.673 280 529.164 280.352 529.516 280.864C529.868 281.365 530.044 282.011 530.044 282.8C530.044 283.429 529.9 283.989 529.612 284.48C529.324 284.971 528.897 285.36 528.332 285.648C527.767 285.925 527.089 286.064 526.3 286.064C525.148 286.064 524.199 285.771 523.452 285.184C522.716 284.587 522.321 283.733 522.268 282.624H524.028C524.071 283.189 524.289 283.653 524.684 284.016C525.079 284.368 525.612 284.544 526.284 284.544C526.935 284.544 527.436 284.368 527.788 284.016C528.14 283.653 528.316 283.189 528.316 282.624C528.316 281.877 528.076 281.349 527.596 281.04C527.127 280.72 526.401 280.56 525.42 280.56H525.004V279.056H525.436C526.3 279.045 526.956 278.901 527.404 278.624C527.863 278.347 528.092 277.909 528.092 277.312C528.092 276.8 527.927 276.395 527.596 276.096C527.265 275.787 526.796 275.632 526.188 275.632C525.591 275.632 525.127 275.787 524.796 276.096C524.465 276.395 524.268 276.768 524.204 277.216H522.428ZM531.72 276V274.336H535.048V286H533.208V276H531.72ZM538.562 283.52C539.586 282.635 540.391 281.909 540.978 281.344C541.575 280.768 542.071 280.171 542.466 279.552C542.86 278.933 543.058 278.315 543.058 277.696C543.058 277.056 542.903 276.555 542.594 276.192C542.295 275.829 541.82 275.648 541.17 275.648C540.54 275.648 540.05 275.851 539.698 276.256C539.356 276.651 539.175 277.184 539.154 277.856H537.394C537.426 276.64 537.788 275.712 538.482 275.072C539.186 274.421 540.076 274.096 541.154 274.096C542.316 274.096 543.223 274.416 543.874 275.056C544.535 275.696 544.866 276.549 544.866 277.616C544.866 278.384 544.668 279.125 544.274 279.84C543.89 280.544 543.426 281.179 542.882 281.744C542.348 282.299 541.666 282.944 540.834 283.68L540.114 284.32H545.186V285.84H537.41V284.512L538.562 283.52ZM553.796 279.44V280.976H547.22V279.44H553.796ZM558.116 279.904C557.006 279.349 556.452 278.475 556.452 277.28C556.452 276.704 556.596 276.176 556.884 275.696C557.172 275.216 557.604 274.837 558.18 274.56C558.756 274.272 559.46 274.128 560.292 274.128C561.113 274.128 561.812 274.272 562.388 274.56C562.974 274.837 563.411 275.216 563.7 275.696C563.988 276.176 564.132 276.704 564.132 277.28C564.132 277.877 563.977 278.405 563.668 278.864C563.369 279.312 562.969 279.659 562.468 279.904C563.076 280.128 563.556 280.496 563.908 281.008C564.26 281.509 564.436 282.101 564.436 282.784C564.436 283.477 564.26 284.091 563.908 284.624C563.556 285.157 563.065 285.568 562.436 285.856C561.806 286.144 561.092 286.288 560.292 286.288C559.492 286.288 558.777 286.144 558.148 285.856C557.529 285.568 557.044 285.157 556.692 284.624C556.34 284.091 556.164 283.477 556.164 282.784C556.164 282.091 556.34 281.493 556.692 280.992C557.044 280.491 557.518 280.128 558.116 279.904ZM562.388 277.504C562.388 276.907 562.201 276.448 561.828 276.128C561.454 275.808 560.942 275.648 560.292 275.648C559.652 275.648 559.145 275.808 558.772 276.128C558.398 276.448 558.212 276.912 558.212 277.52C558.212 278.053 558.404 278.491 558.788 278.832C559.182 279.163 559.684 279.328 560.292 279.328C560.9 279.328 561.401 279.157 561.796 278.816C562.19 278.475 562.388 278.037 562.388 277.504ZM560.292 280.704C559.588 280.704 559.012 280.88 558.564 281.232C558.126 281.573 557.908 282.069 557.908 282.72C557.908 283.328 558.121 283.824 558.548 284.208C558.974 284.581 559.556 284.768 560.292 284.768C561.017 284.768 561.588 284.576 562.004 284.192C562.43 283.808 562.644 283.317 562.644 282.72C562.644 282.08 562.425 281.584 561.988 281.232C561.561 280.88 560.996 280.704 560.292 280.704ZM573.743 275.744L569.295 286H567.455L571.951 275.936H566.031V274.384H573.743V275.744ZM575.08 283.568V282.192L580.456 274.48H582.664V281.984H584.152V283.568H582.664V286H580.872V283.568H575.08ZM580.952 276.336L577.176 281.984H580.952V276.336ZM592.671 279.44V280.976H586.095V279.44H592.671ZM596.031 283.52C597.055 282.635 597.86 281.909 598.447 281.344C599.044 280.768 599.54 280.171 599.935 279.552C600.329 278.933 600.527 278.315 600.527 277.696C600.527 277.056 600.372 276.555 600.063 276.192C599.764 275.829 599.289 275.648 598.639 275.648C598.009 275.648 597.519 275.851 597.167 276.256C596.825 276.651 596.644 277.184 596.623 277.856H594.863C594.895 276.64 595.257 275.712 595.951 275.072C596.655 274.421 597.545 274.096 598.623 274.096C599.785 274.096 600.692 274.416 601.343 275.056C602.004 275.696 602.335 276.549 602.335 277.616C602.335 278.384 602.137 279.125 601.743 279.84C601.359 280.544 600.895 281.179 600.351 281.744C599.817 282.299 599.135 282.944 598.303 283.68L597.583 284.32H602.655V285.84H594.879V284.512L596.031 283.52ZM605.265 283.52C606.289 282.635 607.094 281.909 607.681 281.344C608.278 280.768 608.774 280.171 609.169 279.552C609.564 278.933 609.761 278.315 609.761 277.696C609.761 277.056 609.606 276.555 609.297 276.192C608.998 275.829 608.524 275.648 607.873 275.648C607.244 275.648 606.753 275.851 606.401 276.256C606.06 276.651 605.878 277.184 605.857 277.856H604.097C604.129 276.64 604.492 275.712 605.185 275.072C605.889 274.421 606.78 274.096 607.857 274.096C609.02 274.096 609.926 274.416 610.577 275.056C611.238 275.696 611.569 276.549 611.569 277.616C611.569 278.384 611.372 279.125 610.977 279.84C610.593 280.544 610.129 281.179 609.585 281.744C609.052 282.299 608.369 282.944 607.537 283.68L606.817 284.32H611.889V285.84H604.113V284.512L605.265 283.52ZM614.499 283.52C615.523 282.635 616.329 281.909 616.915 281.344C617.513 280.768 618.009 280.171 618.403 279.552C618.798 278.933 618.995 278.315 618.995 277.696C618.995 277.056 618.841 276.555 618.531 276.192C618.233 275.829 617.758 275.648 617.107 275.648C616.478 275.648 615.987 275.851 615.635 276.256C615.294 276.651 615.113 277.184 615.091 277.856H613.331C613.363 276.64 613.726 275.712 614.419 275.072C615.123 274.421 616.014 274.096 617.091 274.096C618.254 274.096 619.161 274.416 619.811 275.056C620.473 275.696 620.803 276.549 620.803 277.616C620.803 278.384 620.606 279.125 620.211 279.84C619.827 280.544 619.363 281.179 618.819 281.744C618.286 282.299 617.603 282.944 616.771 283.68L616.051 284.32H621.123V285.84H613.347V284.512L614.499 283.52ZM622.726 280.016C622.726 278.171 623.035 276.731 623.654 275.696C624.283 274.651 625.36 274.128 626.886 274.128C628.411 274.128 629.483 274.651 630.102 275.696C630.731 276.731 631.046 278.171 631.046 280.016C631.046 281.883 630.731 283.344 630.102 284.4C629.483 285.445 628.411 285.968 626.886 285.968C625.36 285.968 624.283 285.445 623.654 284.4C623.035 283.344 622.726 281.883 622.726 280.016ZM629.254 280.016C629.254 279.152 629.195 278.421 629.078 277.824C628.971 277.227 628.747 276.741 628.406 276.368C628.064 275.984 627.558 275.792 626.886 275.792C626.214 275.792 625.707 275.984 625.366 276.368C625.024 276.741 624.795 277.227 624.678 277.824C624.571 278.421 624.518 279.152 624.518 280.016C624.518 280.912 624.571 281.664 624.678 282.272C624.784 282.88 625.008 283.371 625.35 283.744C625.702 284.117 626.214 284.304 626.886 284.304C627.558 284.304 628.064 284.117 628.406 283.744C628.758 283.371 628.987 282.88 629.094 282.272C629.2 281.664 629.254 280.912 629.254 280.016Z" fill="#B6ACA7"/>
<rect x="800" width="432" height="356" rx="8" fill="#D8F520" fill-opacity="0.19"/>
<rect x="865.5" y="127.5" width="301" height="169" fill="#FFFDFD"/>
<rect x="865.5" y="127.5" width="301" height="169" stroke="#FFD4B8"/>
<path d="M934.505 187.824C934.601 186.336 935.169 185.176 936.209 184.344C937.265 183.512 938.609 183.096 940.241 183.096C941.361 183.096 942.329 183.296 943.145 183.696C943.961 184.096 944.577 184.64 944.993 185.328C945.409 186.016 945.617 186.792 945.617 187.656C945.617 188.648 945.353 189.496 944.825 190.2C944.297 190.904 943.665 191.376 942.929 191.616V191.712C943.873 192 944.609 192.528 945.137 193.296C945.665 194.048 945.929 195.016 945.929 196.2C945.929 197.144 945.713 197.984 945.281 198.72C944.849 199.456 944.209 200.04 943.361 200.472C942.513 200.888 941.497 201.096 940.313 201.096C938.585 201.096 937.161 200.656 936.041 199.776C934.937 198.88 934.345 197.6 934.265 195.936H936.905C936.969 196.784 937.297 197.48 937.889 198.024C938.481 198.552 939.281 198.816 940.289 198.816C941.265 198.816 942.017 198.552 942.545 198.024C943.073 197.48 943.337 196.784 943.337 195.936C943.337 194.816 942.977 194.024 942.257 193.56C941.553 193.08 940.465 192.84 938.993 192.84H938.369V190.584H939.017C940.313 190.568 941.297 190.352 941.969 189.936C942.657 189.52 943.001 188.864 943.001 187.968C943.001 187.2 942.753 186.592 942.257 186.144C941.761 185.68 941.057 185.448 940.145 185.448C939.249 185.448 938.553 185.68 938.057 186.144C937.561 186.592 937.265 187.152 937.169 187.824H934.505ZM948.443 186V183.504H953.435V201H950.675V186H948.443ZM958.706 197.28C960.242 195.952 961.45 194.864 962.33 194.016C963.226 193.152 963.97 192.256 964.562 191.328C965.154 190.4 965.45 189.472 965.45 188.544C965.45 187.584 965.218 186.832 964.754 186.288C964.306 185.744 963.594 185.472 962.618 185.472C961.674 185.472 960.938 185.776 960.41 186.384C959.898 186.976 959.626 187.776 959.594 188.784H956.954C957.002 186.96 957.546 185.568 958.586 184.608C959.642 183.632 960.978 183.144 962.594 183.144C964.338 183.144 965.698 183.624 966.674 184.584C967.666 185.544 968.162 186.824 968.162 188.424C968.162 189.576 967.866 190.688 967.274 191.76C966.698 192.816 966.002 193.768 965.186 194.616C964.386 195.448 963.362 196.416 962.114 197.52L961.034 198.48H968.642V200.76H956.978V198.768L958.706 197.28ZM981.557 191.16V193.464H971.693V191.16H981.557ZM988.037 191.856C986.373 191.024 985.541 189.712 985.541 187.92C985.541 187.056 985.757 186.264 986.189 185.544C986.621 184.824 987.269 184.256 988.133 183.84C988.997 183.408 990.053 183.192 991.301 183.192C992.533 183.192 993.581 183.408 994.445 183.84C995.325 184.256 995.981 184.824 996.413 185.544C996.845 186.264 997.061 187.056 997.061 187.92C997.061 188.816 996.829 189.608 996.365 190.296C995.917 190.968 995.317 191.488 994.565 191.856C995.477 192.192 996.197 192.744 996.725 193.512C997.253 194.264 997.517 195.152 997.517 196.176C997.517 197.216 997.253 198.136 996.725 198.936C996.197 199.736 995.461 200.352 994.517 200.784C993.573 201.216 992.501 201.432 991.301 201.432C990.101 201.432 989.029 201.216 988.085 200.784C987.157 200.352 986.429 199.736 985.901 198.936C985.373 198.136 985.109 197.216 985.109 196.176C985.109 195.136 985.373 194.24 985.901 193.488C986.429 192.736 987.141 192.192 988.037 191.856ZM994.445 188.256C994.445 187.36 994.165 186.672 993.605 186.192C993.045 185.712 992.277 185.472 991.301 185.472C990.341 185.472 989.581 185.712 989.021 186.192C988.461 186.672 988.181 187.368 988.181 188.28C988.181 189.08 988.469 189.736 989.045 190.248C989.637 190.744 990.389 190.992 991.301 190.992C992.213 190.992 992.965 190.736 993.557 190.224C994.149 189.712 994.445 189.056 994.445 188.256ZM991.301 193.056C990.245 193.056 989.381 193.32 988.709 193.848C988.053 194.36 987.725 195.104 987.725 196.08C987.725 196.992 988.045 197.736 988.685 198.312C989.325 198.872 990.197 199.152 991.301 199.152C992.389 199.152 993.245 198.864 993.869 198.288C994.509 197.712 994.829 196.976 994.829 196.08C994.829 195.12 994.501 194.376 993.845 193.848C993.205 193.32 992.357 193.056 991.301 193.056ZM1011.48 185.616L1004.81 201H1002.05L1008.79 185.904H999.909V183.576H1011.48V185.616ZM1013.48 197.352V195.288L1021.55 183.72H1024.86V194.976H1027.09V197.352H1024.86V201H1022.17V197.352H1013.48ZM1022.29 186.504L1016.63 194.976H1022.29V186.504ZM1039.87 191.16V193.464H1030.01V191.16H1039.87ZM1044.91 197.28C1046.45 195.952 1047.65 194.864 1048.53 194.016C1049.43 193.152 1050.17 192.256 1050.77 191.328C1051.36 190.4 1051.65 189.472 1051.65 188.544C1051.65 187.584 1051.42 186.832 1050.96 186.288C1050.51 185.744 1049.8 185.472 1048.82 185.472C1047.88 185.472 1047.14 185.776 1046.61 186.384C1046.1 186.976 1045.83 187.776 1045.8 188.784H1043.16C1043.21 186.96 1043.75 185.568 1044.79 184.608C1045.85 183.632 1047.18 183.144 1048.8 183.144C1050.54 183.144 1051.9 183.624 1052.88 184.584C1053.87 185.544 1054.37 186.824 1054.37 188.424C1054.37 189.576 1054.07 190.688 1053.48 191.76C1052.9 192.816 1052.21 193.768 1051.39 194.616C1050.59 195.448 1049.57 196.416 1048.32 197.52L1047.24 198.48H1054.85V200.76H1043.18V198.768L1044.91 197.28ZM1058.76 197.28C1060.3 195.952 1061.5 194.864 1062.38 194.016C1063.28 193.152 1064.02 192.256 1064.62 191.328C1065.21 190.4 1065.5 189.472 1065.5 188.544C1065.5 187.584 1065.27 186.832 1064.81 186.288C1064.36 185.744 1063.65 185.472 1062.67 185.472C1061.73 185.472 1060.99 185.776 1060.46 186.384C1059.95 186.976 1059.68 187.776 1059.65 188.784H1057.01C1057.06 186.96 1057.6 185.568 1058.64 184.608C1059.7 183.632 1061.03 183.144 1062.65 183.144C1064.39 183.144 1065.75 183.624 1066.73 184.584C1067.72 185.544 1068.22 186.824 1068.22 188.424C1068.22 189.576 1067.92 190.688 1067.33 191.76C1066.75 192.816 1066.06 193.768 1065.24 194.616C1064.44 195.448 1063.42 196.416 1062.17 197.52L1061.09 198.48H1068.7V200.76H1057.03V198.768L1058.76 197.28ZM1072.61 197.28C1074.15 195.952 1075.36 194.864 1076.24 194.016C1077.13 193.152 1077.88 192.256 1078.47 191.328C1079.06 190.4 1079.36 189.472 1079.36 188.544C1079.36 187.584 1079.12 186.832 1078.66 186.288C1078.21 185.744 1077.5 185.472 1076.52 185.472C1075.58 185.472 1074.84 185.776 1074.32 186.384C1073.8 186.976 1073.53 187.776 1073.5 188.784H1070.86C1070.91 186.96 1071.45 185.568 1072.49 184.608C1073.55 183.632 1074.88 183.144 1076.5 183.144C1078.24 183.144 1079.6 183.624 1080.58 184.584C1081.57 185.544 1082.07 186.824 1082.07 188.424C1082.07 189.576 1081.77 190.688 1081.18 191.76C1080.6 192.816 1079.91 193.768 1079.09 194.616C1078.29 195.448 1077.27 196.416 1076.02 197.52L1074.94 198.48H1082.55V200.76H1070.88V198.768L1072.61 197.28ZM1084.95 192.024C1084.95 189.256 1085.42 187.096 1086.34 185.544C1087.29 183.976 1088.9 183.192 1091.19 183.192C1093.48 183.192 1095.09 183.976 1096.02 185.544C1096.96 187.096 1097.43 189.256 1097.43 192.024C1097.43 194.824 1096.96 197.016 1096.02 198.6C1095.09 200.168 1093.48 200.952 1091.19 200.952C1088.9 200.952 1087.29 200.168 1086.34 198.6C1085.42 197.016 1084.95 194.824 1084.95 192.024ZM1094.74 192.024C1094.74 190.728 1094.66 189.632 1094.48 188.736C1094.32 187.84 1093.98 187.112 1093.47 186.552C1092.96 185.976 1092.2 185.688 1091.19 185.688C1090.18 185.688 1089.42 185.976 1088.91 186.552C1088.4 187.112 1088.06 187.84 1087.88 188.736C1087.72 189.632 1087.64 190.728 1087.64 192.024C1087.64 193.368 1087.72 194.496 1087.88 195.408C1088.04 196.32 1088.38 197.056 1088.89 197.616C1089.42 198.176 1090.18 198.456 1091.19 198.456C1092.2 198.456 1092.96 198.176 1093.47 197.616C1094 197.056 1094.34 196.32 1094.5 195.408C1094.66 194.496 1094.74 193.368 1094.74 192.024Z" fill="#F3742B"/>
<path d="M974.396 238.02C974.396 236.66 974.71 235.44 975.336 234.36C975.976 233.28 976.836 232.44 977.916 231.84C979.01 231.227 980.203 230.92 981.496 230.92C982.976 230.92 984.29 231.287 985.436 232.02C986.596 232.74 987.436 233.767 987.956 235.1H985.216C984.856 234.367 984.356 233.82 983.716 233.46C983.076 233.1 982.336 232.92 981.496 232.92C980.576 232.92 979.756 233.127 979.036 233.54C978.316 233.953 977.75 234.547 977.336 235.32C976.936 236.093 976.736 236.993 976.736 238.02C976.736 239.047 976.936 239.947 977.336 240.72C977.75 241.493 978.316 242.093 979.036 242.52C979.756 242.933 980.576 243.14 981.496 243.14C982.336 243.14 983.076 242.96 983.716 242.6C984.356 242.24 984.856 241.693 985.216 240.96H987.956C987.436 242.293 986.596 243.32 985.436 244.04C984.29 244.76 982.976 245.12 981.496 245.12C980.19 245.12 978.996 244.82 977.916 244.22C976.836 243.607 975.976 242.76 975.336 241.68C974.71 240.6 974.396 239.38 974.396 238.02ZM999.005 242.16H993.185L992.185 245H989.805L994.785 231.08H997.425L1002.41 245H1000.01L999.005 242.16ZM998.365 240.3L996.105 233.84L993.825 240.3H998.365ZM1006.85 243.16H1011.55V245H1004.57V231.1H1006.85V243.16ZM1015.74 243.16H1020.44V245H1013.46V231.1H1015.74V243.16ZM1029.8 231.1V239.96C1029.8 241.013 1030.07 241.807 1030.62 242.34C1031.18 242.873 1031.95 243.14 1032.94 243.14C1033.94 243.14 1034.71 242.873 1035.26 242.34C1035.82 241.807 1036.1 241.013 1036.1 239.96V231.1H1038.38V239.92C1038.38 241.053 1038.13 242.013 1037.64 242.8C1037.15 243.587 1036.49 244.173 1035.66 244.56C1034.83 244.947 1033.92 245.14 1032.92 245.14C1031.92 245.14 1031.01 244.947 1030.18 244.56C1029.37 244.173 1028.72 243.587 1028.24 242.8C1027.76 242.013 1027.52 241.053 1027.52 239.92V231.1H1029.8ZM1045.93 245.14C1044.99 245.14 1044.15 244.98 1043.41 244.66C1042.66 244.327 1042.07 243.86 1041.65 243.26C1041.22 242.66 1041.01 241.96 1041.01 241.16H1043.45C1043.5 241.76 1043.73 242.253 1044.15 242.64C1044.57 243.027 1045.17 243.22 1045.93 243.22C1046.71 243.22 1047.33 243.033 1047.77 242.66C1048.21 242.273 1048.43 241.78 1048.43 241.18C1048.43 240.713 1048.29 240.333 1048.01 240.04C1047.74 239.747 1047.4 239.52 1046.99 239.36C1046.59 239.2 1046.03 239.027 1045.31 238.84C1044.4 238.6 1043.66 238.36 1043.09 238.12C1042.53 237.867 1042.05 237.48 1041.65 236.96C1041.25 236.44 1041.05 235.747 1041.05 234.88C1041.05 234.08 1041.25 233.38 1041.65 232.78C1042.05 232.18 1042.61 231.72 1043.33 231.4C1044.05 231.08 1044.88 230.92 1045.83 230.92C1047.17 230.92 1048.27 231.26 1049.13 231.94C1049.99 232.607 1050.47 233.527 1050.57 234.7H1048.05C1048.01 234.193 1047.77 233.76 1047.33 233.4C1046.89 233.04 1046.31 232.86 1045.59 232.86C1044.93 232.86 1044.4 233.027 1043.99 233.36C1043.57 233.693 1043.37 234.173 1043.37 234.8C1043.37 235.227 1043.49 235.58 1043.75 235.86C1044.01 236.127 1044.35 236.34 1044.75 236.5C1045.15 236.66 1045.69 236.833 1046.39 237.02C1047.31 237.273 1048.05 237.527 1048.63 237.78C1049.21 238.033 1049.71 238.427 1050.11 238.96C1050.52 239.48 1050.73 240.18 1050.73 241.06C1050.73 241.767 1050.53 242.433 1050.15 243.06C1049.77 243.687 1049.22 244.193 1048.49 244.58C1047.77 244.953 1046.91 245.14 1045.93 245.14ZM1056.28 231.1L1056.02 240.8H1054.12L1053.86 231.1H1056.28ZM1055.14 245.14C1054.72 245.14 1054.38 245 1054.1 244.72C1053.82 244.44 1053.68 244.093 1053.68 243.68C1053.68 243.267 1053.82 242.92 1054.1 242.64C1054.38 242.36 1054.72 242.22 1055.14 242.22C1055.54 242.22 1055.88 242.36 1056.16 242.64C1056.44 242.92 1056.58 243.267 1056.58 243.68C1056.58 244.093 1056.44 244.44 1056.16 244.72C1055.88 245 1055.54 245.14 1055.14 245.14Z" fill="#0E4AA3"/>
<path d="M1061.66 109C1061.66 134.393 1041.01 155 1015.5 155C989.989 155 969.332 134.393 969.332 109C969.332 83.6074 989.989 63 1015.5 63C1041.01 63 1061.66 83.6074 1061.66 109Z" fill="#F3742B" stroke="#FFFDFD" stroke-width="8"/>
<path d="M1029.46 115.52L1024.38 114.94C1023.78 114.869 1023.18 114.936 1022.61 115.133C1022.04 115.33 1021.53 115.654 1021.1 116.08L1017.42 119.76C1011.74 116.872 1007.13 112.257 1004.24 106.58L1007.94 102.88C1008.8 102.02 1009.22 100.82 1009.08 99.5995L1008.5 94.5595C1008.39 93.5839 1007.92 92.684 1007.18 92.0312C1006.45 91.3785 1005.5 91.0184 1004.52 91.0195H1001.06C998.8 91.0195 996.92 92.8995 997.06 95.1595C998.12 112.24 1011.78 125.88 1028.84 126.94C1031.1 127.08 1032.98 125.2 1032.98 122.94V119.48C1033 117.46 1031.48 115.76 1029.46 115.52Z" fill="white"/>
<rect y="364" width="440" height="172" rx="8" fill="#D8F520" fill-opacity="0.19"/>
<circle cx="94" cy="450" r="32" fill="#F3742B" stroke="#FFD4B8" stroke-width="8"/>
<path d="M80.9688 440.501H105V437.221C105 437.073 104.967 436.927 104.904 436.793C104.841 436.659 104.748 436.541 104.634 436.447C104.52 436.354 104.386 436.286 104.242 436.25C104.099 436.215 103.949 436.211 103.804 436.24L80.8038 440.02C80.6325 440.054 80.4731 440.133 80.3416 440.247C80.21 440.362 80.1107 440.509 80.0538 440.675C80.345 440.559 80.6555 440.5 80.9688 440.501ZM106.969 442.001H80.9688C80.7035 442.001 80.4492 442.106 80.2616 442.294C80.0741 442.481 79.9688 442.736 79.9688 443.001V461.001C79.9688 461.266 80.0741 461.52 80.2616 461.708C80.4492 461.895 80.7035 462.001 80.9688 462.001H106.969C107.234 462.001 107.488 461.895 107.676 461.708C107.863 461.52 107.969 461.266 107.969 461.001V443.001C107.969 442.736 107.863 442.481 107.676 442.294C107.488 442.106 107.234 442.001 106.969 442.001ZM101 454.001C100.604 454.001 100.218 453.883 99.8889 453.664C99.56 453.444 99.3036 453.132 99.1522 452.766C99.0009 452.401 98.9613 451.999 99.0384 451.611C99.1156 451.223 99.3061 450.866 99.5858 450.587C99.8655 450.307 100.222 450.116 100.61 450.039C100.998 449.962 101.4 450.002 101.765 450.153C102.131 450.304 102.443 450.561 102.663 450.89C102.883 451.219 103 451.605 103 452.001C103 452.531 102.789 453.04 102.414 453.415C102.039 453.79 101.53 454.001 101 454.001Z" fill="#FFFDFD"/>
<path d="M79.958 450.219V441.25C79.958 440.479 80.3155 440.095 80.9218 440C83.1218 439.654 87.708 439.469 87.708 439.469C87.708 439.469 87.1874 440.469 85.9999 440.469V442C87.1561 442 87.958 443.469 87.958 443.469L83.3018 448.75L79.958 450.219Z" fill="#FFFDFD"/>
<circle cx="178" cy="450" r="32" fill="#F3742B" stroke="#FFD4B8" stroke-width="8"/>
<path d="M167.993 436.908C168.929 436.575 169.94 436.514 170.91 436.732C171.879 436.95 172.766 437.439 173.468 438.142C174.171 438.845 174.659 439.732 174.877 440.701C175.095 441.671 175.034 442.682 174.7 443.617L190.969 459.885L187.787 463.068L171.518 446.8C170.582 447.134 169.571 447.196 168.601 446.977C167.632 446.759 166.744 446.27 166.041 445.567C165.339 444.864 164.85 443.976 164.632 443.007C164.414 442.037 164.476 441.025 164.81 440.089L168.164 443.445C168.373 443.654 168.621 443.82 168.894 443.933C169.167 444.046 169.46 444.104 169.755 444.104C170.051 444.104 170.344 444.046 170.617 443.933C170.89 443.82 171.138 443.655 171.347 443.446C171.556 443.237 171.721 442.989 171.835 442.716C171.948 442.443 172.006 442.15 172.006 441.855C172.006 441.559 171.948 441.267 171.835 440.994C171.722 440.721 171.556 440.472 171.347 440.263L167.993 436.908ZM183.544 439.732L188.317 437.08L190.439 439.203L187.787 443.976L185.135 444.505L181.954 447.687L179.831 445.566L183.014 442.384L183.544 439.732ZM172.939 451.399L176.119 454.582L168.694 462.007C168.285 462.416 167.735 462.653 167.157 462.667C166.579 462.681 166.017 462.471 165.589 462.083C165.161 461.694 164.899 461.155 164.858 460.578C164.817 460.001 164.999 459.431 165.367 458.985L165.512 458.824L172.937 451.399H172.939Z" fill="#FFFDFD"/>
<circle cx="262" cy="450" r="32" fill="#F3742B" stroke="#FFD4B8" stroke-width="8"/>
<path d="M257.5 456.3L252.25 451.05C252.112 450.911 251.949 450.801 251.769 450.726C251.588 450.65 251.395 450.612 251.2 450.612C251.004 450.612 250.811 450.65 250.631 450.726C250.45 450.801 250.287 450.911 250.15 451.05C250.011 451.188 249.9 451.351 249.825 451.531C249.75 451.712 249.711 451.905 249.711 452.1C249.711 452.296 249.75 452.489 249.825 452.669C249.9 452.85 250.011 453.013 250.15 453.15L256.435 459.435C257.02 460.02 257.965 460.02 258.55 459.435L274.45 443.55C274.589 443.413 274.699 443.25 274.774 443.069C274.849 442.889 274.888 442.696 274.888 442.5C274.888 442.305 274.849 442.112 274.774 441.931C274.699 441.751 274.589 441.588 274.45 441.45C274.312 441.311 274.149 441.201 273.969 441.126C273.788 441.05 273.595 441.012 273.4 441.012C273.204 441.012 273.011 441.05 272.831 441.126C272.65 441.201 272.487 441.311 272.35 441.45L257.5 456.3Z" fill="#FFFDFD"/>
<circle cx="346" cy="450" r="32" fill="#F3742B" stroke="#FFD4B8" stroke-width="8"/>
<g clip-path="url(#clip0_2593_33421)">
<path d="M346 435C354.285 435 361 441.716 361 450C361 458.285 354.285 465 346 465C337.716 465 331 458.285 331 450C331 441.716 337.716 435 346 435ZM346 438C342.817 438 339.765 439.264 337.515 441.515C335.264 443.765 334 446.817 334 450C334 453.183 335.264 456.235 337.515 458.485C339.765 460.736 342.817 462 346 462C349.183 462 352.235 460.736 354.485 458.485C356.736 456.235 358 453.183 358 450C358 446.817 356.736 443.765 354.485 441.515C352.235 439.264 349.183 438 346 438ZM346 441C346.367 441 346.722 441.135 346.997 441.379C347.271 441.623 347.447 441.96 347.49 442.325L347.5 442.5V449.379L351.56 453.44C351.83 453.709 351.986 454.072 351.997 454.453C352.009 454.833 351.875 455.205 351.623 455.49C351.371 455.776 351.02 455.955 350.64 455.992C350.261 456.028 349.882 455.918 349.58 455.685L349.44 455.56L344.94 451.06C344.706 450.827 344.557 450.524 344.514 450.196L344.5 450V442.5C344.5 442.102 344.658 441.721 344.939 441.439C345.221 441.158 345.602 441 346 441Z" fill="white"/>
</g>
<rect x="448" y="364" width="440" height="172" rx="8" fill="#D8F520" fill-opacity="0.19"/>
<path d="M498.665 437.333C497.749 437.333 496.964 437.006 496.31 436.353C495.657 435.699 495.331 434.915 495.332 433.999V413.999C495.332 413.083 495.659 412.298 496.312 411.644C496.965 410.991 497.75 410.665 498.665 410.666H525.332C526.249 410.666 527.034 410.993 527.687 411.646C528.34 412.299 528.666 413.084 528.665 413.999V433.999C528.665 434.916 528.339 435.701 527.685 436.354C527.032 437.008 526.248 437.334 525.332 437.333H498.665ZM511.999 425.666L525.332 417.333V413.999L511.999 422.333L498.665 413.999V417.333L511.999 425.666Z" fill="white"/>
<path d="M576.135 427.384L564.885 438.634C564.769 438.751 564.631 438.843 564.479 438.906C564.328 438.969 564.165 439.001 564.001 439.001C563.836 439.001 563.674 438.969 563.522 438.906C563.37 438.843 563.232 438.751 563.116 438.634L551.866 427.384C551.632 427.15 551.5 426.832 551.5 426.5C551.5 426.168 551.632 425.85 551.866 425.616C552.101 425.381 552.419 425.249 552.751 425.249C553.082 425.249 553.401 425.381 553.635 425.616L562.751 434.733V410.25C562.751 409.918 562.882 409.601 563.117 409.366C563.351 409.132 563.669 409 564.001 409C564.332 409 564.65 409.132 564.885 409.366C565.119 409.601 565.251 409.918 565.251 410.25V434.733L574.366 425.616C574.601 425.381 574.919 425.249 575.251 425.249C575.582 425.249 575.901 425.381 576.135 425.616C576.37 425.85 576.501 426.168 576.501 426.5C576.501 426.832 576.37 427.15 576.135 427.384Z" fill="white"/>
<path d="M625.999 425.663H617.665V433.997C617.665 434.439 617.49 434.863 617.177 435.175C616.865 435.488 616.441 435.663 615.999 435.663C615.557 435.663 615.133 435.488 614.82 435.175C614.508 434.863 614.332 434.439 614.332 433.997V425.663H605.999C605.557 425.663 605.133 425.488 604.82 425.175C604.508 424.863 604.332 424.439 604.332 423.997C604.332 423.555 604.508 423.131 604.82 422.818C605.133 422.506 605.557 422.33 605.999 422.33H614.332V413.997C614.332 413.555 614.508 413.131 614.82 412.818C615.133 412.506 615.557 412.33 615.999 412.33C616.441 412.33 616.865 412.506 617.177 412.818C617.49 413.131 617.665 413.555 617.665 413.997V422.33H625.999C626.441 422.33 626.865 422.506 627.177 422.818C627.49 423.131 627.665 423.555 627.665 423.997C627.665 424.439 627.49 424.863 627.177 425.175C626.865 425.488 626.441 425.663 625.999 425.663Z" fill="white"/>
<path d="M684.665 413.667C683.413 414.211 682.088 414.57 680.732 414.734C682.162 413.879 683.234 412.535 683.749 410.95C682.405 411.75 680.933 412.314 679.399 412.617C678.373 411.505 677.007 410.764 675.515 410.512C674.023 410.259 672.49 410.509 671.155 411.222C669.82 411.935 668.76 413.071 668.141 414.452C667.521 415.832 667.378 417.379 667.732 418.85C665.014 418.713 662.356 418.005 659.93 416.773C657.503 415.542 655.363 413.813 653.649 411.7C653.047 412.751 652.731 413.94 652.732 415.15C652.73 416.274 653.006 417.381 653.535 418.373C654.064 419.365 654.83 420.21 655.765 420.834C654.679 420.804 653.615 420.513 652.665 419.984V420.067C652.674 421.642 653.225 423.166 654.228 424.38C655.23 425.595 656.621 426.426 658.165 426.734C657.571 426.915 656.953 427.01 656.332 427.017C655.902 427.012 655.473 426.973 655.049 426.9C655.489 428.255 656.34 429.439 657.484 430.287C658.628 431.136 660.008 431.606 661.432 431.634C659.027 433.526 656.059 434.558 652.999 434.567C652.442 434.569 651.885 434.535 651.332 434.467C654.456 436.484 658.097 437.555 661.815 437.55C664.382 437.577 666.927 437.092 669.304 436.124C671.681 435.156 673.84 433.723 675.657 431.911C677.474 430.099 678.912 427.943 679.886 425.569C680.861 423.194 681.352 420.65 681.332 418.084V417.2C682.64 416.225 683.768 415.029 684.665 413.667Z" fill="white"/>
<path d="M732.049 429.432L727.816 428.949C727.318 428.89 726.813 428.946 726.34 429.11C725.867 429.275 725.437 429.544 725.082 429.899L722.016 432.966C717.284 430.559 713.439 426.714 711.032 421.982L714.116 418.899C714.832 418.182 715.182 417.182 715.066 416.166L714.582 411.966C714.488 411.153 714.098 410.403 713.486 409.859C712.875 409.315 712.084 409.015 711.266 409.016H708.382C706.499 409.016 704.932 410.582 705.049 412.466C705.932 426.699 717.316 438.066 731.532 438.949C733.416 439.066 734.982 437.499 734.982 435.616V432.732C734.999 431.049 733.732 429.632 732.049 429.432Z" fill="white"/>
<path d="M778.465 419.483L771.999 425.949L765.532 419.483C765.378 419.328 765.195 419.206 764.993 419.123C764.791 419.039 764.575 418.996 764.357 418.996C764.139 418.996 763.923 419.039 763.721 419.123C763.52 419.206 763.336 419.328 763.182 419.483C763.028 419.637 762.905 419.82 762.822 420.022C762.738 420.223 762.695 420.44 762.695 420.658C762.695 420.876 762.738 421.092 762.822 421.294C762.905 421.495 763.028 421.678 763.182 421.833L770.832 429.483C771.482 430.133 772.532 430.133 773.182 429.483L780.832 421.833C780.987 421.679 781.109 421.495 781.193 421.294C781.276 421.092 781.319 420.876 781.319 420.658C781.319 420.44 781.276 420.223 781.193 420.022C781.109 419.82 780.987 419.637 780.832 419.483C780.182 418.849 779.115 418.833 778.465 419.483Z" fill="white"/>
<path d="M833.999 425.663H813.999C813.557 425.663 813.133 425.488 812.82 425.175C812.508 424.863 812.332 424.439 812.332 423.997C812.332 423.555 812.508 423.131 812.82 422.818C813.133 422.506 813.557 422.33 813.999 422.33H833.999C834.441 422.33 834.865 422.506 835.177 422.818C835.49 423.131 835.665 423.555 835.665 423.997C835.665 424.439 835.49 424.863 835.177 425.175C834.865 425.488 834.441 425.663 833.999 425.663Z" fill="white"/>
<path d="M498.668 466H525.335M498.668 476H525.335M513.668 486H525.335" stroke="white" stroke-width="2" stroke-linecap="round" stroke-linejoin="round"/>
<g clip-path="url(#clip1_2593_33421)">
<path d="M563.999 459.334C573.204 459.334 580.665 466.796 580.665 476.001C580.665 485.206 573.204 492.667 563.999 492.667C554.794 492.667 547.332 485.206 547.332 476.001C547.332 466.796 554.794 459.334 563.999 459.334ZM563.999 462.667C560.462 462.667 557.071 464.072 554.571 466.573C552.07 469.073 550.665 472.464 550.665 476.001C550.665 479.537 552.07 482.928 554.571 485.429C557.071 487.929 560.462 489.334 563.999 489.334C567.535 489.334 570.926 487.929 573.427 485.429C575.927 482.928 577.332 479.537 577.332 476.001C577.332 472.464 575.927 469.073 573.427 466.573C570.926 464.072 567.535 462.667 563.999 462.667ZM563.999 466.001C564.407 466.001 564.801 466.151 565.106 466.422C565.411 466.693 565.606 467.067 565.654 467.472L565.665 467.667V475.311L570.177 479.822C570.476 480.122 570.649 480.525 570.662 480.948C570.675 481.371 570.527 481.784 570.247 482.101C569.967 482.419 569.576 482.618 569.155 482.658C568.733 482.698 568.312 482.576 567.977 482.317L567.82 482.179L562.82 477.179C562.561 476.92 562.395 476.582 562.347 476.219L562.332 476.001V467.667C562.332 467.225 562.508 466.801 562.82 466.489C563.133 466.176 563.557 466.001 563.999 466.001Z" fill="white"/>
</g>
<path d="M616 456C604.972 456 596 464.972 596 476V484.286C596 486.334 597.794 488 600 488H602C602.53 488 603.039 487.789 603.414 487.414C603.789 487.039 604 486.53 604 486V475.714C604 475.184 603.789 474.675 603.414 474.3C603.039 473.925 602.53 473.714 602 473.714H600.184C601.296 465.974 607.956 460 616 460C624.044 460 630.704 465.974 631.816 473.714H630C629.47 473.714 628.961 473.925 628.586 474.3C628.211 474.675 628 475.184 628 475.714V488C628 490.206 626.206 492 624 492H620V490H612V496H624C628.412 496 632 492.412 632 488C634.206 488 636 486.334 636 484.286V476C636 464.972 627.028 456 616 456Z" fill="white"/>
<path fill-rule="evenodd" clip-rule="evenodd" d="M652.932 475.999C652.932 468.439 658.826 460.932 667.999 460.932C675.407 460.932 679.071 466.415 680.631 469.332H675.999C675.645 469.332 675.306 469.473 675.056 469.723C674.806 469.973 674.666 470.312 674.666 470.666C674.666 471.019 674.806 471.358 675.056 471.608C675.306 471.858 675.645 471.999 675.999 471.999H683.999C684.353 471.999 684.692 471.858 684.942 471.608C685.192 471.358 685.332 471.019 685.332 470.666V462.666C685.332 462.312 685.192 461.973 684.942 461.723C684.692 461.473 684.353 461.332 683.999 461.332C683.645 461.332 683.306 461.473 683.056 461.723C682.806 461.973 682.666 462.312 682.666 462.666V467.5C680.788 464.188 676.442 458.266 667.999 458.266C657.164 458.266 650.266 467.159 650.266 475.999C650.266 484.839 657.164 493.732 667.999 493.732C673.183 493.732 677.498 491.679 680.57 488.554C682.2 486.891 683.493 484.929 684.378 482.775C684.444 482.613 684.478 482.44 684.478 482.264C684.477 482.089 684.442 481.916 684.375 481.754C684.307 481.593 684.209 481.446 684.084 481.323C683.96 481.199 683.813 481.101 683.651 481.035C683.489 480.968 683.316 480.934 683.14 480.935C682.965 480.935 682.792 480.97 682.63 481.038C682.469 481.105 682.322 481.204 682.199 481.328C682.075 481.452 681.977 481.6 681.911 481.762C681.157 483.596 680.056 485.268 678.668 486.684C676.079 489.324 672.439 491.066 667.999 491.066C658.826 491.066 652.932 483.559 652.932 475.999Z" fill="white"/>
<path d="M708.881 461.453C709.92 461.083 711.044 461.015 712.121 461.258C713.198 461.501 714.183 462.044 714.964 462.825C715.744 463.605 716.287 464.591 716.529 465.668C716.771 466.745 716.703 467.869 716.332 468.908L734.409 486.983L730.874 490.52L712.797 472.445C711.757 472.816 710.633 472.884 709.556 472.642C708.479 472.399 707.492 471.856 706.712 471.075C705.931 470.294 705.388 469.307 705.146 468.23C704.904 467.152 704.972 466.028 705.344 464.988L709.071 468.717C709.303 468.949 709.578 469.133 709.882 469.259C710.185 469.385 710.51 469.449 710.838 469.45C711.167 469.45 711.492 469.385 711.795 469.259C712.099 469.134 712.374 468.95 712.606 468.718C712.839 468.486 713.023 468.21 713.149 467.907C713.274 467.603 713.339 467.278 713.339 466.95C713.339 466.622 713.275 466.296 713.149 465.993C713.023 465.69 712.839 465.414 712.607 465.182L708.881 461.453ZM726.159 464.592L731.462 461.645L733.821 464.003L730.874 469.307L727.927 469.895L724.392 473.43L722.034 471.073L725.571 467.538L726.159 464.592ZM714.376 477.555L717.909 481.092L709.659 489.342C709.205 489.796 708.593 490.059 707.951 490.074C707.308 490.09 706.685 489.857 706.209 489.425C705.734 488.993 705.443 488.395 705.397 487.754C705.351 487.113 705.553 486.479 705.962 485.983L706.124 485.805L714.374 477.555H714.376Z" fill="white"/>
<path d="M755.711 464.125H785.75V460.025C785.75 459.841 785.709 459.658 785.63 459.491C785.551 459.323 785.435 459.176 785.292 459.059C785.149 458.941 784.982 458.857 784.803 458.813C784.623 458.768 784.436 458.763 784.255 458.8L755.505 463.525C755.291 463.567 755.091 463.665 754.927 463.809C754.762 463.952 754.638 464.136 754.567 464.343C754.931 464.199 755.319 464.125 755.711 464.125ZM788.211 466H755.711C755.379 466 755.061 466.132 754.827 466.367C754.593 466.601 754.461 466.919 754.461 467.25V489.75C754.461 490.082 754.593 490.4 754.827 490.634C755.061 490.869 755.379 491 755.711 491H788.211C788.542 491 788.86 490.869 789.095 490.634C789.329 490.4 789.461 490.082 789.461 489.75V467.25C789.461 466.919 789.329 466.601 789.095 466.367C788.86 466.132 788.542 466 788.211 466ZM780.75 481C780.256 481 779.772 480.854 779.361 480.579C778.95 480.304 778.63 479.914 778.44 479.457C778.251 479 778.202 478.498 778.298 478.013C778.394 477.528 778.633 477.082 778.982 476.733C779.332 476.383 779.777 476.145 780.262 476.049C780.747 475.952 781.25 476.002 781.707 476.191C782.164 476.38 782.554 476.7 782.829 477.112C783.103 477.523 783.25 478.006 783.25 478.5C783.25 479.164 782.987 479.799 782.518 480.268C782.049 480.737 781.413 481 780.75 481Z" fill="white"/>
<path d="M754.449 476.273V465.062C754.449 464.099 754.896 463.619 755.654 463.5C758.404 463.068 764.137 462.836 764.137 462.836C764.137 462.836 763.486 464.086 762.002 464.086V466C763.447 466 764.449 467.836 764.449 467.836L758.629 474.438L754.449 476.273Z" fill="white"/>
<path d="M824 460.375C821.514 460.375 819.129 461.363 817.371 463.121C815.613 464.879 814.625 467.264 814.625 469.75C814.625 474.929 824 492.4 824 492.4C824 492.4 833.375 474.93 833.375 469.75C833.375 467.264 832.387 464.879 830.629 463.121C828.871 461.363 826.486 460.375 824 460.375ZM824 474.23C822.812 474.23 821.672 473.758 820.832 472.918C819.992 472.078 819.52 470.938 819.52 469.75C819.52 468.562 819.992 467.422 820.832 466.582C821.672 465.742 822.812 465.27 824 465.27C825.188 465.27 826.328 465.742 827.168 466.582C828.008 467.422 828.48 468.562 828.48 469.75C828.48 470.938 828.008 472.078 827.168 472.918C826.328 473.758 825.188 474.23 824 474.23Z" fill="white"/>
<rect x="896" y="364" width="336" height="172" rx="8" fill="#D8F520" fill-opacity="0.19"/>
<circle cx="963.5" cy="450" r="27.5" transform="rotate(-90 963.5 450)" fill="#FFD4B8"/>
<path d="M966.708 439.792L975.708 448.792C975.8 448.885 975.874 448.995 975.925 449.117C975.975 449.238 976.001 449.368 976.001 449.499C976.001 449.631 975.975 449.761 975.925 449.882C975.874 450.004 975.8 450.114 975.708 450.207L966.708 459.207C966.52 459.395 966.265 459.5 966 459.5C965.735 459.5 965.48 459.395 965.292 459.207C965.105 459.019 964.999 458.765 964.999 458.499C964.999 458.234 965.105 457.98 965.292 457.792L972.586 450.499H953C952.735 450.499 952.48 450.394 952.293 450.207C952.105 450.019 952 449.765 952 449.499C952 449.234 952.105 448.98 952.293 448.792C952.48 448.605 952.735 448.499 953 448.499H972.586L965.292 441.207C965.105 441.019 964.999 440.765 964.999 440.499C964.999 440.234 965.105 439.98 965.292 439.792C965.48 439.604 965.735 439.499 966 439.499C966.265 439.499 966.52 439.604 966.708 439.792Z" fill="#F3742B"/>
<circle cx="1030.5" cy="450" r="27.5" transform="rotate(-90 1030.5 450)" fill="#FFC29A"/>
<path d="M1033.71 439.792L1042.71 448.792C1042.8 448.885 1042.87 448.995 1042.92 449.117C1042.97 449.238 1043 449.368 1043 449.499C1043 449.631 1042.97 449.761 1042.92 449.882C1042.87 450.004 1042.8 450.114 1042.71 450.207L1033.71 459.207C1033.52 459.395 1033.27 459.5 1033 459.5C1032.73 459.5 1032.48 459.395 1032.29 459.207C1032.1 459.019 1032 458.765 1032 458.499C1032 458.234 1032.1 457.98 1032.29 457.792L1039.59 450.499H1020C1019.73 450.499 1019.48 450.394 1019.29 450.207C1019.11 450.019 1019 449.765 1019 449.499C1019 449.234 1019.11 448.98 1019.29 448.792C1019.48 448.605 1019.73 448.499 1020 448.499H1039.59L1032.29 441.207C1032.1 441.019 1032 440.765 1032 440.499C1032 440.234 1032.1 439.98 1032.29 439.792C1032.48 439.604 1032.73 439.499 1033 439.499C1033.27 439.499 1033.52 439.604 1033.71 439.792Z" fill="#F3742B"/>
<circle cx="1097.5" cy="450" r="27" transform="rotate(-90 1097.5 450)" fill="#FFD4B8" stroke="#F3742B"/>
<path d="M1100.71 439.792L1109.71 448.792C1109.8 448.885 1109.87 448.995 1109.92 449.117C1109.97 449.238 1110 449.368 1110 449.499C1110 449.631 1109.97 449.761 1109.92 449.882C1109.87 450.004 1109.8 450.114 1109.71 450.207L1100.71 459.207C1100.52 459.395 1100.27 459.5 1100 459.5C1099.73 459.5 1099.48 459.395 1099.29 459.207C1099.1 459.019 1099 458.765 1099 458.499C1099 458.234 1099.1 457.98 1099.29 457.792L1106.59 450.499H1087C1086.73 450.499 1086.48 450.394 1086.29 450.207C1086.11 450.019 1086 449.765 1086 449.499C1086 449.234 1086.11 448.98 1086.29 448.792C1086.48 448.605 1086.73 448.499 1087 448.499H1106.59L1099.29 441.207C1099.1 441.019 1099 440.765 1099 440.499C1099 440.234 1099.1 439.98 1099.29 439.792C1099.48 439.604 1099.73 439.499 1100 439.499C1100.27 439.499 1100.52 439.604 1100.71 439.792Z" fill="#F3742B"/>
<circle cx="1164.5" cy="450" r="27.5" transform="rotate(-90 1164.5 450)" fill="#E1D9D4"/>
<path d="M1167.71 439.792L1176.71 448.792C1176.8 448.885 1176.87 448.995 1176.92 449.117C1176.97 449.238 1177 449.368 1177 449.499C1177 449.631 1176.97 449.761 1176.92 449.882C1176.87 450.004 1176.8 450.114 1176.71 450.207L1167.71 459.207C1167.52 459.395 1167.27 459.5 1167 459.5C1166.73 459.5 1166.48 459.395 1166.29 459.207C1166.1 459.019 1166 458.765 1166 458.499C1166 458.234 1166.1 457.98 1166.29 457.792L1173.59 450.499H1154C1153.73 450.499 1153.48 450.394 1153.29 450.207C1153.11 450.019 1153 449.765 1153 449.499C1153 449.234 1153.11 448.98 1153.29 448.792C1153.48 448.605 1153.73 448.499 1154 448.499H1173.59L1166.29 441.207C1166.1 441.019 1166 440.765 1166 440.499C1166 440.234 1166.1 439.98 1166.29 439.792C1166.48 439.604 1166.73 439.499 1167 439.499C1167.27 439.499 1167.52 439.604 1167.71 439.792Z" fill="#B6ACA7"/>
<defs>
<clipPath id="clip0_2593_33421">
<rect width="36" height="36" fill="white" transform="translate(328 432)"/>
</clipPath>
<clipPath id="clip1_2593_33421">
<rect width="40" height="40" fill="white" transform="translate(544 456)"/>
</clipPath>
</defs>
</svg>
